<?xml version="1.0" encoding="UTF-8"?>
<svg version="1.1" xmlns="http://www.w3.org/2000/svg" width="1682" height="508">
<path d="M0 0 C0.75539063 0.17160645 1.51078125 0.34321289 2.2890625 0.52001953 C32.09702489 7.4922415 58.07787492 24.12559248 74.84326172 50.11572266 C78.36279474 55.8488919 81.27876986 61.85436785 84 68 C84.27827637 68.62567871 84.55655273 69.25135742 84.84326172 69.89599609 C88.42693039 78.15984522 90.79146087 86.59113814 92.75 95.375 C92.94875732 96.25873291 93.14751465 97.14246582 93.35229492 98.05297852 C96.54677629 113.31063215 97.38075126 128.63963227 97.3125 144.1875 C97.31100952 145.03451477 97.30951904 145.88152954 97.3079834 146.75421143 C97.26514105 160.35218091 96.57986985 173.61692516 94 187 C93.79117188 188.12873535 93.79117188 188.12873535 93.578125 189.28027344 C89.32687614 211.5698074 80.40365149 232.41761163 66 250 C65.31421875 250.85078125 64.6284375 251.7015625 63.921875 252.578125 C42.49393396 277.81547778 10.1822157 289.26615523 -22 292 C-27.72596792 292.33146957 -33.45375865 292.34194256 -39.1875 292.3125 C-39.94935608 292.31034485 -40.71121216 292.3081897 -41.49615479 292.30596924 C-67.42449949 292.1887874 -92.25139096 288.03476303 -115 275 C-115.98097656 274.44570313 -116.96195312 273.89140625 -117.97265625 273.3203125 C-145.26685224 256.90452268 -162.30542135 229.65052539 -170.43701172 199.30615234 C-174.67093319 181.96286429 -176.18695813 164.86292804 -176.18530273 147.0690918 C-176.18747527 144.46711508 -176.20564975 141.86557324 -176.22460938 139.26367188 C-176.27596095 124.34511217 -175.25477234 109.61961371 -171.8125 95.0625 C-171.59819336 94.14774902 -171.38388672 93.23299805 -171.16308594 92.29052734 C-163.65888664 61.57850377 -147.18930242 33.46532968 -120.00878906 16.20410156 C-85.57841429 -4.43403752 -38.86220014 -9.11944944 0 0 Z M-90.6875 68.5625 C-111.49403032 92.94224483 -113.64701862 129.36302107 -111.5378418 159.82739258 C-109.74261143 182.11509005 -104.93125325 205.31011565 -89 222 C-88.14921875 222.928125 -88.14921875 222.928125 -87.28125 223.875 C-73.60710502 237.3092477 -54.72800983 240.5163275 -36.38012695 240.42016602 C-18.69302637 240.00544862 -3.23876247 234.83680285 9.78515625 222.3828125 C27.86374778 202.9331814 32.12134958 175.56323557 33 150 C33.04125 149.05769531 33.0825 148.11539063 33.125 147.14453125 C33.75633817 119.79969665 29.6020644 86.76348198 10.12109375 65.9375 C-4.71965315 52.38131131 -22.94252334 47.23959096 -42.84375 47.75 C-61.421039 48.62463696 -77.61762924 55.08979076 -90.6875 68.5625 Z " fill="#414142" transform="translate(602,113)"/>
<path d="M0 0 C1.28535645 0.4935498 1.28535645 0.4935498 2.59667969 0.99707031 C3.7669873 1.47031738 3.7669873 1.47031738 4.9609375 1.953125 C5.64720215 2.22801758 6.3334668 2.50291016 7.04052734 2.78613281 C8.625 3.75 8.625 3.75 9.625 6.75 C9.06863403 8.72302246 9.06863403 8.72302246 8.10205078 10.99023438 C7.74482941 11.84121704 7.38760803 12.69219971 7.01956177 13.56896973 C6.62380951 14.48464722 6.22805725 15.40032471 5.8203125 16.34375 C5.22245438 17.7583551 5.22245438 17.7583551 4.61251831 19.20153809 C3.33396745 22.22158548 2.04233595 25.23582915 0.75 28.25 C-0.53227803 31.26534568 -1.81191807 34.28179957 -3.09109497 37.29846191 C-3.88884722 39.17702232 -4.68896973 41.05457825 -5.4916687 42.93103027 C-5.8551944 43.78201294 -6.21872009 44.63299561 -6.59326172 45.50976562 C-6.91382538 46.25794556 -7.23438904 47.00612549 -7.56466675 47.77697754 C-8.23486864 49.40880418 -8.81714439 51.07643318 -9.375 52.75 C-15.02333128 52.12343144 -19.84054438 50.1031678 -25.0625 48 C-46.37944591 39.67382539 -73.64722543 31.08451575 -96.0390625 39.78515625 C-103.86401161 43.37447656 -107.96095796 47.7270012 -111.375 55.75 C-113.55583881 63.28380678 -112.79617917 70.76049417 -109.375 77.75 C-99.0447597 93.58381561 -75.10002234 101.70026133 -58.625 109.3125 C-32.05571779 121.68688941 -4.45676645 138.05831377 6.55859375 166.6328125 C13.99181093 188.36067811 12.94547611 213.29049632 3.0625 234.0625 C-0.88342727 241.79591387 -6.15432959 247.76823274 -12.375 253.75 C-13.35919922 254.74580078 -13.35919922 254.74580078 -14.36328125 255.76171875 C-35.60919478 276.00675413 -67.43645722 280.19384372 -95.4375 280.0625 C-96.65164581 280.05976578 -96.65164581 280.05976578 -97.89031982 280.05697632 C-125.62668359 279.95212392 -152.39302948 275.24098526 -177.375 262.75 C-177.375 243.94 -177.375 225.13 -177.375 205.75 C-172.91027853 206.49412024 -170.001793 207.14027076 -165.98828125 208.82421875 C-164.97709229 209.24171387 -163.96590332 209.65920898 -162.92407227 210.08935547 C-161.32196899 210.75668701 -161.32196899 210.75668701 -159.6875 211.4375 C-131.00744989 223.11911542 -95.98882758 235.26561801 -65.375 223.75 C-58.66149709 220.10352893 -53.93115728 214.9889536 -51.375 207.75 C-49.68224995 199.42929904 -50.25782066 192.26725237 -54.375 184.75 C-55.69504327 183.40350777 -57.02613976 182.06762347 -58.375 180.75 C-58.375 180.09 -58.375 179.43 -58.375 178.75 C-58.93993164 178.48767578 -59.50486328 178.22535156 -60.08691406 177.95507812 C-62.56875161 176.64795583 -64.72021685 175.12364714 -66.984375 173.46875 C-71.99753533 169.9240172 -77.15787127 167.0277809 -82.625 164.25 C-83.59373047 163.74936035 -84.56246094 163.2487207 -85.56054688 162.73291016 C-91.34840894 159.75632133 -97.17189291 156.85688531 -103.015625 153.9921875 C-132.81659098 139.36600343 -158.55565026 123.64223536 -170.76171875 91.046875 C-177.28682261 69.15915818 -174.250843 45.31566533 -164.0703125 25.16796875 C-154.23152749 7.51930072 -137.15381674 -4.13622775 -118.25 -10.4375 C-115.96733484 -11.07483291 -113.67480508 -11.67759276 -111.375 -12.25 C-110.1890625 -12.55035156 -109.003125 -12.85070312 -107.78125 -13.16015625 C-71.66138815 -21.16070565 -33.75505802 -13.11952273 0 0 Z " fill="#414142" transform="translate(940.375,125.25)"/>
<path d="M0 0 C0.89283691 0.20898926 1.78567383 0.41797852 2.70556641 0.63330078 C13.05857355 3.14306373 22.92993483 6.56643779 32.75 10.6875 C33.66225342 11.06801514 34.57450684 11.44853027 35.5144043 11.84057617 C36.35011963 12.20642822 37.18583496 12.57228027 38.046875 12.94921875 C38.78776367 13.27237061 39.52865234 13.59552246 40.29199219 13.9284668 C42 15 42 15 43 18 C42.39894104 20.18302917 42.39894104 20.18302917 41.36938477 22.74682617 C40.98891495 23.70759567 40.60844513 24.66836517 40.21644592 25.6582489 C39.79568283 26.69270645 39.37491974 27.727164 38.94140625 28.79296875 C38.51826645 29.85413406 38.09512665 30.91529938 37.65916443 32.00862122 C36.30242235 35.40518651 34.93263775 38.79631915 33.5625 42.1875 C32.64171588 44.48598289 31.72178292 46.78480696 30.80273438 49.08398438 C28.54502677 54.72665582 26.27658202 60.36491913 24 66 C20.15574324 65.28222805 16.87183535 64.22153709 13.2734375 62.671875 C11.61501831 61.96973877 11.61501831 61.96973877 9.9230957 61.25341797 C8.16678833 60.50922607 8.16678833 60.50922607 6.375 59.75 C-18.4462317 49.42902419 -42.87819001 43.31072079 -69.125 53.0625 C-86.47719666 60.90952298 -97.13605455 75.35412134 -104.13183594 92.66552734 C-116.71882581 126.51164579 -115.82356754 170.16981267 -101.7578125 203.42578125 C-94.26737094 218.65634576 -83.61322899 228.53876254 -68 235 C-60.81247444 237.38419742 -53.55088087 238.60582677 -46 239 C-45.28199219 239.04125 -44.56398438 239.0825 -43.82421875 239.125 C-21.56209953 239.7401881 0.7096549 233.9549078 21.72753906 227.2355957 C22.63729492 226.94515381 23.54705078 226.65471191 24.484375 226.35546875 C25.68658691 225.96331177 25.68658691 225.96331177 26.91308594 225.56323242 C29 225 29 225 32 225 C32 242.16 32 259.32 32 277 C13.22337752 284.04123343 13.22337752 284.04123343 5.9375 285.6875 C5.05650635 285.88754639 4.1755127 286.08759277 3.26782227 286.29370117 C-24.50527772 292.36179403 -56.07351919 294.55575427 -84 288 C-84.72058594 287.83371094 -85.44117188 287.66742188 -86.18359375 287.49609375 C-114.31513883 280.7264706 -138.25329583 264.35076501 -153.87109375 239.86523438 C-157.34619555 234.12350043 -160.25318735 228.11717416 -163 222 C-163.47179687 220.95585937 -163.94359375 219.91171875 -164.4296875 218.8359375 C-182.83451525 174.59576147 -181.36117104 115.99181966 -163.66015625 71.84765625 C-157.28653879 56.69346609 -148.26717986 43.94827018 -137 32 C-136.32582031 31.24976563 -135.65164062 30.49953125 -134.95703125 29.7265625 C-119.69250753 13.40240017 -98.28352871 4.33060957 -77 -1 C-76.31373535 -1.17934082 -75.6274707 -1.35868164 -74.92041016 -1.54345703 C-51.42690182 -7.42705885 -23.32606082 -5.51758372 0 0 Z " fill="#414142" transform="translate(334,114)"/>
<path d="M0 0 C22.11 0 44.22 0 67 0 C67 97.35 67 194.7 67 295 C44.89 295 22.78 295 0 295 C0 197.65 0 100.3 0 0 Z " fill="#414142" transform="translate(23,110)"/>
<path d="M0 0 C4.95 0 9.9 0 15 0 C15 162.03 15 324.06 15 491 C10.05 491 5.1 491 0 491 C0 328.97 0 166.94 0 0 Z " fill="#414142" transform="translate(1045,12)"/>
<path d="M0 0 C6.98605646 4.41062284 12.40080425 10.31467813 14.4375 18.4375 C15.5501748 27.40187999 14.95254339 35.0756176 9.4375 42.4375 C4.2210553 48.04069738 -0.40744895 52.0135152 -8.19921875 52.80859375 C-17.6569034 53.09593054 -24.89657564 52.29048739 -32.359375 45.8984375 C-37.68649426 40.33397135 -40.70099027 33.11355657 -41.0625 25.4375 C-40.70099027 17.76144343 -37.68649426 10.54102865 -32.359375 4.9765625 C-23.78939545 -2.36381129 -10.55361827 -4.73164172 0 0 Z " fill="#E41C63" transform="translate(1196.5625,13.5625)"/>
<path d="M0 0 C6.98605646 4.41062284 12.40080425 10.31467813 14.4375 18.4375 C15.55104047 27.40885434 14.94641094 35.06678119 9.4375 42.4375 C3.94589462 48.43384852 -0.8314431 51.93811066 -9.078125 52.80859375 C-18.41586116 52.97464136 -25.14422155 52.06830631 -32.36328125 45.8984375 C-37.68401322 40.32685216 -40.70087817 33.11593684 -41.0625 25.4375 C-40.70099027 17.76144343 -37.68649426 10.54102865 -32.359375 4.9765625 C-23.78939545 -2.36381129 -10.55361827 -4.73164172 0 0 Z " fill="#E41C63" transform="translate(1358.5625,13.5625)"/>
<path d="M0 0 C6.98605646 4.41062284 12.40080425 10.31467813 14.4375 18.4375 C15.55104047 27.40885434 14.94641094 35.06678119 9.4375 42.4375 C3.94589462 48.43384852 -0.8314431 51.93811066 -9.078125 52.80859375 C-18.41586116 52.97464136 -25.14422155 52.06830631 -32.36328125 45.8984375 C-37.68401322 40.32685216 -40.70087817 33.11593684 -41.0625 25.4375 C-40.70099027 17.76144343 -37.68649426 10.54102865 -32.359375 4.9765625 C-23.78939545 -2.36381129 -10.55361827 -4.73164172 0 0 Z " fill="#00ABC9" transform="translate(1277.5625,13.5625)"/>
<path d="M0 0 C1.2684375 0.7425 1.2684375 0.7425 2.5625 1.5 C6.48203092 1.83678613 6.48203092 1.83678613 9.125 0 C15.02524392 -2.57465189 21.00539676 -2.3675886 27.0625 -0.3125 C30.72715013 2.34437135 32.20378583 4.79044257 33.13061523 9.20751953 C33.60187626 12.80018557 33.67512863 16.24387098 33.66015625 19.8671875 C33.6587413 20.54677521 33.65732635 21.22636292 33.65586853 21.92654419 C33.65031518 24.07607612 33.63777169 26.22550008 33.625 28.375 C33.61997896 29.84114432 33.61541711 31.30729029 33.61132812 32.7734375 C33.60121615 36.34903241 33.58163224 39.92439674 33.5625 43.5 C28.2825 43.5 23.0025 43.5 17.5625 43.5 C17.50191406 41.60894531 17.44132812 39.71789062 17.37890625 37.76953125 C17.29448678 35.28384682 17.20983948 32.79817013 17.125 30.3125 C17.08568359 29.06662109 17.04636719 27.82074219 17.00585938 26.53710938 C16.96396484 25.33505859 16.92207031 24.13300781 16.87890625 22.89453125 C16.82391968 21.23707886 16.82391968 21.23707886 16.76782227 19.54614258 C16.58097344 16.77407028 16.18087634 14.20457127 15.5625 11.5 C12.62158413 11.68415432 12.62158413 11.68415432 9.5625 12.5 C7.25997773 15.75525696 7.25883374 18.89620776 7.1484375 22.796875 C7.10976562 24.00214844 7.07109375 25.20742188 7.03125 26.44921875 C7.0003125 27.70347656 6.969375 28.95773437 6.9375 30.25 C6.89882812 31.51972656 6.86015625 32.78945313 6.8203125 34.09765625 C6.7260606 37.23153181 6.64319218 40.36574598 6.5625 43.5 C1.2825 43.5 -3.9975 43.5 -9.4375 43.5 C-9.49808594 41.51355469 -9.55867188 39.52710938 -9.62109375 37.48046875 C-9.68367782 35.55427008 -9.74629365 33.6280723 -9.80981445 31.7019043 C-9.87437006 29.70696681 -9.9342783 27.71188071 -9.99414062 25.71679688 C-10.03603516 24.46318359 -10.07792969 23.20957031 -10.12109375 21.91796875 C-10.15775146 20.76063232 -10.19440918 19.6032959 -10.23217773 18.41088867 C-10.32078509 15.4356554 -10.32078509 15.4356554 -11.4375 12.5 C-13.2897367 11.49521963 -13.2897367 11.49521963 -15.4375 11.5 C-17.92365558 13.34159673 -18.43906904 14.50470711 -19.4375 17.5 C-19.58736411 19.4906444 -19.68578038 21.48535391 -19.75390625 23.48046875 C-19.79580078 24.64384766 -19.83769531 25.80722656 -19.88085938 27.00585938 C-19.92017578 28.22080078 -19.95949219 29.43574219 -20 30.6875 C-20.04318359 31.91404297 -20.08636719 33.14058594 -20.13085938 34.40429688 C-20.23703014 37.43606192 -20.33777764 40.468016 -20.4375 43.5 C-25.7175 43.5 -30.9975 43.5 -36.4375 43.5 C-36.4375 28.98 -36.4375 14.46 -36.4375 -0.5 C-32.1475 -0.5 -27.8575 -0.5 -23.4375 -0.5 C-22.7775 0.49 -22.1175 1.48 -21.4375 2.5 C-20.839375 2.025625 -20.24125 1.55125 -19.625 1.0625 C-14.06058709 -2.91208065 -6.07411168 -2.65052146 0 0 Z " fill="#414142" transform="translate(1417.4375,363.5)"/>
<path d="M0 0 C5.67076324 4.79833813 8.51739189 10.64030345 9.18017578 18.00097656 C9.83627051 28.71954206 9.76977311 38.39551659 2.5 46.9375 C1.675 47.618125 0.85 48.29875 0 49 C-0.61875 49.556875 -1.2375 50.11375 -1.875 50.6875 C-9.48445767 55.38745915 -19.92255955 55.05778236 -28.46875 53.5703125 C-34.66831001 51.57759678 -39.71989299 47.29846942 -43.390625 41.98828125 C-47.67599665 33.34209127 -47.5117147 21.24087567 -45.26953125 11.984375 C-44.35465411 9.78866987 -43.34971371 7.95353301 -42 6 C-41.278125 4.906875 -40.55625 3.81375 -39.8125 2.6875 C-29.64847804 -7.02478765 -11.58630882 -7.7007992 0 0 Z M-25.9375 10.9375 C-30.06731185 17.06964487 -30.50532693 23.47470678 -29.5390625 30.69921875 C-28.73025075 34.15132106 -27.35914626 36.37872638 -25 39 C-22.08645458 40.7634617 -20.40200766 41.00837516 -17 40.9375 C-13.22963552 39.7592611 -11.54010008 37.97554581 -9 35 C-7.45088179 31.90176359 -7.77435603 28.64766609 -7.75 25.25 C-7.729375 24.54617188 -7.70875 23.84234375 -7.6875 23.1171875 C-7.65208116 18.35335415 -8.36152305 15.11799674 -11 11 C-15.92331038 7.71779308 -20.97706113 7.66572117 -25.9375 10.9375 Z " fill="#414142" transform="translate(1205,274)"/>
<path d="M0 0 C0 2.64 0 5.28 0 8 C-1.65 8.33 -3.3 8.66 -5 9 C-4.89300781 9.58007812 -4.78601562 10.16015625 -4.67578125 10.7578125 C-3.85487159 16.10696576 -3.77197647 19.37316627 -7 24 C-11.93248845 28.79917795 -16.62703131 30.10596483 -23.375 30.125 C-24.91690094 30.09316134 -26.45874525 30.05482724 -28 30 C-27.67 30.66 -27.34 31.32 -27 32 C-25.28103516 32.05607422 -25.28103516 32.05607422 -23.52734375 32.11328125 C-21.99736554 32.17898584 -20.46741903 32.24543159 -18.9375 32.3125 C-17.80924805 32.34633789 -17.80924805 32.34633789 -16.65820312 32.38085938 C-10.71578584 32.66383163 -5.31740076 33.53308951 -1.0625 38.0625 C0.5158387 42.4261423 0.65478525 46.41650323 0 51 C-2.35383616 55.88873664 -5.27506356 58.40591725 -10 61 C-15.26970452 62.81064971 -19.93233069 63.35561017 -25.4375 63.3125 C-26.18668701 63.30686035 -26.93587402 63.3012207 -27.70776367 63.29541016 C-33.0968727 63.17663219 -37.26773599 62.78368471 -42 60 C-44.9514575 56.75339675 -45.89077133 54.77825429 -46.5 50.4375 C-45.9120489 46.39533617 -44.90568828 44.82497472 -42 42 C-39.75 40.6875 -39.75 40.6875 -38 40 C-38.495 39.62875 -38.99 39.2575 -39.5 38.875 C-41 37 -41 37 -41.4375 34.0625 C-40.91278296 30.38948075 -39.82790258 29.29767085 -37 27 C-37.804375 26.195625 -38.60875 25.39125 -39.4375 24.5625 C-42.65336801 20.66864272 -43.27797919 16.97835461 -43 12 C-42.12243856 7.2611682 -40.80240588 4.66582616 -37.0625 1.5625 C-26.40852177 -3.87320318 -11.63112864 -0.84590027 0 0 Z M-26.8125 9.5625 C-28.52392078 13.07541634 -28.02950072 15.29379741 -27 19 C-25.06402968 20.51294288 -25.06402968 20.51294288 -23 21 C-19.65924903 19.26330048 -19.65924903 19.26330048 -19.1875 15.625 C-19.00815876 12.15773599 -19.09631952 10.79953012 -21 8 C-24.89389731 7.56470692 -24.89389731 7.56470692 -26.8125 9.5625 Z M-32 47 C-31.67 48.65 -31.34 50.3 -31 52 C-24.53916383 54.15361206 -19.86221379 52.87128839 -14 50 C-14.33 48.68 -14.66 47.36 -15 46 C-17.45840605 45.97308315 -19.91651882 45.95320198 -22.375 45.9375 C-23.42300781 45.92493164 -23.42300781 45.92493164 -24.4921875 45.91210938 C-28.37295376 45.8164558 -28.37295376 45.8164558 -32 47 Z " fill="#414142" transform="translate(1367,124)"/>
<path d="M0 0 C5.28 0 10.56 0 16 0 C16 6.27 16 12.54 16 19 C18.31 17.68 20.62 16.36 23 15 C27.14887324 14.00835367 30.42557225 14.71278613 34.25 16.625 C40.23712881 21.79570216 42.59552261 27.70808746 43.1875 35.453125 C43.40150253 44.17372797 41.94310033 51.56401213 36 58.25 C32.25531873 61.52659611 28.26406822 61.32162109 23.51953125 61.30078125 C19.75656542 60.85155897 17.86513445 59.4127448 15 57 C14.34 57.99 13.68 58.98 13 60 C8.71 60 4.42 60 0 60 C0 40.2 0 20.4 0 0 Z M18 28 C15.63601154 31.54598268 15.70181626 33.23329099 15.6875 37.4375 C15.67074219 38.57058594 15.65398437 39.70367187 15.63671875 40.87109375 C16.02592124 44.22325713 16.73362629 45.5661897 19 48 C20.98 47.67 22.96 47.34 25 47 C27.00917735 41.44521557 27.39234319 36.79394424 26 31 C25.34 30.01 24.68 29.02 24 28 C21 27.5 21 27.5 18 28 Z " fill="#414142" transform="translate(1223,267)"/>
<path d="M0 0 C5.28 0 10.56 0 16 0 C16 20.13 16 40.26 16 61 C12.04 61 8.08 61 4 61 C3.01 59.68 2.02 58.36 1 57 C0.236875 57.639375 -0.52625 58.27875 -1.3125 58.9375 C-5.58219546 62.21424303 -9.7455332 62.68927416 -15 62 C-20.45762222 59.43170719 -23.49264123 55.36434923 -26 50 C-28.26729463 41.24453521 -27.93910248 31.21375814 -24 23 C-21.49187477 19.63527462 -19.05389699 17.351299 -15 16 C-9.50151083 15.4645666 -5.56386926 15.57709806 -1 19 C-0.67 19 -0.34 19 0 19 C0 12.73 0 6.46 0 0 Z M-10 32 C-11.65025343 36.9507603 -11.8413331 41.28075409 -9.5625 45.9375 C-8.16261274 47.88293306 -8.16261274 47.88293306 -7 49 C-4.30446191 49.28374085 -2.64284488 49.43621617 -0.359375 47.88671875 C1.62954572 45.12623396 1.39791342 42.92695324 1.375 39.5625 C1.38273437 38.42941406 1.39046875 37.29632813 1.3984375 36.12890625 C0.97045185 32.76796011 0.38625259 31.36341763 -2 29 C-5.83500306 28.32887446 -7.67882966 28.86642004 -10 32 Z " fill="#414142" transform="translate(1570,107)"/>
<path d="M0 0 C4.95 0 9.9 0 15 0 C15.33 6.27 15.66 12.54 16 19 C18.64 17.68 21.28 16.36 24 15 C28.36739464 14.46981552 31.95917227 15.44489188 35.8125 17.5 C41.48800396 23.98629024 42.38562625 30.14507836 42.5 38.5625 C42.51844971 39.3656665 42.53689941 40.16883301 42.5559082 40.99633789 C42.48009479 48.32171512 40.15917342 53.40899189 35.5 59 C31.68608581 61.87750559 27.39682481 61.6186976 22.79296875 61.44140625 C19.26731012 60.88420426 17.34404157 59.67890465 15 57 C14.01 58.32 13.02 59.64 12 61 C8.04 61 4.08 61 0 61 C0 40.87 0 20.74 0 0 Z M17.3046875 29.203125 C14.7914156 32.66451743 14.86795569 36.83746045 15 41 C15.7276188 43.62313529 16.68890841 45.58759147 18 48 C20.37374861 48.33425735 20.37374861 48.33425735 23 48 C25.27483055 45.73057285 25.9546051 44.32755536 26.3984375 41.125 C26.39070313 40.09375 26.38296875 39.0625 26.375 38 C26.38273437 36.96875 26.39046875 35.9375 26.3984375 34.875 C25.95139941 31.64931342 25.36565375 30.22649765 23 28 C19.19719736 27.61416866 19.19719736 27.61416866 17.3046875 29.203125 Z " fill="#414142" transform="translate(1298,187)"/>
<path d="M0 0 C1.37095624 3.69037278 0.60010967 5.70883835 -0.9375 9.25 C-1.50791016 10.58804687 -1.50791016 10.58804687 -2.08984375 11.953125 C-2.39019531 12.62859375 -2.69054688 13.3040625 -3 14 C-3.70125 13.7834375 -4.4025 13.566875 -5.125 13.34375 C-10.96771693 11.6290396 -15.91604388 10.65562513 -22 11 C-21.63074213 13.40490216 -21.43661673 14.65111798 -19.49707031 16.20092773 C-18.86381836 16.52520752 -18.23056641 16.8494873 -17.578125 17.18359375 C-16.53398438 17.73950195 -16.53398438 17.73950195 -15.46875 18.30664062 C-14.7365625 18.67982422 -14.004375 19.05300781 -13.25 19.4375 C-1.10070575 25.69788274 -1.10070575 25.69788274 1 32 C1.5723292 37.89217606 1.81293944 43.45086189 -1.59765625 48.5 C-6.38863209 53.62460925 -11.88434307 55.69729256 -18.76171875 56.203125 C-25.64471325 56.31339995 -31.58546824 55.59539755 -38 53 C-39 52 -39 52 -39.09765625 48.83984375 C-39.08025391 46.90818359 -39.08025391 46.90818359 -39.0625 44.9375 C-39.05347656 43.64714844 -39.04445313 42.35679687 -39.03515625 41.02734375 C-39.02355469 40.02832031 -39.01195312 39.02929688 -39 38 C-37.92621094 38.30035156 -36.85242187 38.60070312 -35.74609375 38.91015625 C-34.31008291 39.29496961 -32.87387417 39.67904504 -31.4375 40.0625 C-30.73302734 40.26166016 -30.02855469 40.46082031 -29.30273438 40.66601562 C-24.45951166 41.93819855 -20.90847177 42.02555455 -16 41 C-15.8874291 38.61588259 -15.8874291 38.61588259 -17 36 C-19.41824657 34.27634789 -22.09254025 33.17079632 -24.8125 32 C-30.90246368 29.33665588 -35.34127812 27.19191639 -37.93359375 20.640625 C-39.24289755 14.4290442 -39.16053373 9.63109179 -36 4 C-27.32038008 -6.71880773 -11.42595392 -3.77866193 0 0 Z " fill="#414142" transform="translate(1197,352)"/>
<path d="M0 0 C5.61 0 11.22 0 17 0 C17.98678898 2.85172962 18.96456818 5.70604342 19.9375 8.5625 C20.35418945 9.76229492 20.35418945 9.76229492 20.77929688 10.98632812 C22.3684451 15.67718736 23.47747981 20.07243618 24 25 C24.66 25 25.32 25 26 25 C26.08636719 24.45214844 26.17273437 23.90429688 26.26171875 23.33984375 C27.6969305 15.24208937 30.31886031 7.76119383 33 0 C38.28 0 43.56 0 49 0 C48.33342903 3.33285484 47.72040631 6.05236839 46.58886719 9.17260742 C46.16272125 10.35490181 46.16272125 10.35490181 45.72796631 11.56108093 C45.26707611 12.8205529 45.26707611 12.8205529 44.796875 14.10546875 C44.47720764 14.98471512 44.15754028 15.86396149 43.82818604 16.76985168 C43.15084682 18.62891086 42.47158253 20.48726963 41.79052734 22.3449707 C40.76086716 25.15781291 39.74143062 27.9742155 38.72265625 30.79101562 C28.98113909 57.55163078 28.98113909 57.55163078 19.73828125 62.1171875 C14.62480795 63.76575379 9.32420793 63.10755976 4 63 C4 58.71 4 54.42 4 50 C6.1346875 49.87625 6.1346875 49.87625 8.3125 49.75 C12.00508455 49.32177371 12.00508455 49.32177371 15.125 47.375 C17.3497634 41.33635648 13.96675203 34.85103804 11.62109375 29.2578125 C11.28956802 28.44883514 10.9580423 27.63985779 10.61647034 26.80636597 C9.56428065 24.24276026 8.50133519 21.68379218 7.4375 19.125 C6.37229301 16.54393076 5.30931285 13.96196199 4.24781799 11.37936401 C3.58829538 9.77681519 2.92620046 8.1753222 2.26133728 6.57498169 C0 1.10896854 0 1.10896854 0 0 Z " fill="#414142" transform="translate(1200,363)"/>
<path d="M0 0 C4.49941047 4.83686626 4.78259421 8.46941383 4.6953125 14.953125 C4.6924826 15.74652283 4.68965271 16.53992065 4.68673706 17.35736084 C4.67556779 19.88422917 4.65046944 22.41073932 4.625 24.9375 C4.61496598 26.6536407 4.60584087 28.36978698 4.59765625 30.0859375 C4.57734305 34.28670639 4.53818906 38.48670361 4.5 42.6875 C-0.78 42.6875 -6.06 42.6875 -11.5 42.6875 C-11.56058594 40.54507813 -11.62117188 38.40265625 -11.68359375 36.1953125 C-11.74537815 34.12349905 -11.80876788 32.05174053 -11.87231445 29.97998047 C-11.91566231 28.5386238 -11.95733752 27.09721582 -11.99731445 25.65576172 C-12.05502088 23.58545459 -12.11871371 21.51540568 -12.18359375 19.4453125 C-12.22025146 18.1989502 -12.25690918 16.95258789 -12.29467773 15.66845703 C-12.30289479 12.76113058 -12.30289479 12.76113058 -13.5 10.6875 C-15.81 10.6875 -18.12 10.6875 -20.5 10.6875 C-21.55955248 14.20174524 -21.69998141 17.54405874 -21.81640625 21.203125 C-21.85830078 22.45351562 -21.90019531 23.70390625 -21.94335938 24.9921875 C-21.98267578 26.29414063 -22.02199219 27.59609375 -22.0625 28.9375 C-22.10568359 30.25492188 -22.14886719 31.57234375 -22.19335938 32.9296875 C-22.29941854 36.18216854 -22.40021153 39.43482053 -22.5 42.6875 C-27.78 42.6875 -33.06 42.6875 -38.5 42.6875 C-38.5 27.8375 -38.5 12.9875 -38.5 -2.3125 C-34.54 -2.3125 -30.58 -2.3125 -26.5 -2.3125 C-26.17 -0.6625 -25.84 0.9875 -25.5 2.6875 C-25.05269531 2.33816406 -24.60539062 1.98882812 -24.14453125 1.62890625 C-17.17240039 -3.61877433 -7.51874912 -6.00391514 0 0 Z " fill="#414142" transform="translate(1437.5,205.3125)"/>
<path d="M0 0 C4.40562036 2.16416439 7.92551903 4.88044975 9.56811523 9.64941406 C10.17762993 12.96677273 10.12238569 16.24974178 10.09765625 19.609375 C10.0962413 20.33618469 10.09482635 21.06299438 10.09336853 21.81182861 C10.08778792 24.12459494 10.07523904 26.43726312 10.0625 28.75 C10.05748249 30.32161318 10.05292002 31.89322789 10.04882812 33.46484375 C10.03867733 37.30996372 10.01909832 41.15487248 10 45 C4.72 45 -0.56 45 -6 45 C-6.06058594 43.01355469 -6.12117188 41.02710938 -6.18359375 38.98046875 C-6.24617782 37.05427008 -6.30879365 35.1280723 -6.37231445 33.2019043 C-6.43687006 31.20696681 -6.4967783 29.21188071 -6.55664062 27.21679688 C-6.59853516 25.96318359 -6.64042969 24.70957031 -6.68359375 23.41796875 C-6.72025146 22.26063232 -6.75690918 21.1032959 -6.79467773 19.91088867 C-6.88328509 16.9356554 -6.88328509 16.9356554 -8 14 C-9.8064655 12.9853761 -9.8064655 12.9853761 -12 13 C-14.37254139 14.28795104 -15.71061825 15.14816299 -16.59350586 17.74707031 C-17.0840654 20.46591921 -17.21778048 23.09785349 -17.31640625 25.859375 C-17.35830078 26.97441406 -17.40019531 28.08945313 -17.44335938 29.23828125 C-17.48267578 30.39714844 -17.52199219 31.55601562 -17.5625 32.75 C-17.60568359 33.92433594 -17.64886719 35.09867188 -17.69335938 36.30859375 C-17.79934717 39.20559355 -17.90016916 42.1027815 -18 45 C-23.28 45 -28.56 45 -34 45 C-34 30.48 -34 15.96 -34 1 C-29.71 1 -25.42 1 -21 1 C-20.34 2.32 -19.68 3.64 -19 5 C-18.21625 4.360625 -17.4325 3.72125 -16.625 3.0625 C-11.47087261 -0.98717152 -6.38258629 -0.60905725 0 0 Z " fill="#414142" transform="translate(1221,123)"/>
<path d="M0 0 C3.81638112 2.48508538 6.2299304 4.3772912 7.6875 8.75 C7.77244728 11.40894107 7.80344796 14.04085377 7.78515625 16.69921875 C7.7837413 17.47183548 7.78232635 18.24445221 7.78086853 19.04048157 C7.77527466 21.50619389 7.76272333 23.97181515 7.75 26.4375 C7.74498421 28.11002473 7.74042144 29.78255088 7.73632812 31.45507812 C7.72615847 35.55344866 7.70658194 39.65162248 7.6875 43.75 C2.4075 43.75 -2.8725 43.75 -8.3125 43.75 C-8.37308594 41.59597656 -8.43367188 39.44195312 -8.49609375 37.22265625 C-8.55784241 35.1442499 -8.62124691 33.06590025 -8.68481445 30.98754883 C-8.7282163 29.5393576 -8.76988744 28.09111346 -8.80981445 26.64282227 C-8.86739062 24.56510441 -8.93112028 22.48765427 -8.99609375 20.41015625 C-9.03275146 19.15855713 -9.06940918 17.90695801 -9.10717773 16.61743164 C-8.99053906 13.85369496 -8.99053906 13.85369496 -10.3125 12.75 C-12.31208364 12.70919217 -14.31295254 12.70745644 -16.3125 12.75 C-18.40784185 16.20547603 -18.61321628 19.04197531 -18.7265625 23.046875 C-18.76523438 24.25214844 -18.80390625 25.45742188 -18.84375 26.69921875 C-18.8746875 27.95347656 -18.905625 29.20773437 -18.9375 30.5 C-18.97617188 31.76972656 -19.01484375 33.03945313 -19.0546875 34.34765625 C-19.1489394 37.48153181 -19.23180782 40.61574598 -19.3125 43.75 C-24.5925 43.75 -29.8725 43.75 -35.3125 43.75 C-35.3125 29.23 -35.3125 14.71 -35.3125 -0.25 C-31.3525 -0.25 -27.3925 -0.25 -23.3125 -0.25 C-22.6525 1.07 -21.9925 2.39 -21.3125 3.75 C-20.384375 3.110625 -19.45625 2.47125 -18.5 1.8125 C-12.6049731 -2.00192917 -6.55310954 -2.47287152 0 0 Z " fill="#414142" transform="translate(1647.3125,283.25)"/>
<path d="M0 0 C3.26409899 2.76789392 5.29220731 5.75777808 6 10 C6.08298675 12.54635479 6.11639258 15.06393883 6.09765625 17.609375 C6.0962413 18.33618469 6.09482635 19.06299438 6.09336853 19.81182861 C6.08778792 22.12459494 6.07523904 24.43726312 6.0625 26.75 C6.05748249 28.32161318 6.05292002 29.89322789 6.04882812 31.46484375 C6.03782485 35.30993343 6.02057361 39.1549501 6 43 C2.37 43 -1.26 43 -5 43 C-5.66 41.35 -6.32 39.7 -7 38 C-7.42667969 38.3609375 -7.85335938 38.721875 -8.29296875 39.09375 C-14.50541278 43.70504866 -20.44287095 44.07116654 -28 43 C-31.24573637 41.80929225 -33.26327558 40.17927069 -35.125 37.19921875 C-37.12383862 32.17535204 -36.71825165 26.10986422 -35 21.0625 C-30.33474492 16.2514557 -24.08081445 14.08199473 -17.47265625 13.94921875 C-14.98055694 13.93873306 -12.49167665 13.95645614 -10 14 C-10.66 12.68 -11.32 11.36 -12 10 C-17.63281599 9.7603057 -22.54538831 10.61470179 -28 12 C-28.67119549 10.5437455 -29.33681807 9.08492133 -30 7.625 C-30.37125 6.81289062 -30.7425 6.00078125 -31.125 5.1640625 C-32 3 -32 3 -32 1 C-21.59656775 -3.19787617 -10.40949648 -5.33362772 0 0 Z M-20 26 C-19.67 27.65 -19.34 29.3 -19 31 C-16.70705512 31.85974801 -16.70705512 31.85974801 -14 32 C-11.56304526 30.47981752 -11.56304526 30.47981752 -10 28 C-9.66501699 25.33165034 -9.66501699 25.33165034 -10 23 C-14.27343092 22.63370592 -16.48812804 23.59185923 -20 26 Z " fill="#414142" transform="translate(1245,205)"/>
<path d="M0 0 C3.85700599 3.68580729 5.93042083 6.93462078 6.11352539 12.36987305 C6.1133675 13.75049841 6.10774417 15.13113024 6.09765625 16.51171875 C6.0962413 17.23994339 6.09482635 17.96816803 6.09336853 18.71846008 C6.08777659 21.04151539 6.07522562 23.36447388 6.0625 25.6875 C6.05748396 27.26367048 6.05292123 28.83984248 6.04882812 30.41601562 C6.0378098 34.27738098 6.02055074 38.13867408 6 42 C4.06372231 42.10807131 2.12572244 42.1856225 0.1875 42.25 C-0.89144531 42.29640625 -1.97039062 42.3428125 -3.08203125 42.390625 C-6 42 -6 42 -7.88671875 39.984375 C-8.25410156 39.32953125 -8.62148437 38.6746875 -9 38 C-10.175625 38.9590625 -10.175625 38.9590625 -11.375 39.9375 C-16.52948007 43.98744863 -21.61724275 43.60827843 -28 43 C-31.19611014 41.82728278 -33.27428034 40.14800254 -35.12109375 37.2265625 C-37.05796767 32.31981523 -37.16158558 25.90396395 -35.1953125 20.98828125 C-31.94440883 16.53790623 -27.21043409 14.90717379 -22 14 C-17.98445643 13.78281315 -14.0160618 13.8165251 -10 14 C-10.66 12.68 -11.32 11.36 -12 10 C-17.78898419 9.79325056 -22.42932723 10.40837921 -28 12 C-28.69937202 10.5682384 -29.38412718 9.12932968 -30.0625 7.6875 C-30.44535156 6.88699219 -30.82820313 6.08648437 -31.22265625 5.26171875 C-32 3 -32 3 -31 0 C-21.57017423 -3.8904035 -8.99182526 -5.50519914 0 0 Z M-20 26 C-19.67 27.65 -19.34 29.3 -19 31 C-16.65004146 31.83927091 -15.26649114 32.06091226 -12.8125 31.5 C-10.60414056 29.99062773 -10.60414056 29.99062773 -10.25 26.375 C-10.1675 25.26125 -10.085 24.1475 -10 23 C-14.44849969 22.6966932 -16.68152292 22.93679039 -20 26 Z " fill="#414142" transform="translate(1484,285)"/>
<path d="M0 0 C0.67289063 -0.01353516 1.34578125 -0.02707031 2.0390625 -0.04101562 C6.66433073 0.00011818 9.82403749 0.95946653 13.75 3.375 C18.32225359 8.44155127 18.89310041 11.57664132 18.84765625 18.2265625 C18.8462413 19.00059418 18.84482635 19.77462585 18.84336853 20.57211304 C18.83776403 23.04811442 18.82521083 25.52402588 18.8125 28 C18.80748558 29.67708203 18.80292257 31.35416547 18.79882812 33.03125 C18.78779315 37.14586806 18.77052554 41.26041878 18.75 45.375 C16.98050905 45.48315225 15.20912513 45.56066083 13.4375 45.625 C12.45136719 45.67140625 11.46523437 45.7178125 10.44921875 45.765625 C7.75 45.375 7.75 45.375 5.89453125 43.359375 C5.32798828 42.37710938 5.32798828 42.37710938 4.75 41.375 C3.3578125 42.3340625 3.3578125 42.3340625 1.9375 43.3125 C-3.13459266 46.59444231 -7.36102265 46.93873117 -13.25 46.375 C-17.43134123 44.8263551 -20.00972236 43.26600853 -22.25 39.375 C-24.02597344 34.69288821 -23.77100916 29.85119261 -22.125 25.1875 C-19.64374892 21.46562338 -16.74609715 19.22356283 -12.48046875 17.7734375 C-9.46446281 17.23467637 -6.56129424 17.28188706 -3.5 17.3125 C-1.74429687 17.32603516 -1.74429687 17.32603516 0.046875 17.33984375 C0.93890625 17.35144531 1.8309375 17.36304688 2.75 17.375 C2.42 16.055 2.09 14.735 1.75 13.375 C-2.35482793 12.24185737 -5.00950737 12.59171909 -9.0625 13.8125 C-10.03832031 14.09996094 -11.01414062 14.38742188 -12.01953125 14.68359375 C-12.75558594 14.91175781 -13.49164062 15.13992187 -14.25 15.375 C-14.92667998 14.13039217 -15.59094719 12.87903104 -16.25 11.625 C-16.62125 10.92890625 -16.9925 10.2328125 -17.375 9.515625 C-18.25 7.375 -18.25 7.375 -18.25 3.375 C-12.19314808 0.92896365 -6.4778512 0.0537829 0 0 Z M-5.6875 28.375 C-6.203125 29.035 -6.71875 29.695 -7.25 30.375 C-6.59 31.695 -5.93 33.015 -5.25 34.375 C-1.81206661 34.19370185 -1.81206661 34.19370185 1.75 33.375 C3.69241961 30.8414092 3.75 29.59312786 3.75 26.375 C-1.38725982 25.89010163 -1.38725982 25.89010163 -5.6875 28.375 Z " fill="#414142" transform="translate(1431.25,122.625)"/>
<path d="M0 0 C4.68907402 3.64705757 6.47277236 7.29299145 8 13 C8 16.96 8 20.92 8 25 C-0.91 25 -9.82 25 -19 25 C-15.63287325 30.24423226 -15.63287325 30.24423226 -11.25 30.9375 C-6.84083461 31.24186403 -3.21345529 30.26403659 1 29 C2.32 28.67 3.64 28.34 5 28 C5 31.96 5 35.92 5 40 C-3.1656423 44.08282115 -13.01956407 44.44608902 -21.859375 42.30859375 C-26.9636745 40.2617354 -29.98507774 37.56806403 -33 33 C-35.919547 25.63945193 -36.37727164 17.05161137 -33.75 9.5 C-30.78184027 3.56368053 -28.1827997 0.57616654 -22 -2 C-14.62341182 -4.19468739 -6.7654116 -3.74513856 0 0 Z M-15 8 C-17.75758428 10.609263 -17.75758428 10.609263 -19 14 C-15.04 14 -11.08 14 -7 14 C-7.5739739 9.79819816 -7.5739739 9.79819816 -11 8 C-12.32 8 -13.64 8 -15 8 Z " fill="#414142" transform="translate(1349,285)"/>
<path d="M0 0 C-0.59104765 4.84659077 -1.97944157 8.60748167 -4 13 C-4.556875 12.855625 -5.11375 12.71125 -5.6875 12.5625 C-14.95943484 10.18229343 -14.95943484 10.18229343 -23.875 12.625 C-28.0932746 17.3395422 -28.39201033 22.36594417 -28.25390625 28.4609375 C-27.85221449 32.47785506 -26.81153775 35.37692451 -25 39 C-19.40650398 42.63459235 -12.64496571 41.23268823 -6.4375 40 C-4.973125 39.67 -3.50875 39.34 -2 39 C-2 43.29 -2 47.58 -2 52 C-7.46210232 54.73105116 -11.79537547 55.5189121 -17.875 55.4375 C-19.06754395 55.42505249 -19.06754395 55.42505249 -20.28417969 55.41235352 C-28.19557157 55.18429636 -33.8261651 53.6071035 -39.375 47.75 C-44.59209725 41.58711319 -45.53543861 34.31364149 -45.4375 26.5625 C-45.42992676 25.72428711 -45.42235352 24.88607422 -45.41455078 24.02246094 C-45.25232133 17.95247435 -44.55981202 13.06801898 -41 8 C-40.57589844 7.35933594 -40.15179687 6.71867188 -39.71484375 6.05859375 C-30.6388422 -6.05116877 -12.80414839 -5.58726475 0 0 Z " fill="#414142" transform="translate(1204,193)"/>
<path d="M0 0 C4.13822438 2.52007254 6.50636719 5.53180275 8.625 9.875 C9.375 13.3125 9.375 13.3125 9.375 25.3125 C0.465 25.3125 -8.445 25.3125 -17.625 25.3125 C-15.30248574 30.19745525 -15.30248574 30.19745525 -12.625 31.3125 C-5.97143 31.74664797 0.08930378 31.59820772 6.375 29.3125 C6.375 33.2725 6.375 37.2325 6.375 41.3125 C-3.05251798 45.14742257 -13.11444608 46.09077632 -22.76171875 42.28125 C-27.57055857 39.78105655 -30.65267594 35.64392695 -32.89453125 30.8125 C-35.15951225 23.06069337 -34.66506682 14.31645212 -30.89453125 7.1484375 C-24.1916168 -2.54500801 -10.48890877 -4.8790216 0 0 Z M-15.375 10.625 C-16.82803079 12.40396679 -16.82803079 12.40396679 -17.625 15.3125 C-13.665 15.3125 -9.705 15.3125 -5.625 15.3125 C-6.25341973 11.3410831 -6.25341973 11.3410831 -8.625 9.3125 C-11.52119822 8.94119254 -13.00388771 8.84666579 -15.375 10.625 Z " fill="#414142" transform="translate(1308.625,124.6875)"/>
<path d="M0 0 C4.30485145 3.31142419 6.3636848 7.08800514 7.88671875 12.2109375 C8.89702646 20.89958378 8.36661378 29.03236493 2.94921875 36.2734375 C-3.56684976 42.49332108 -9.45210633 42.24327675 -18.1796875 42.296875 C-25.0591327 41.53991339 -29.05459293 38.30531225 -33.31640625 33.12890625 C-37.3020392 27.13996832 -37.17642549 20.492449 -36.33984375 13.546875 C-35.27678809 8.32403631 -33.26516192 4.44649706 -29.61328125 0.5859375 C-20.07127165 -5.13926826 -9.6933041 -5.92952658 0 0 Z M-18.80078125 9.8984375 C-20.27039591 12.83766683 -20.00997987 15.50252722 -20.05078125 18.7734375 C-20.0765625 20.00835937 -20.10234375 21.24328125 -20.12890625 22.515625 C-19.78628198 26.04791804 -19.21008484 27.375009 -16.80078125 29.8984375 C-13.33578125 29.4034375 -13.33578125 29.4034375 -9.80078125 28.8984375 C-7.65131667 23.08223921 -7.311581 17.97141724 -8.80078125 11.8984375 C-10.53118243 9.242666 -10.53118243 9.242666 -12.80078125 7.8984375 C-15.30398528 7.8984375 -16.65196737 8.65073912 -18.80078125 9.8984375 Z " fill="#414142" transform="translate(1382.80078125,206.1015625)"/>
<path d="M0 0 C5.37998084 4.80696513 8.57968163 9.40985651 9.24609375 16.6875 C9.5432752 23.74781078 8.8679575 29.95094425 5 36 C-0.58635851 41.62070088 -5.45152423 43.1369419 -13.25 43.3125 C-19.05105584 43.24104243 -23.43881513 42.74224486 -28 39 C-34.62672154 31.77745481 -35.45143936 25.47200609 -35.27734375 15.96875 C-34.82537793 9.50118275 -32.87879099 5.51443848 -28.1875 1.125 C-20.14806276 -4.23462482 -8.44054582 -5.26005029 0 0 Z M-16.75 10.3125 C-19.13909303 13.5377756 -19.19112958 15.83384058 -19.25 19.8125 C-19.27578125 20.85019531 -19.3015625 21.88789063 -19.328125 22.95703125 C-18.96101749 26.36151636 -17.9499248 28.22392285 -16 31 C-12.535 30.505 -12.535 30.505 -9 30 C-6.4380057 25.19626068 -6.44267653 20.30328111 -7 15 C-7.97337194 11.92500531 -7.97337194 11.92500531 -10 10 C-12.92904892 8.82838043 -14.16642849 8.37482137 -16.75 10.3125 Z " fill="#414142" transform="translate(1595,285)"/>
<path d="M0 0 C3.64259459 2.81590645 6.17793034 5.85410351 7.65234375 10.27734375 C7.78824822 14.94702129 7.69521182 19.6047236 7.65234375 24.27734375 C-0.92765625 24.60734375 -9.50765625 24.93734375 -18.34765625 25.27734375 C-16.84765625 29.27734375 -16.84765625 29.27734375 -14.34765625 30.27734375 C-7.69408625 30.71149172 -1.63335247 30.56305147 4.65234375 28.27734375 C4.65234375 32.23734375 4.65234375 36.19734375 4.65234375 40.27734375 C-3.81163898 43.72031978 -12.91848432 45.06238702 -21.78515625 42.08984375 C-27.77812864 39.04078762 -32.03426764 35.85223769 -34.34765625 29.27734375 C-35.97116351 20.69981371 -36.00938712 11.82472742 -31.03515625 4.33984375 C-23.97090437 -4.49047111 -9.4804792 -5.63216629 0 0 Z M-15.34765625 8.27734375 C-17.69053043 10.94982009 -17.69053043 10.94982009 -18.34765625 14.27734375 C-14.38765625 14.27734375 -10.42765625 14.27734375 -6.34765625 14.27734375 C-7.00765625 12.62734375 -7.66765625 10.97734375 -8.34765625 9.27734375 C-10.65765625 8.94734375 -12.96765625 8.61734375 -15.34765625 8.27734375 Z " fill="#414142" transform="translate(1365.34765625,364.72265625)"/>
<path d="M0 0 C3.64259459 2.81590645 6.17793034 5.85410351 7.65234375 10.27734375 C7.78824822 14.94702129 7.69521182 19.6047236 7.65234375 24.27734375 C-0.92765625 24.60734375 -9.50765625 24.93734375 -18.34765625 25.27734375 C-16.84765625 29.27734375 -16.84765625 29.27734375 -14.34765625 30.27734375 C-7.69408625 30.71149172 -1.63335247 30.56305147 4.65234375 28.27734375 C4.65234375 32.23734375 4.65234375 36.19734375 4.65234375 40.27734375 C-3.81163898 43.72031978 -12.91848432 45.06238702 -21.78515625 42.08984375 C-27.77812864 39.04078762 -32.03426764 35.85223769 -34.34765625 29.27734375 C-35.97116351 20.69981371 -36.00938712 11.82472742 -31.03515625 4.33984375 C-23.97090437 -4.49047111 -9.4804792 -5.63216629 0 0 Z M-15.34765625 8.27734375 C-17.69053043 10.94982009 -17.69053043 10.94982009 -18.34765625 14.27734375 C-14.38765625 14.27734375 -10.42765625 14.27734375 -6.34765625 14.27734375 C-7.00765625 12.62734375 -7.66765625 10.97734375 -8.34765625 9.27734375 C-10.65765625 8.94734375 -12.96765625 8.61734375 -15.34765625 8.27734375 Z " fill="#414142" transform="translate(1529.34765625,125.72265625)"/>
<path d="M0 0 C-0.47730838 1.4589426 -0.95691042 2.91713496 -1.4375 4.375 C-1.70433594 5.18710937 -1.97117187 5.99921875 -2.24609375 6.8359375 C-3 9 -3 9 -4 11 C-4.87011719 10.7834375 -4.87011719 10.7834375 -5.7578125 10.5625 C-10.26659675 9.49110572 -14.33054247 8.76054064 -19 9 C-14.97231671 12.2803782 -10.48318336 14.1757168 -5.77734375 16.3046875 C-2.60175945 18.24308917 -1.48545921 19.61395326 0 23 C0.75658965 27.33147574 0.93534383 31.84784314 -0.84375 35.94140625 C-3.90395269 40.06647676 -8.08592418 42.0613563 -13 43 C-20.64516361 43.60890684 -27.61481741 43.00276138 -35 41 C-35 36.71 -35 32.42 -35 28 C-33.535625 28.33 -32.07125 28.66 -30.5625 29 C-25.60116596 30.00500632 -21.05091816 30.16293284 -16 30 C-16 29.34 -16 28.68 -16 28 C-16.80824219 27.68546875 -17.61648438 27.3709375 -18.44921875 27.046875 C-19.51785156 26.61890625 -20.58648438 26.1909375 -21.6875 25.75 C-22.74324219 25.33234375 -23.79898437 24.9146875 -24.88671875 24.484375 C-28.78921358 22.62371247 -31.89870561 20.68865139 -34.2890625 17.0234375 C-36.04830015 12.0163765 -35.64107061 7.38471252 -33.4375 2.625 C-24.94473073 -6.52105922 -10.63180624 -4.1155379 0 0 Z " fill="#414142" transform="translate(1288,365)"/>
<path d="M0 0 C0.495 0.99 0.495 0.99 1 2 C0.22265625 4.1640625 0.22265625 4.1640625 -0.9375 6.625 C-1.31777344 7.44226563 -1.69804688 8.25953125 -2.08984375 9.1015625 C-2.39019531 9.72804688 -2.69054688 10.35453125 -3 11 C-3.66386719 10.855625 -4.32773438 10.71125 -5.01171875 10.5625 C-5.89472656 10.376875 -6.77773437 10.19125 -7.6875 10 C-8.55761719 9.814375 -9.42773438 9.62875 -10.32421875 9.4375 C-12.93712964 9.01027953 -15.35813038 8.92383799 -18 9 C-15.6465932 11.72903199 -13.58424888 12.64383907 -10.1875 13.75 C-5.08512182 15.74463393 -1.38233636 17.90833994 1 23 C1.84811603 27.96753675 1.67080222 32.30534177 -0.1875 37 C-3.26129091 40.39176928 -6.53859907 42.1691015 -11 43 C-13.61709103 43.1206162 -16.19587219 43.18508391 -18.8125 43.1875 C-19.84213867 43.20586914 -19.84213867 43.20586914 -20.89257812 43.22460938 C-25.62572725 43.2380431 -29.50470432 42.48667949 -34 41 C-34 36.71 -34 32.42 -34 28 C-32.741875 28.309375 -31.48375 28.61875 -30.1875 28.9375 C-24.82934823 30.14052452 -19.4695168 30.61151096 -14 31 C-14 30.01 -14 29.02 -14 28 C-14.8353125 27.76216797 -14.8353125 27.76216797 -15.6875 27.51953125 C-22.31529738 25.49312698 -28.31764614 23.01764809 -33 17.75 C-34.4674301 13.71456724 -34.88177649 10.22819054 -34 6 C-31.76945103 1.81574325 -29.1125883 -0.49824449 -24.8125 -2.4375 C-16.22092798 -3.70510899 -8.05855767 -3.61474398 0 0 Z " fill="#414142" transform="translate(1307,285)"/>
<path d="M0 0 C5.28 0 10.56 0 16 0 C23 17.5 23 17.5 23 26 C23.66 26 24.32 26 25 26 C25.10183594 25.04996094 25.20367188 24.09992188 25.30859375 23.12109375 C26.00228535 18.26525253 27.53877967 13.7114379 29.0625 9.0625 C29.34416016 8.18787109 29.62582031 7.31324219 29.91601562 6.41210938 C30.6056388 4.27310866 31.30212081 2.13632132 32 0 C37.61 0 43.22 0 49 0 C45.40542978 10.40533485 41.6289086 20.7207047 37.6875 31 C37.02065186 32.74579346 37.02065186 32.74579346 36.34033203 34.52685547 C35.92251465 35.61111816 35.50469727 36.69538086 35.07421875 37.8125 C34.69869873 38.78832031 34.32317871 39.76414062 33.9362793 40.76953125 C33 43 33 43 32 44 C29.30345146 44.07319621 26.63308542 44.09242537 23.9375 44.0625 C22.79958008 44.05573242 22.79958008 44.05573242 21.63867188 44.04882812 C19.75908129 44.0370068 17.87953101 44.01907078 16 44 C11.76221989 33.50698596 7.57040159 22.99672009 3.5 12.4375 C2.9750293 11.0913562 2.9750293 11.0913562 2.43945312 9.71801758 C1.95895508 8.46347778 1.95895508 8.46347778 1.46875 7.18359375 C1.18451172 6.44681396 0.90027344 5.71003418 0.60742188 4.95092773 C0 3 0 3 0 0 Z " fill="#414142" transform="translate(1397,283)"/>
<path d="M0 0 C1.37478516 0.01740234 1.37478516 0.01740234 2.77734375 0.03515625 C3.69644531 0.04417969 4.61554688 0.05320312 5.5625 0.0625 C6.27277344 0.07410156 6.98304687 0.08570313 7.71484375 0.09765625 C7.71484375 3.06765625 7.71484375 6.03765625 7.71484375 9.09765625 C11.34484375 9.09765625 14.97484375 9.09765625 18.71484375 9.09765625 C18.71484375 13.05765625 18.71484375 17.01765625 18.71484375 21.09765625 C15.08484375 21.09765625 11.45484375 21.09765625 7.71484375 21.09765625 C7.85534205 23.88968635 8.00199758 26.68115421 8.15234375 29.47265625 C8.19166016 30.26671875 8.23097656 31.06078125 8.27148438 31.87890625 C8.40377779 36.12366846 8.40377779 36.12366846 9.71484375 40.09765625 C13.01484375 40.09765625 16.31484375 40.09765625 19.71484375 40.09765625 C19.71484375 44.05765625 19.71484375 48.01765625 19.71484375 52.09765625 C12.34195218 54.87359434 4.50862273 55.60208584 -2.91015625 52.66015625 C-8.61897765 46.50063842 -8.70171285 38.54039087 -8.47265625 30.53515625 C-8.45912109 29.62185547 -8.44558594 28.70855469 -8.43164062 27.76757812 C-8.3967094 25.54362366 -8.34767211 23.32097673 -8.28515625 21.09765625 C-9.93515625 21.09765625 -11.58515625 21.09765625 -13.28515625 21.09765625 C-13.59765625 17.84765625 -13.59765625 17.84765625 -13.28515625 14.09765625 C-10.91015625 11.66015625 -10.91015625 11.66015625 -8.28515625 10.09765625 C-7.62515625 10.09765625 -6.96515625 10.09765625 -6.28515625 10.09765625 C-6.08019531 9.45957031 -5.87523437 8.82148438 -5.6640625 8.1640625 C-5.39464844 7.33777344 -5.12523437 6.51148438 -4.84765625 5.66015625 C-4.44740234 4.42458984 -4.44740234 4.42458984 -4.0390625 3.1640625 C-2.93037684 0.12522978 -2.93037684 0.12522978 0 0 Z " fill="#414142" transform="translate(1509.28515625,273.90234375)"/>
<path d="M0 0 C3.63 0 7.26 0 11 0 C11 2.97 11 5.94 11 9 C14.63 9 18.26 9 22 9 C22 12.96 22 16.92 22 21 C18.37 21 14.74 21 11 21 C11.1404983 23.7920301 11.28715383 26.58349796 11.4375 29.375 C11.47681641 30.1690625 11.51613281 30.963125 11.55664062 31.78125 C11.68893404 36.02601221 11.68893404 36.02601221 13 40 C16.3 40 19.6 40 23 40 C23 43.96 23 47.92 23 52 C15.9267775 54.51492356 8.69661834 55.25420979 1.5 52.8125 C-2.88967701 49.62998417 -4.14940833 46.19923556 -5 41 C-5.07649781 39.38038502 -5.10811681 37.75810555 -5.09765625 36.13671875 C-5.09443359 35.25048828 -5.09121094 34.36425781 -5.08789062 33.45117188 C-5.07951172 32.53916016 -5.07113281 31.62714844 -5.0625 30.6875 C-5.05798828 29.75615234 -5.05347656 28.82480469 -5.04882812 27.86523438 C-5.03709234 25.57675627 -5.02067363 23.28841192 -5 21 C-6.65 21 -8.3 21 -10 21 C-10.4375 17.875 -10.4375 17.875 -10 14 C-8.38410646 12.31026187 -6.62938699 11.0190917 -4.7578125 9.62109375 C-1.80630224 6.8991454 -1.11234486 3.79505892 0 0 Z " fill="#414142" transform="translate(1247,115)"/>
<path d="M0 0 C3.63 0 7.26 0 11 0 C11 2.97 11 5.94 11 9 C14.63 9 18.26 9 22 9 C22 12.96 22 16.92 22 21 C18.37 21 14.74 21 11 21 C11.33 27.27 11.66 33.54 12 40 C15.3 40 18.6 40 22 40 C22 43.96 22 47.92 22 52 C15.15937302 54.37934851 8.48878253 55.26864819 1.5625 52.75 C-2.08737947 50.25739939 -3.60991427 48.1702572 -5 44 C-5.08209792 42.22686149 -5.10746294 40.45079225 -5.09765625 38.67578125 C-5.09282227 37.13374023 -5.09282227 37.13374023 -5.08789062 35.56054688 C-5.07951172 34.48869141 -5.07113281 33.41683594 -5.0625 32.3125 C-5.05798828 31.22904297 -5.05347656 30.14558594 -5.04882812 29.02929688 C-5.03703743 26.35280915 -5.02058063 23.67643223 -5 21 C-6.65 21 -8.3 21 -10 21 C-10.52441472 15.75585284 -10.52441472 15.75585284 -10 13 C-8.03501678 11.61558 -6.02951535 10.28796166 -4 9 C-2.31522829 6.07462367 -1.21182274 3.16938255 0 0 Z " fill="#414142" transform="translate(1303,354)"/>
<path d="M0 0 C3.63 0 7.26 0 11 0 C11 2.97 11 5.94 11 9 C14.63 9 18.26 9 22 9 C22 12.96 22 16.92 22 21 C18.37 21 14.74 21 11 21 C11.33 27.27 11.66 33.54 12 40 C15.3 40 18.6 40 22 40 C22 43.96 22 47.92 22 52 C15.15937302 54.37934851 8.48878253 55.26864819 1.5625 52.75 C-2.08737947 50.25739939 -3.60991427 48.1702572 -5 44 C-5.08209792 42.22686149 -5.10746294 40.45079225 -5.09765625 38.67578125 C-5.09282227 37.13374023 -5.09282227 37.13374023 -5.08789062 35.56054688 C-5.07951172 34.48869141 -5.07113281 33.41683594 -5.0625 32.3125 C-5.05798828 31.22904297 -5.05347656 30.14558594 -5.04882812 29.02929688 C-5.03703743 26.35280915 -5.02058063 23.67643223 -5 21 C-6.65 21 -8.3 21 -10 21 C-10.52441472 15.75585284 -10.52441472 15.75585284 -10 13 C-8.03501678 11.61558 -6.02951535 10.28796166 -4 9 C-2.31522829 6.07462367 -1.21182274 3.16938255 0 0 Z " fill="#414142" transform="translate(1467,115)"/>
<path d="M0 0 C-0.33 4.95 -0.66 9.9 -1 15 C-2.216875 14.938125 -3.43375 14.87625 -4.6875 14.8125 C-8.58249203 14.80559399 -10.87690125 15.53937675 -14 18 C-15.31361698 20.62723396 -15.21253909 22.72610561 -15.31640625 25.6640625 C-15.35830078 26.78554687 -15.40019531 27.90703125 -15.44335938 29.0625 C-15.48267578 30.238125 -15.52199219 31.41375 -15.5625 32.625 C-15.60568359 33.80835938 -15.64886719 34.99171875 -15.69335938 36.2109375 C-15.79967338 39.14047907 -15.90036217 42.07022377 -16 45 C-21.28 45 -26.56 45 -32 45 C-32 30.15 -32 15.3 -32 0 C-28.04 0 -24.08 0 -20 0 C-19.01 1.98 -18.02 3.96 -17 6 C-16.278125 5.21625 -15.55625 4.4325 -14.8125 3.625 C-9.44376942 -1.38581521 -7.58081252 -1.08297322 0 0 Z " fill="#414142" transform="translate(1292,203)"/>
<path d="M0 0 C5.28 0 10.56 0 16 0 C16 18.81 16 37.62 16 57 C10.72 57 5.44 57 0 57 C0 38.19 0 19.38 0 0 Z " fill="#414142" transform="translate(1161,111)"/>
<path d="M0 0 C0.05423638 1.91635217 0.09289963 3.83314925 0.125 5.75 C0.14820313 6.81734375 0.17140625 7.8846875 0.1953125 8.984375 C0.00487687 11.92470106 -0.47329896 13.52361878 -2 16 C-3.2375 15.938125 -4.475 15.87625 -5.75 15.8125 C-8.40637747 15.67968113 -9.74106249 15.85858585 -12.09570312 17.14453125 C-14.72904766 19.71035413 -14.5385239 21.34934974 -14.609375 24.98046875 C-14.64160156 26.14384766 -14.67382812 27.30722656 -14.70703125 28.50585938 C-14.72830078 30.32827148 -14.72830078 30.32827148 -14.75 32.1875 C-14.79447266 34.02731445 -14.79447266 34.02731445 -14.83984375 35.90429688 C-14.91061912 38.93584182 -14.95756369 41.96792594 -15 45 C-20.28 45 -25.56 45 -31 45 C-31 30.48 -31 15.96 -31 1 C-27.04 1 -23.08 1 -19 1 C-18.34 2.65 -17.68 4.3 -17 6 C-16.443125 5.566875 -15.88625 5.13375 -15.3125 4.6875 C-9.89628625 0.73512781 -6.70190868 -0.73111731 0 0 Z " fill="#414142" transform="translate(1396,282)"/>
<path d="M0 0 C1.22589844 0.01353516 1.22589844 0.01353516 2.4765625 0.02734375 C3.41628906 0.04474609 3.41628906 0.04474609 4.375 0.0625 C4.47751672 5.18833611 4.41090199 10.01247778 3.375 15.0625 C2.34439453 15.11857422 2.34439453 15.11857422 1.29296875 15.17578125 C0.39191406 15.24152344 -0.50914063 15.30726563 -1.4375 15.375 C-2.33082031 15.43300781 -3.22414063 15.49101562 -4.14453125 15.55078125 C-6.98475538 16.13671725 -7.90012941 16.77174126 -9.625 19.0625 C-10.61955909 22.04617726 -10.82059632 24.2629192 -10.94140625 27.38671875 C-10.98330078 28.41474609 -11.02519531 29.44277344 -11.06835938 30.50195312 C-11.10767578 31.57380859 -11.14699219 32.64566406 -11.1875 33.75 C-11.23068359 34.83345703 -11.27386719 35.91691406 -11.31835938 37.03320312 C-11.42446742 39.70948385 -11.52524055 42.38597511 -11.625 45.0625 C-16.575 45.0625 -21.525 45.0625 -26.625 45.0625 C-26.625 30.5425 -26.625 16.0225 -26.625 1.0625 C-22.665 1.0625 -18.705 1.0625 -14.625 1.0625 C-13.965 2.7125 -13.305 4.3625 -12.625 6.0625 C-11.67625 5.258125 -10.7275 4.45375 -9.75 3.625 C-6.37166843 0.76076236 -4.46823381 -0.06383191 0 0 Z " fill="#414142" transform="translate(1400.625,122.9375)"/>
<path d="M0 0 C5.28 0 10.56 0 16 0 C16 14.52 16 29.04 16 44 C10.72 44 5.44 44 0 44 C0 29.48 0 14.96 0 0 Z " fill="#414142" transform="translate(1536,283)"/>
<path d="M0 0 C2.59335905 2.59335905 2.27726563 4.48747032 2.36328125 8.02734375 C1.88312566 10.63464023 1.15870899 11.47620542 -1 13 C-3.375 13.36328125 -3.375 13.36328125 -6 13.3125 C-6.86625 13.30863281 -7.7325 13.30476563 -8.625 13.30078125 C-11 13 -11 13 -14 11 C-14.69609258 7.94299341 -14.5786973 5.07327596 -14 2 C-10.24827255 -2.11479785 -5.02739341 -1.31364111 0 0 Z " fill="#414142" transform="translate(1550,266)"/>
</svg>
