<?xml version="1.0" encoding="UTF-8"?>

<svg version="1.2" baseProfile="tiny" width="200mm" height="100mm" viewBox="0 0 20000 10000" preserveAspectRatio="xMidYMid" fill-rule="evenodd" stroke-width="28.222" stroke-linejoin="round" xmlns="http://www.w3.org/2000/svg" xmlns:ooo="http://xml.openoffice.org/svg/export" xmlns:xlink="http://www.w3.org/1999/xlink" xml:space="preserve">
 <defs class="ClipPathGroup">
  <clipPath id="presentation_clip_path" clipPathUnits="userSpaceOnUse">
   <rect x="0" y="0" width="20000" height="10000"/>
  </clipPath>
 </defs>
 <defs class="TextShapeIndex">
  <g ooo:slide="id1" ooo:id-list="id3 id4 id5 id6"/>
 </defs>
 <defs class="EmbeddedBulletChars">
  <g id="bullet-char-template(57356)" transform="scale(0.00048828125,-0.00048828125)">
   <path d="M 580,1141 L 1163,571 580,0 -4,571 580,1141 Z"/>
  </g>
  <g id="bullet-char-template(57354)" transform="scale(0.00048828125,-0.00048828125)">
   <path d="M 8,1128 L 1137,1128 1137,0 8,0 8,1128 Z"/>
  </g>
  <g id="bullet-char-template(10146)" transform="scale(0.00048828125,-0.00048828125)">
   <path d="M 174,0 L 602,739 174,1481 1456,739 174,0 Z M 1358,739 L 309,1346 659,739 1358,739 Z"/>
  </g>
  <g id="bullet-char-template(10132)" transform="scale(0.00048828125,-0.00048828125)">
   <path d="M 2015,739 L 1276,0 717,0 1260,543 174,543 174,936 1260,936 717,1481 1274,1481 2015,739 Z"/>
  </g>
  <g id="bullet-char-template(10007)" transform="scale(0.00048828125,-0.00048828125)">
   <path d="M 0,-2 C -7,14 -16,27 -25,37 L 356,567 C 262,823 215,952 215,954 215,979 228,992 255,992 264,992 276,990 289,987 310,991 331,999 354,1012 L 381,999 492,748 772,1049 836,1024 860,1049 C 881,1039 901,1025 922,1006 886,937 835,863 770,784 769,783 710,716 594,584 L 774,223 C 774,196 753,168 711,139 L 727,119 C 717,90 699,76 672,76 641,76 570,178 457,381 L 164,-76 C 142,-110 111,-127 72,-127 30,-127 9,-110 8,-76 1,-67 -2,-52 -2,-32 -2,-23 -1,-13 0,-2 Z"/>
  </g>
  <g id="bullet-char-template(10004)" transform="scale(0.00048828125,-0.00048828125)">
   <path d="M 285,-33 C 182,-33 111,30 74,156 52,228 41,333 41,471 41,549 55,616 82,672 116,743 169,778 240,778 293,778 328,747 346,684 L 369,508 C 377,444 397,411 428,410 L 1163,1116 C 1174,1127 1196,1133 1229,1133 1271,1133 1292,1118 1292,1087 L 1292,965 C 1292,929 1282,901 1262,881 L 442,47 C 390,-6 338,-33 285,-33 Z"/>
  </g>
  <g id="bullet-char-template(9679)" transform="scale(0.00048828125,-0.00048828125)">
   <path d="M 813,0 C 632,0 489,54 383,161 276,268 223,411 223,592 223,773 276,916 383,1023 489,1130 632,1184 813,1184 992,1184 1136,1130 1245,1023 1353,916 1407,772 1407,592 1407,412 1353,268 1245,161 1136,54 992,0 813,0 Z"/>
  </g>
  <g id="bullet-char-template(8226)" transform="scale(0.00048828125,-0.00048828125)">
   <path d="M 346,457 C 273,457 209,483 155,535 101,586 74,649 74,723 74,796 101,859 155,911 209,963 273,989 346,989 419,989 480,963 531,910 582,859 608,796 608,723 608,648 583,586 532,535 482,483 420,457 346,457 Z"/>
  </g>
  <g id="bullet-char-template(8211)" transform="scale(0.00048828125,-0.00048828125)">
   <path d="M -4,459 L 1135,459 1135,606 -4,606 -4,459 Z"/>
  </g>
 </defs>
 <defs class="TextEmbeddedBitmaps"/>
 <g>
  <g id="id2" class="Master_Slide">
   <g id="bg-id2" class="Background"/>
   <g id="bo-id2" class="BackgroundObjects"/>
  </g>
 </g>
 <g class="SlideGroup">
  <g>
   <g id="id1" class="Slide" clip-path="url(#presentation_clip_path)">
    <g class="Page">
     <g class="com.sun.star.drawing.CustomShape">
      <g id="id3">
       <path fill="rgb(255,66,14)" stroke="none" d="M 0,10000 L 20001,10000 20001,1250 17500,-1 0,-1 0,10000 Z"/>
       <path fill="none" stroke="rgb(52,101,164)" d="M 0,10000 L 20001,10000 20001,1250 17500,-1 0,-1 0,10000 Z"/>
       <path fill="rgb(204,53,11)" stroke="none" d="M 17500,-1 L 18149,1250 C 18774,1071 18750,1171 20001,1250 L 17500,-1 Z"/>
       <path fill="none" stroke="rgb(52,101,164)" d="M 17500,-1 L 18149,1250 C 18774,1071 18750,1171 20001,1250 L 17500,-1 Z"/>
      </g>
     </g>
     <g class="Group">
      <g class="com.sun.star.drawing.ClosedBezierShape">
       <g id="id4">
        <path fill="rgb(255,255,255)" stroke="none" d="M 6539,3732 C 6539,4353 6300,4816 5823,5124 5523,5307 5175,5399 4778,5399 L 2802,5399 2802,7900 2000,7900 2000,2000 4597,2000 C 5523,2000 6122,2319 6392,2955 6490,3182 6539,3441 6539,3732 Z M 2802,4736 L 4476,4736 C 5063,4736 5443,4536 5615,4137 5673,4007 5702,3862 5702,3700 5702,3214 5475,2896 5020,2745 4859,2691 4678,2664 4476,2664 L 2802,2664 2802,4736 Z"/>
       </g>
      </g>
      <g class="com.sun.star.drawing.ClosedBezierShape">
       <g id="id5">
        <path fill="rgb(255,255,255)" stroke="none" d="M 7663,7900 L 7663,2000 10088,2000 C 11026,2000 11722,2357 12176,3069 12493,3570 12651,4196 12651,4946 12651,6074 12317,6894 11650,7406 11224,7735 10704,7900 10088,7900 L 7663,7900 Z M 8466,7236 L 9950,7236 C 10951,7236 11558,6748 11771,5772 11823,5523 11848,5251 11848,4954 11848,3627 11365,2877 10399,2705 10255,2678 10105,2664 9950,2664 L 8466,2664 8466,7236 Z"/>
       </g>
      </g>
      <g class="com.sun.star.drawing.ClosedBezierShape">
       <g id="id6">
        <path fill="rgb(255,255,255)" stroke="none" d="M 14483,5213 C 14483,6108 14483,7003 14483,7899 14216,7899 13948,7899 13681,7899 13681,5933 13681,3966 13681,2000 15087,2000 16494,2000 17901,2000 17901,2221 17901,2442 17901,2664 16761,2664 15622,2664 14483,2664 14483,3292 14483,3921 14483,4549 15484,4549 16485,4549 17486,4549 17486,4770 17486,4992 17486,5213 16485,5213 15484,5213 14483,5213 Z"/>
       </g>
      </g>
     </g>
    </g>
   </g>
  </g>
 </g>
</svg>