<?xml version="1.0" encoding="UTF-8"?>

<svg version="1.2" baseProfile="tiny" width="200mm" height="100mm" viewBox="0 0 20000 10000" preserveAspectRatio="xMidYMid" fill-rule="evenodd" stroke-width="28.222" stroke-linejoin="round" xmlns="http://www.w3.org/2000/svg" xmlns:ooo="http://xml.openoffice.org/svg/export" xmlns:xlink="http://www.w3.org/1999/xlink" xml:space="preserve">
 <defs class="ClipPathGroup">
  <clipPath id="presentation_clip_path" clipPathUnits="userSpaceOnUse">
   <rect x="0" y="0" width="20000" height="10000"/>
  </clipPath>
 </defs>
 <defs class="TextShapeIndex">
  <g ooo:slide="id1" ooo:id-list="id3 id4 id5 id6 id7"/>
 </defs>
 <defs class="EmbeddedBulletChars">
  <g id="bullet-char-template(57356)" transform="scale(0.00048828125,-0.00048828125)">
   <path d="M 580,1141 L 1163,571 580,0 -4,571 580,1141 Z"/>
  </g>
  <g id="bullet-char-template(57354)" transform="scale(0.00048828125,-0.00048828125)">
   <path d="M 8,1128 L 1137,1128 1137,0 8,0 8,1128 Z"/>
  </g>
  <g id="bullet-char-template(10146)" transform="scale(0.00048828125,-0.00048828125)">
   <path d="M 174,0 L 602,739 174,1481 1456,739 174,0 Z M 1358,739 L 309,1346 659,739 1358,739 Z"/>
  </g>
  <g id="bullet-char-template(10132)" transform="scale(0.00048828125,-0.00048828125)">
   <path d="M 2015,739 L 1276,0 717,0 1260,543 174,543 174,936 1260,936 717,1481 1274,1481 2015,739 Z"/>
  </g>
  <g id="bullet-char-template(10007)" transform="scale(0.00048828125,-0.00048828125)">
   <path d="M 0,-2 C -7,14 -16,27 -25,37 L 356,567 C 262,823 215,952 215,954 215,979 228,992 255,992 264,992 276,990 289,987 310,991 331,999 354,1012 L 381,999 492,748 772,1049 836,1024 860,1049 C 881,1039 901,1025 922,1006 886,937 835,863 770,784 769,783 710,716 594,584 L 774,223 C 774,196 753,168 711,139 L 727,119 C 717,90 699,76 672,76 641,76 570,178 457,381 L 164,-76 C 142,-110 111,-127 72,-127 30,-127 9,-110 8,-76 1,-67 -2,-52 -2,-32 -2,-23 -1,-13 0,-2 Z"/>
  </g>
  <g id="bullet-char-template(10004)" transform="scale(0.00048828125,-0.00048828125)">
   <path d="M 285,-33 C 182,-33 111,30 74,156 52,228 41,333 41,471 41,549 55,616 82,672 116,743 169,778 240,778 293,778 328,747 346,684 L 369,508 C 377,444 397,411 428,410 L 1163,1116 C 1174,1127 1196,1133 1229,1133 1271,1133 1292,1118 1292,1087 L 1292,965 C 1292,929 1282,901 1262,881 L 442,47 C 390,-6 338,-33 285,-33 Z"/>
  </g>
  <g id="bullet-char-template(9679)" transform="scale(0.00048828125,-0.00048828125)">
   <path d="M 813,0 C 632,0 489,54 383,161 276,268 223,411 223,592 223,773 276,916 383,1023 489,1130 632,1184 813,1184 992,1184 1136,1130 1245,1023 1353,916 1407,772 1407,592 1407,412 1353,268 1245,161 1136,54 992,0 813,0 Z"/>
  </g>
  <g id="bullet-char-template(8226)" transform="scale(0.00048828125,-0.00048828125)">
   <path d="M 346,457 C 273,457 209,483 155,535 101,586 74,649 74,723 74,796 101,859 155,911 209,963 273,989 346,989 419,989 480,963 531,910 582,859 608,796 608,723 608,648 583,586 532,535 482,483 420,457 346,457 Z"/>
  </g>
  <g id="bullet-char-template(8211)" transform="scale(0.00048828125,-0.00048828125)">
   <path d="M -4,459 L 1135,459 1135,606 -4,606 -4,459 Z"/>
  </g>
 </defs>
 <defs class="TextEmbeddedBitmaps"/>
 <g>
  <g id="id2" class="Master_Slide">
   <g id="bg-id2" class="Background"/>
   <g id="bo-id2" class="BackgroundObjects"/>
  </g>
 </g>
 <g class="SlideGroup">
  <g>
   <g id="id1" class="Slide" clip-path="url(#presentation_clip_path)">
    <g class="Page">
     <g class="com.sun.star.drawing.CustomShape">
      <g id="id3">
       <path fill="rgb(51,102,51)" stroke="none" d="M 0,10000 L 20001,10000 20001,1250 17500,-1 0,-1 0,10000 Z"/>
       <path fill="none" stroke="rgb(52,101,164)" d="M 0,10000 L 20001,10000 20001,1250 17500,-1 0,-1 0,10000 Z"/>
       <path fill="rgb(41,82,41)" stroke="none" d="M 17500,-1 L 18149,1250 C 18774,1071 18750,1171 20001,1250 L 17500,-1 Z"/>
       <path fill="none" stroke="rgb(52,101,164)" d="M 17500,-1 L 18149,1250 C 18774,1071 18750,1171 20001,1250 L 17500,-1 Z"/>
      </g>
     </g>
     <g class="Group">
      <g class="com.sun.star.drawing.ClosedBezierShape">
       <g id="id4">
        <path fill="rgb(255,255,255)" stroke="none" d="M 4348,4834 C 4895,5797 5443,6759 5990,7722 5746,7722 5502,7722 5258,7722 4836,6940 4414,6157 3992,5374 3567,6157 3143,6940 2719,7722 2479,7722 2239,7722 2000,7722 2547,6759 3094,5797 3642,4834 3128,3920 2615,3006 2101,2092 2341,2092 2581,2092 2821,2092 3217,2828 3614,3564 4011,4301 4410,3564 4808,2828 5207,2092 5443,2092 5678,2092 5914,2092 5392,3006 4870,3920 4348,4834 Z"/>
       </g>
      </g>
      <g class="com.sun.star.drawing.ClosedBezierShape">
       <g id="id5">
        <path fill="rgb(255,255,255)" stroke="none" d="M 7190,2092 C 7190,3758 7190,5423 7190,7089 7954,7089 8717,7089 9481,7089 9481,7300 9481,7511 9481,7722 8520,7722 7559,7722 6598,7722 6598,5846 6598,3969 6598,2092 6795,2092 6993,2092 7190,2092 Z"/>
       </g>
      </g>
      <g class="com.sun.star.drawing.ClosedBezierShape">
       <g id="id6">
        <path fill="rgb(255,255,255)" stroke="none" d="M 11845,7267 C 12515,7267 12901,7009 13003,6494 13020,6412 13029,6330 13029,6247 13029,5856 12795,5570 12329,5390 12278,5369 12227,5351 12176,5336 L 11024,4965 C 10421,4764 10118,4327 10114,3652 10114,3014 10334,2550 10776,2262 11052,2087 11380,1999 11762,1999 12509,1999 13016,2285 13283,2857 13398,3109 13457,3405 13461,3745 L 12901,3745 C 12897,3173 12664,2813 12201,2664 12061,2622 11909,2602 11743,2602 11302,2602 10994,2761 10820,3081 10744,3220 10706,3377 10706,3552 10706,3840 10820,4056 11049,4201 11155,4267 11295,4329 11469,4386 L 12634,4764 C 13143,4934 13457,5269 13576,5768 13606,5902 13621,6039 13621,6178 13621,6682 13466,7094 13156,7413 12834,7738 12384,7900 11807,7900 11073,7900 10553,7632 10248,7097 10074,6783 9982,6394 9974,5931 L 10534,5931 10534,5969 C 10534,6484 10710,6852 11062,7074 11274,7202 11535,7267 11845,7267 Z"/>
       </g>
      </g>
      <g class="com.sun.star.drawing.ClosedBezierShape">
       <g id="id7">
        <path fill="rgb(255,255,255)" stroke="none" d="M 16359,4834 C 16906,5797 17454,6759 18001,7722 17757,7722 17513,7722 17269,7722 16847,6940 16425,6157 16002,5374 15578,6157 15154,6940 14730,7722 14490,7722 14250,7722 14010,7722 14558,6759 15105,5797 15652,4834 15139,3920 14626,3006 14112,2092 14352,2092 14592,2092 14831,2092 15228,2828 15625,3564 16022,4301 16420,3564 16819,2828 17218,2092 17454,2092 17689,2092 17924,2092 17403,3006 16881,3920 16359,4834 Z"/>
       </g>
      </g>
     </g>
    </g>
   </g>
  </g>
 </g>
</svg>