<?xml version="1.0" encoding="UTF-8"?>

<svg version="1.2" baseProfile="tiny" width="200mm" height="100mm" viewBox="0 0 20000 10000" preserveAspectRatio="xMidYMid" fill-rule="evenodd" stroke-width="28.222" stroke-linejoin="round" xmlns="http://www.w3.org/2000/svg" xmlns:ooo="http://xml.openoffice.org/svg/export" xmlns:xlink="http://www.w3.org/1999/xlink" xml:space="preserve">
 <defs class="ClipPathGroup">
  <clipPath id="presentation_clip_path" clipPathUnits="userSpaceOnUse">
   <rect x="0" y="0" width="20000" height="10000"/>
  </clipPath>
 </defs>
 <defs class="TextShapeIndex">
  <g ooo:slide="id1" ooo:id-list="id3 id4 id5 id6"/>
 </defs>
 <defs class="EmbeddedBulletChars">
  <g id="bullet-char-template(57356)" transform="scale(0.00048828125,-0.00048828125)">
   <path d="M 580,1141 L 1163,571 580,0 -4,571 580,1141 Z"/>
  </g>
  <g id="bullet-char-template(57354)" transform="scale(0.00048828125,-0.00048828125)">
   <path d="M 8,1128 L 1137,1128 1137,0 8,0 8,1128 Z"/>
  </g>
  <g id="bullet-char-template(10146)" transform="scale(0.00048828125,-0.00048828125)">
   <path d="M 174,0 L 602,739 174,1481 1456,739 174,0 Z M 1358,739 L 309,1346 659,739 1358,739 Z"/>
  </g>
  <g id="bullet-char-template(10132)" transform="scale(0.00048828125,-0.00048828125)">
   <path d="M 2015,739 L 1276,0 717,0 1260,543 174,543 174,936 1260,936 717,1481 1274,1481 2015,739 Z"/>
  </g>
  <g id="bullet-char-template(10007)" transform="scale(0.00048828125,-0.00048828125)">
   <path d="M 0,-2 C -7,14 -16,27 -25,37 L 356,567 C 262,823 215,952 215,954 215,979 228,992 255,992 264,992 276,990 289,987 310,991 331,999 354,1012 L 381,999 492,748 772,1049 836,1024 860,1049 C 881,1039 901,1025 922,1006 886,937 835,863 770,784 769,783 710,716 594,584 L 774,223 C 774,196 753,168 711,139 L 727,119 C 717,90 699,76 672,76 641,76 570,178 457,381 L 164,-76 C 142,-110 111,-127 72,-127 30,-127 9,-110 8,-76 1,-67 -2,-52 -2,-32 -2,-23 -1,-13 0,-2 Z"/>
  </g>
  <g id="bullet-char-template(10004)" transform="scale(0.00048828125,-0.00048828125)">
   <path d="M 285,-33 C 182,-33 111,30 74,156 52,228 41,333 41,471 41,549 55,616 82,672 116,743 169,778 240,778 293,778 328,747 346,684 L 369,508 C 377,444 397,411 428,410 L 1163,1116 C 1174,1127 1196,1133 1229,1133 1271,1133 1292,1118 1292,1087 L 1292,965 C 1292,929 1282,901 1262,881 L 442,47 C 390,-6 338,-33 285,-33 Z"/>
  </g>
  <g id="bullet-char-template(9679)" transform="scale(0.00048828125,-0.00048828125)">
   <path d="M 813,0 C 632,0 489,54 383,161 276,268 223,411 223,592 223,773 276,916 383,1023 489,1130 632,1184 813,1184 992,1184 1136,1130 1245,1023 1353,916 1407,772 1407,592 1407,412 1353,268 1245,161 1136,54 992,0 813,0 Z"/>
  </g>
  <g id="bullet-char-template(8226)" transform="scale(0.00048828125,-0.00048828125)">
   <path d="M 346,457 C 273,457 209,483 155,535 101,586 74,649 74,723 74,796 101,859 155,911 209,963 273,989 346,989 419,989 480,963 531,910 582,859 608,796 608,723 608,648 583,586 532,535 482,483 420,457 346,457 Z"/>
  </g>
  <g id="bullet-char-template(8211)" transform="scale(0.00048828125,-0.00048828125)">
   <path d="M -4,459 L 1135,459 1135,606 -4,606 -4,459 Z"/>
  </g>
 </defs>
 <defs class="TextEmbeddedBitmaps"/>
 <g>
  <g id="id2" class="Master_Slide">
   <g id="bg-id2" class="Background"/>
   <g id="bo-id2" class="BackgroundObjects"/>
  </g>
 </g>
 <g class="SlideGroup">
  <g>
   <g id="id1" class="Slide" clip-path="url(#presentation_clip_path)">
    <g class="Page">
     <g class="com.sun.star.drawing.CustomShape">
      <g id="id3">
       <path fill="rgb(131,202,255)" stroke="none" d="M 0,10000 L 20001,10000 20001,1250 17500,-1 0,-1 0,10000 Z"/>
       <path fill="none" stroke="rgb(52,101,164)" d="M 0,10000 L 20001,10000 20001,1250 17500,-1 0,-1 0,10000 Z"/>
       <path fill="rgb(105,162,204)" stroke="none" d="M 17500,-1 L 18149,1250 C 18774,1071 18750,1171 20001,1250 L 17500,-1 Z"/>
       <path fill="none" stroke="rgb(52,101,164)" d="M 17500,-1 L 18149,1250 C 18774,1071 18750,1171 20001,1250 L 17500,-1 Z"/>
      </g>
     </g>
     <g class="Group">
      <g class="com.sun.star.drawing.ClosedBezierShape">
       <g id="id4">
        <path fill="rgb(255,255,255)" stroke="none" d="M 2000,7820 L 2000,2105 4158,2105 C 4993,2105 5612,2450 6017,3140 6298,3626 6439,4232 6439,4958 6439,6051 6142,6845 5548,7341 5169,7660 4706,7820 4158,7820 L 2000,7820 Z M 2714,7177 L 4035,7177 C 4926,7177 5466,6704 5656,5758 5702,5518 5725,5254 5725,4966 5725,3681 5295,2954 4435,2787 4307,2761 4173,2748 4035,2748 L 2714,2748 2714,7177 Z"/>
       </g>
      </g>
      <g class="com.sun.star.drawing.ClosedBezierShape">
       <g id="id5">
        <path fill="rgb(255,255,255)" stroke="none" d="M 12455,5053 C 12455,5931 12197,6647 11680,7201 11178,7734 10535,8000 9752,8000 8897,8000 8219,7694 7717,7083 7271,6534 7049,5842 7049,5006 7049,4045 7333,3284 7901,2725 8393,2250 9007,2012 9744,2012 10635,2012 11329,2333 11826,2976 12246,3525 12455,4217 12455,5053 Z M 9744,2655 C 9079,2655 8562,2921 8193,3454 7906,3877 7763,4395 7763,5006 7763,5832 8006,6461 8493,6895 8841,7203 9261,7357 9752,7357 10413,7357 10927,7096 11296,6573 11593,6156 11741,5643 11741,5037 11741,4175 11490,3527 10989,3094 10645,2801 10231,2655 9744,2655 Z"/>
       </g>
      </g>
      <g class="com.sun.star.drawing.ClosedBezierShape">
       <g id="id6">
        <path fill="rgb(255,255,255)" stroke="none" d="M 13069,5029 C 13069,4209 13261,3524 13645,2975 14101,2338 14761,2019 15626,2019 16840,2019 17559,2638 17785,3877 L 17055,3877 C 16917,3197 16556,2803 15972,2693 15839,2667 15696,2654 15542,2654 14887,2654 14403,2954 14090,3555 13886,3947 13783,4436 13783,5021 13783,5910 14026,6560 14513,6973 14815,7229 15178,7357 15603,7357 16284,7357 16745,7046 16986,6424 17063,6226 17122,5996 17162,5735 L 17900,5735 C 17721,7245 16953,8000 15596,8000 14546,8000 13811,7538 13392,6613 13176,6137 13069,5609 13069,5029 Z"/>
       </g>
      </g>
     </g>
    </g>
   </g>
  </g>
 </g>
</svg>