<?xml version="1.0" encoding="UTF-8"?>

<svg version="1.2" baseProfile="tiny" width="200mm" height="100mm" viewBox="0 0 20000 10000" preserveAspectRatio="xMidYMid" fill-rule="evenodd" stroke-width="28.222" stroke-linejoin="round" xmlns="http://www.w3.org/2000/svg" xmlns:ooo="http://xml.openoffice.org/svg/export" xmlns:xlink="http://www.w3.org/1999/xlink" xml:space="preserve">
 <defs class="ClipPathGroup">
  <clipPath id="presentation_clip_path" clipPathUnits="userSpaceOnUse">
   <rect x="0" y="0" width="20000" height="10000"/>
  </clipPath>
 </defs>
 <defs class="TextShapeIndex">
  <g ooo:slide="id1" ooo:id-list="id3 id4 id5 id6 id7"/>
 </defs>
 <defs class="EmbeddedBulletChars">
  <g id="bullet-char-template(57356)" transform="scale(0.00048828125,-0.00048828125)">
   <path d="M 580,1141 L 1163,571 580,0 -4,571 580,1141 Z"/>
  </g>
  <g id="bullet-char-template(57354)" transform="scale(0.00048828125,-0.00048828125)">
   <path d="M 8,1128 L 1137,1128 1137,0 8,0 8,1128 Z"/>
  </g>
  <g id="bullet-char-template(10146)" transform="scale(0.00048828125,-0.00048828125)">
   <path d="M 174,0 L 602,739 174,1481 1456,739 174,0 Z M 1358,739 L 309,1346 659,739 1358,739 Z"/>
  </g>
  <g id="bullet-char-template(10132)" transform="scale(0.00048828125,-0.00048828125)">
   <path d="M 2015,739 L 1276,0 717,0 1260,543 174,543 174,936 1260,936 717,1481 1274,1481 2015,739 Z"/>
  </g>
  <g id="bullet-char-template(10007)" transform="scale(0.00048828125,-0.00048828125)">
   <path d="M 0,-2 C -7,14 -16,27 -25,37 L 356,567 C 262,823 215,952 215,954 215,979 228,992 255,992 264,992 276,990 289,987 310,991 331,999 354,1012 L 381,999 492,748 772,1049 836,1024 860,1049 C 881,1039 901,1025 922,1006 886,937 835,863 770,784 769,783 710,716 594,584 L 774,223 C 774,196 753,168 711,139 L 727,119 C 717,90 699,76 672,76 641,76 570,178 457,381 L 164,-76 C 142,-110 111,-127 72,-127 30,-127 9,-110 8,-76 1,-67 -2,-52 -2,-32 -2,-23 -1,-13 0,-2 Z"/>
  </g>
  <g id="bullet-char-template(10004)" transform="scale(0.00048828125,-0.00048828125)">
   <path d="M 285,-33 C 182,-33 111,30 74,156 52,228 41,333 41,471 41,549 55,616 82,672 116,743 169,778 240,778 293,778 328,747 346,684 L 369,508 C 377,444 397,411 428,410 L 1163,1116 C 1174,1127 1196,1133 1229,1133 1271,1133 1292,1118 1292,1087 L 1292,965 C 1292,929 1282,901 1262,881 L 442,47 C 390,-6 338,-33 285,-33 Z"/>
  </g>
  <g id="bullet-char-template(9679)" transform="scale(0.00048828125,-0.00048828125)">
   <path d="M 813,0 C 632,0 489,54 383,161 276,268 223,411 223,592 223,773 276,916 383,1023 489,1130 632,1184 813,1184 992,1184 1136,1130 1245,1023 1353,916 1407,772 1407,592 1407,412 1353,268 1245,161 1136,54 992,0 813,0 Z"/>
  </g>
  <g id="bullet-char-template(8226)" transform="scale(0.00048828125,-0.00048828125)">
   <path d="M 346,457 C 273,457 209,483 155,535 101,586 74,649 74,723 74,796 101,859 155,911 209,963 273,989 346,989 419,989 480,963 531,910 582,859 608,796 608,723 608,648 583,586 532,535 482,483 420,457 346,457 Z"/>
  </g>
  <g id="bullet-char-template(8211)" transform="scale(0.00048828125,-0.00048828125)">
   <path d="M -4,459 L 1135,459 1135,606 -4,606 -4,459 Z"/>
  </g>
 </defs>
 <defs class="TextEmbeddedBitmaps"/>
 <g>
  <g id="id2" class="Master_Slide">
   <g id="bg-id2" class="Background"/>
   <g id="bo-id2" class="BackgroundObjects"/>
  </g>
 </g>
 <g class="SlideGroup">
  <g>
   <g id="id1" class="Slide" clip-path="url(#presentation_clip_path)">
    <g class="Page">
     <g class="Group">
      <g class="com.sun.star.drawing.ClosedBezierShape">
       <g id="id3">
        <path fill="rgb(204,153,153)" stroke="none" d="M 99,10000 C 6766,10000 13433,10000 20100,10000 20100,7083 20100,4167 20100,1250 19266,833 18433,416 17599,-1 11766,-1 5932,-1 99,-1 99,3333 99,6666 99,10000 Z"/>
        <path fill="none" stroke="rgb(52,101,164)" d="M 99,10000 L 20100,10000 20100,1250 17599,-1 99,-1 99,10000 Z"/>
       </g>
      </g>
      <g class="com.sun.star.drawing.ClosedBezierShape">
       <g id="id4">
        <path fill="rgb(204,153,153)" stroke="none" d="M 17599,-1 C 17815,416 18032,833 18248,1250 18873,1071 18849,1171 20100,1250 19266,833 18433,416 17599,-1 Z"/>
        <path fill="none" stroke="rgb(52,101,164)" d="M 17599,-1 L 18248,1250 C 18873,1071 18849,1171 20100,1250 L 17599,-1 Z"/>
       </g>
      </g>
     </g>
     <g class="Group">
      <g class="com.sun.star.drawing.ClosedBezierShape">
       <g id="id5">
        <path fill="rgb(255,255,255)" stroke="none" d="M 6559,3753 C 6559,4371 6319,4832 5840,5138 5539,5321 5190,5412 4791,5412 L 2806,5412 2806,7900 2000,7900 2000,2030 4609,2030 C 5539,2030 6140,2347 6412,2980 6510,3206 6559,3464 6559,3753 Z M 2806,4752 L 4488,4752 C 5077,4752 5458,4553 5632,4156 5689,4027 5718,3882 5718,3721 5718,3238 5490,2921 5034,2771 4872,2718 4690,2691 4488,2691 L 2806,2691 2806,4752 Z"/>
       </g>
      </g>
      <g class="com.sun.star.drawing.ClosedBezierShape">
       <g id="id6">
        <path fill="rgb(255,255,255)" stroke="none" d="M 12248,3753 C 12248,4371 12008,4832 11529,5138 11228,5321 10879,5412 10480,5412 L 8495,5412 8495,7900 7689,7900 7689,2030 10298,2030 C 11228,2030 11829,2347 12101,2980 12199,3206 12248,3464 12248,3753 Z M 8495,4752 L 10177,4752 C 10766,4752 11147,4553 11321,4156 11378,4027 11407,3882 11407,3721 11407,3238 11179,2921 10723,2771 10561,2718 10379,2691 10177,2691 L 8495,2691 8495,4752 Z"/>
       </g>
      </g>
      <g class="com.sun.star.drawing.ClosedBezierShape">
       <g id="id7">
        <path fill="rgb(255,255,255)" stroke="none" d="M 15828,2691 C 15828,4427 15828,6164 15828,7900 15560,7900 15291,7900 15022,7900 15022,6164 15022,4427 15022,2691 14329,2691 13635,2691 12942,2691 12942,2471 12942,2251 12942,2030 14595,2030 16247,2030 17900,2030 17900,2251 17900,2471 17900,2691 17209,2691 16519,2691 15828,2691 Z"/>
       </g>
      </g>
     </g>
    </g>
   </g>
  </g>
 </g>
</svg>