<?xml version="1.0" encoding="UTF-8"?>

<svg version="1.2" baseProfile="tiny" width="200mm" height="100mm" viewBox="0 0 20000 10000" preserveAspectRatio="xMidYMid" fill-rule="evenodd" stroke-width="28.222" stroke-linejoin="round" xmlns="http://www.w3.org/2000/svg" xmlns:ooo="http://xml.openoffice.org/svg/export" xmlns:xlink="http://www.w3.org/1999/xlink" xml:space="preserve">
 <defs class="ClipPathGroup">
  <clipPath id="presentation_clip_path" clipPathUnits="userSpaceOnUse">
   <rect x="0" y="0" width="20000" height="10000"/>
  </clipPath>
 </defs>
 <defs class="TextShapeIndex">
  <g ooo:slide="id1" ooo:id-list="id3 id4 id5 id6 id7"/>
 </defs>
 <defs class="EmbeddedBulletChars">
  <g id="bullet-char-template(57356)" transform="scale(0.00048828125,-0.00048828125)">
   <path d="M 580,1141 L 1163,571 580,0 -4,571 580,1141 Z"/>
  </g>
  <g id="bullet-char-template(57354)" transform="scale(0.00048828125,-0.00048828125)">
   <path d="M 8,1128 L 1137,1128 1137,0 8,0 8,1128 Z"/>
  </g>
  <g id="bullet-char-template(10146)" transform="scale(0.00048828125,-0.00048828125)">
   <path d="M 174,0 L 602,739 174,1481 1456,739 174,0 Z M 1358,739 L 309,1346 659,739 1358,739 Z"/>
  </g>
  <g id="bullet-char-template(10132)" transform="scale(0.00048828125,-0.00048828125)">
   <path d="M 2015,739 L 1276,0 717,0 1260,543 174,543 174,936 1260,936 717,1481 1274,1481 2015,739 Z"/>
  </g>
  <g id="bullet-char-template(10007)" transform="scale(0.00048828125,-0.00048828125)">
   <path d="M 0,-2 C -7,14 -16,27 -25,37 L 356,567 C 262,823 215,952 215,954 215,979 228,992 255,992 264,992 276,990 289,987 310,991 331,999 354,1012 L 381,999 492,748 772,1049 836,1024 860,1049 C 881,1039 901,1025 922,1006 886,937 835,863 770,784 769,783 710,716 594,584 L 774,223 C 774,196 753,168 711,139 L 727,119 C 717,90 699,76 672,76 641,76 570,178 457,381 L 164,-76 C 142,-110 111,-127 72,-127 30,-127 9,-110 8,-76 1,-67 -2,-52 -2,-32 -2,-23 -1,-13 0,-2 Z"/>
  </g>
  <g id="bullet-char-template(10004)" transform="scale(0.00048828125,-0.00048828125)">
   <path d="M 285,-33 C 182,-33 111,30 74,156 52,228 41,333 41,471 41,549 55,616 82,672 116,743 169,778 240,778 293,778 328,747 346,684 L 369,508 C 377,444 397,411 428,410 L 1163,1116 C 1174,1127 1196,1133 1229,1133 1271,1133 1292,1118 1292,1087 L 1292,965 C 1292,929 1282,901 1262,881 L 442,47 C 390,-6 338,-33 285,-33 Z"/>
  </g>
  <g id="bullet-char-template(9679)" transform="scale(0.00048828125,-0.00048828125)">
   <path d="M 813,0 C 632,0 489,54 383,161 276,268 223,411 223,592 223,773 276,916 383,1023 489,1130 632,1184 813,1184 992,1184 1136,1130 1245,1023 1353,916 1407,772 1407,592 1407,412 1353,268 1245,161 1136,54 992,0 813,0 Z"/>
  </g>
  <g id="bullet-char-template(8226)" transform="scale(0.00048828125,-0.00048828125)">
   <path d="M 346,457 C 273,457 209,483 155,535 101,586 74,649 74,723 74,796 101,859 155,911 209,963 273,989 346,989 419,989 480,963 531,910 582,859 608,796 608,723 608,648 583,586 532,535 482,483 420,457 346,457 Z"/>
  </g>
  <g id="bullet-char-template(8211)" transform="scale(0.00048828125,-0.00048828125)">
   <path d="M -4,459 L 1135,459 1135,606 -4,606 -4,459 Z"/>
  </g>
 </defs>
 <defs class="TextEmbeddedBitmaps"/>
 <g>
  <g id="id2" class="Master_Slide">
   <g id="bg-id2" class="Background"/>
   <g id="bo-id2" class="BackgroundObjects"/>
  </g>
 </g>
 <g class="SlideGroup">
  <g>
   <g id="id1" class="Slide" clip-path="url(#presentation_clip_path)">
    <g class="Page">
     <g class="com.sun.star.drawing.CustomShape">
      <g id="id3">
       <path fill="rgb(204,102,153)" stroke="none" d="M 0,10000 L 20001,10000 20001,1250 17500,-1 0,-1 0,10000 Z"/>
       <path fill="none" stroke="rgb(52,101,164)" d="M 0,10000 L 20001,10000 20001,1250 17500,-1 0,-1 0,10000 Z"/>
       <path fill="rgb(163,82,122)" stroke="none" d="M 17500,-1 L 18149,1250 C 18774,1071 18750,1171 20001,1250 L 17500,-1 Z"/>
       <path fill="none" stroke="rgb(52,101,164)" d="M 17500,-1 L 18149,1250 C 18774,1071 18750,1171 20001,1250 L 17500,-1 Z"/>
      </g>
     </g>
     <g class="Group">
      <g class="com.sun.star.drawing.ClosedBezierShape">
       <g id="id4">
        <path fill="rgb(255,255,255)" stroke="none" d="M 5365,3762 C 5365,4392 5189,4864 4836,5177 4615,5363 4357,5457 4064,5457 L 2603,5457 2603,8000 2010,8000 2010,2000 3930,2000 C 4615,2000 5057,2324 5257,2972 5329,3202 5365,3465 5365,3762 Z M 2603,4782 L 3841,4782 C 4274,4782 4555,4579 4683,4173 4725,4041 4747,3893 4747,3729 4747,3235 4579,2911 4243,2758 4124,2703 3990,2675 3841,2675 L 2603,2675 2603,4782 Z"/>
       </g>
      </g>
      <g class="com.sun.star.drawing.ClosedBezierShape">
       <g id="id5">
        <path fill="rgb(255,255,255)" stroke="none" d="M 9552,3762 C 9552,4392 9376,4864 9023,5177 8801,5363 8544,5457 8251,5457 L 6790,5457 6790,8000 6197,8000 6197,2000 8117,2000 C 8801,2000 9244,2324 9444,2972 9516,3202 9552,3465 9552,3762 Z M 6790,4782 L 8027,4782 C 8461,4782 8742,4579 8870,4173 8912,4041 8933,3893 8933,3729 8933,3235 8765,2911 8429,2758 8310,2703 8176,2675 8027,2675 L 6790,2675 6790,4782 Z"/>
       </g>
      </g>
      <g class="com.sun.star.drawing.ClosedBezierShape">
       <g id="id6">
        <path fill="rgb(255,255,255)" stroke="none" d="M 12187,2675 C 12187,4450 12187,6225 12187,8000 11989,8000 11791,8000 11594,8000 11594,6225 11594,4450 11594,2675 11083,2675 10573,2675 10063,2675 10063,2450 10063,2225 10063,2000 11279,2000 12495,2000 13711,2000 13711,2225 13711,2450 13711,2675 13203,2675 12695,2675 12187,2675 Z"/>
       </g>
      </g>
      <g class="com.sun.star.drawing.ClosedBezierShape">
       <g id="id7">
        <path fill="rgb(255,255,255)" stroke="none" d="M 16355,4922 C 16904,5948 17452,6974 18001,8000 17756,8000 17512,8000 17267,8000 16844,7166 16421,6332 15998,5498 15573,6332 15147,7166 14722,8000 14482,8000 14241,8000 14001,8000 14550,6974 15098,5948 15647,4922 15132,3948 14618,2975 14103,2001 14344,2001 14584,2001 14824,2001 15222,2785 15619,3570 16017,4354 16417,3570 16816,2785 17216,2001 17452,2001 17688,2001 17924,2001 17401,2975 16878,3948 16355,4922 Z"/>
       </g>
      </g>
     </g>
    </g>
   </g>
  </g>
 </g>
</svg>