<?xml version="1.0" encoding="UTF-8"?>

<svg version="1.2" baseProfile="tiny" width="200mm" height="100mm" viewBox="0 0 20000 10000" preserveAspectRatio="xMidYMid" fill-rule="evenodd" stroke-width="28.222" stroke-linejoin="round" xmlns="http://www.w3.org/2000/svg" xmlns:ooo="http://xml.openoffice.org/svg/export" xmlns:xlink="http://www.w3.org/1999/xlink" xml:space="preserve">
 <defs class="ClipPathGroup">
  <clipPath id="presentation_clip_path" clipPathUnits="userSpaceOnUse">
   <rect x="0" y="0" width="20000" height="10000"/>
  </clipPath>
 </defs>
 <defs class="TextShapeIndex">
  <g ooo:slide="id1" ooo:id-list="id3 id4 id5 id6"/>
 </defs>
 <defs class="EmbeddedBulletChars">
  <g id="bullet-char-template(57356)" transform="scale(0.00048828125,-0.00048828125)">
   <path d="M 580,1141 L 1163,571 580,0 -4,571 580,1141 Z"/>
  </g>
  <g id="bullet-char-template(57354)" transform="scale(0.00048828125,-0.00048828125)">
   <path d="M 8,1128 L 1137,1128 1137,0 8,0 8,1128 Z"/>
  </g>
  <g id="bullet-char-template(10146)" transform="scale(0.00048828125,-0.00048828125)">
   <path d="M 174,0 L 602,739 174,1481 1456,739 174,0 Z M 1358,739 L 309,1346 659,739 1358,739 Z"/>
  </g>
  <g id="bullet-char-template(10132)" transform="scale(0.00048828125,-0.00048828125)">
   <path d="M 2015,739 L 1276,0 717,0 1260,543 174,543 174,936 1260,936 717,1481 1274,1481 2015,739 Z"/>
  </g>
  <g id="bullet-char-template(10007)" transform="scale(0.00048828125,-0.00048828125)">
   <path d="M 0,-2 C -7,14 -16,27 -25,37 L 356,567 C 262,823 215,952 215,954 215,979 228,992 255,992 264,992 276,990 289,987 310,991 331,999 354,1012 L 381,999 492,748 772,1049 836,1024 860,1049 C 881,1039 901,1025 922,1006 886,937 835,863 770,784 769,783 710,716 594,584 L 774,223 C 774,196 753,168 711,139 L 727,119 C 717,90 699,76 672,76 641,76 570,178 457,381 L 164,-76 C 142,-110 111,-127 72,-127 30,-127 9,-110 8,-76 1,-67 -2,-52 -2,-32 -2,-23 -1,-13 0,-2 Z"/>
  </g>
  <g id="bullet-char-template(10004)" transform="scale(0.00048828125,-0.00048828125)">
   <path d="M 285,-33 C 182,-33 111,30 74,156 52,228 41,333 41,471 41,549 55,616 82,672 116,743 169,778 240,778 293,778 328,747 346,684 L 369,508 C 377,444 397,411 428,410 L 1163,1116 C 1174,1127 1196,1133 1229,1133 1271,1133 1292,1118 1292,1087 L 1292,965 C 1292,929 1282,901 1262,881 L 442,47 C 390,-6 338,-33 285,-33 Z"/>
  </g>
  <g id="bullet-char-template(9679)" transform="scale(0.00048828125,-0.00048828125)">
   <path d="M 813,0 C 632,0 489,54 383,161 276,268 223,411 223,592 223,773 276,916 383,1023 489,1130 632,1184 813,1184 992,1184 1136,1130 1245,1023 1353,916 1407,772 1407,592 1407,412 1353,268 1245,161 1136,54 992,0 813,0 Z"/>
  </g>
  <g id="bullet-char-template(8226)" transform="scale(0.00048828125,-0.00048828125)">
   <path d="M 346,457 C 273,457 209,483 155,535 101,586 74,649 74,723 74,796 101,859 155,911 209,963 273,989 346,989 419,989 480,963 531,910 582,859 608,796 608,723 608,648 583,586 532,535 482,483 420,457 346,457 Z"/>
  </g>
  <g id="bullet-char-template(8211)" transform="scale(0.00048828125,-0.00048828125)">
   <path d="M -4,459 L 1135,459 1135,606 -4,606 -4,459 Z"/>
  </g>
 </defs>
 <defs class="TextEmbeddedBitmaps"/>
 <g>
  <g id="id2" class="Master_Slide">
   <g id="bg-id2" class="Background"/>
   <g id="bo-id2" class="BackgroundObjects"/>
  </g>
 </g>
 <g class="SlideGroup">
  <g>
   <g id="id1" class="Slide" clip-path="url(#presentation_clip_path)">
    <g class="Page">
     <g class="com.sun.star.drawing.CustomShape">
      <g id="id3">
       <path fill="rgb(255,204,0)" stroke="none" d="M 0,10000 L 20001,10000 20001,1250 17500,-1 0,-1 0,10000 Z"/>
       <path fill="none" stroke="rgb(52,101,164)" d="M 0,10000 L 20001,10000 20001,1250 17500,-1 0,-1 0,10000 Z"/>
       <path fill="rgb(204,163,0)" stroke="none" d="M 17500,-1 L 18149,1250 C 18774,1071 18750,1171 20001,1250 L 17500,-1 Z"/>
       <path fill="none" stroke="rgb(52,101,164)" d="M 17500,-1 L 18149,1250 C 18774,1071 18750,1171 20001,1250 L 17500,-1 Z"/>
      </g>
     </g>
     <g class="Group">
      <g class="com.sun.star.drawing.ClosedBezierShape">
       <g id="id4">
        <path fill="rgb(255,255,255)" stroke="none" d="M 3749,7297 C 4269,7297 4578,7042 4675,6531 4698,6392 4710,6232 4710,6052 L 4710,2086 5507,2086 5507,6315 C 5507,6954 5250,7410 4735,7683 4449,7828 4118,7900 3740,7900 3031,7900 2528,7678 2230,7235 2076,6998 1999,6722 1999,6408 L 1999,5913 2814,5913 2814,6276 C 2814,6849 3045,7181 3509,7274 3589,7289 3669,7297 3749,7297 Z"/>
       </g>
      </g>
      <g class="com.sun.star.drawing.ClosedBezierShape">
       <g id="id5">
        <path fill="rgb(255,255,255)" stroke="none" d="M 11420,3740 C 11420,4332 11183,4776 10708,5069 10411,5245 10065,5332 9670,5332 L 7706,5332 7706,7722 6908,7722 6908,2085 9490,2085 C 10411,2085 11006,2389 11274,2997 11372,3214 11420,3461 11420,3740 Z M 7706,4698 L 9370,4698 C 9953,4698 10331,4508 10502,4126 10560,4002 10588,3863 10588,3709 10588,3245 10362,2941 9911,2796 9750,2745 9570,2719 9370,2719 L 7706,2719 7706,4698 Z"/>
       </g>
      </g>
      <g class="com.sun.star.drawing.ClosedBezierShape">
       <g id="id6">
        <path fill="rgb(255,255,255)" stroke="none" d="M 12993,4927 C 12993,5598 13182,6153 13559,6592 13959,7041 14517,7266 15232,7266 15884,7266 16398,7060 16776,6648 17056,6333 17196,5962 17196,5534 L 17196,5380 15292,5380 15292,4746 17900,4746 17900,7753 17393,7753 17196,7003 C 16596,7601 15884,7900 15060,7900 14185,7900 13479,7606 12941,7018 12444,6477 12195,5792 12195,4962 12195,4214 12401,3572 12813,3036 13350,2345 14145,2000 15198,2000 16221,2000 16965,2303 17428,2909 17617,3165 17745,3461 17814,3794 L 16999,3794 C 16879,3289 16547,2943 16004,2758 15758,2670 15486,2626 15189,2626 14434,2626 13854,2895 13448,3432 13144,3840 12993,4338 12993,4927 Z"/>
       </g>
      </g>
     </g>
    </g>
   </g>
  </g>
 </g>
</svg>