<?xml version="1.0" encoding="UTF-8"?>
<svg width="32" height="36" viewBox="0 0 32 36" xmlns="http://www.w3.org/2000/svg">
    <path id="Path" fill="#cceef3" stroke="#00abc9" stroke-width="2" stroke-linejoin="round" d="M 20.234375 30.890625 L 19.34375 31.265625 L 18.6875 31.609375 L 18.34375 31.796875 L 18.109375 31.890625 L 17.734375 31.984375 L 17.25 31.984375 L 16.765625 31.828125 L 16.390625 31.5625 L 16.09375 31.21875 L 15.890625 30.828125 L 15.765625 30.390625 L 15.765625 9.609375 L 15.859375 9.1875 L 16.0625 8.75 L 16.359375 8.421875 L 16.53125 8.28125 L 16.90625 8.046875 L 17.609375 7.625 L 18.34375 7.234375 L 19.140625 6.890625 L 20.328125 6.4375 L 21.9375 5.96875 L 23.53125 5.59375 L 25.078125 5.34375 L 26.5 5.140625 L 27.75 5.03125 L 28.171875 5 L 28.5625 4.96875 L 29.125 5.09375 L 29.59375 5.28125 L 30.03125 5.578125 L 30.390625 5.953125 L 30.6875 6.390625 L 30.890625 6.890625 L 30.984375 7.40625 L 31 7.65625 L 31 26.609375 L 30.984375 26.859375 L 30.90625 27.28125 L 30.734375 27.78125 L 30.484375 28.203125 L 30.171875 28.578125 L 29.765625 28.90625 L 29.34375 29.109375 L 28.890625 29.25 L 28.609375 29.28125 L 27.65625 29.34375 L 25.796875 29.546875 L 25.796875 29.53125 L 24.5 29.75 L 23.046875 30.046875 L 21.6875 30.40625 Z M 3.734375 5 L 4.234375 5.03125 L 5.484375 5.140625 L 6.90625 5.34375 L 8.453125 5.59375 L 10.046875 5.96875 L 11.65625 6.4375 L 12.84375 6.890625 L 13.625 7.234375 L 14.375 7.609375 L 15.09375 8.03125 L 15.453125 8.296875 L 15.625 8.421875 L 15.90625 8.75 L 16.125 9.15625 L 16.21875 9.59375 L 16.21875 30.390625 L 16.09375 30.828125 L 15.890625 31.21875 L 15.59375 31.5625 L 15.21875 31.828125 L 14.734375 31.984375 L 14.28125 31.984375 L 13.84375 31.890625 L 13.640625 31.78125 L 12.640625 31.265625 L 11.734375 30.890625 L 10.28125 30.390625 L 8.9375 30.046875 L 7.484375 29.75 L 6.1875 29.53125 L 6.1875 29.546875 L 4.328125 29.328125 L 3.375 29.265625 L 3.109375 29.234375 L 2.640625 29.109375 L 2.203125 28.875 L 1.8125 28.5625 L 1.5 28.1875 L 1.25 27.78125 L 1.078125 27.296875 L 1 26.796875 L 1 7.4375 L 1.09375 6.890625 L 1.296875 6.390625 L 1.59375 5.953125 L 1.9375 5.59375 L 2.390625 5.265625 L 2.890625 5.078125 L 3.421875 4.96875 Z"/>
</svg>
