<svg height="255" viewBox="0 0 1184 255" width="1184" xmlns="http://www.w3.org/2000/svg"><g fill="#00abc9"><path d="m27.0742 175v-67.955002h35.251697v-22.934891h-35.251697v-39.498901h47.143802v-22.934814h-73.476402v153.323608zm134.4948 0v-22.934998h-41.410003v-130.38861h-26.333001v153.323608zm16.070008-38.649002c0 26.332001 15.289993 40.772995 40.347992 40.772995 25.057998 0 40.347991-14.440994 40.347991-40.772995v-114.674606h-26.331985v115.735611c0 11.255004-4.460007 16.776992-14.016006 16.776992-9.556 0-14.016007-5.521988-14.016007-16.776992v-115.735611h-26.331985zm96.41098 38.649002h25.90802l18.263-55.850998h.424988l17.838013 55.850998h25.907989l-29.730987-80.271896 26.544983-73.051712h-25.90799l-14.652008 48.63031h-.424988l-16.140014-48.63031h-25.906983l28.030976 73.051712zm177.604004 0v-22.934998h-47.143982v-45.020004h33.977997v-22.934891h-33.977997v-39.498901h44.17099v-22.934814h-70.502991v153.323608zm93.934021-118.284302c-2.335999-21.660705-15.077027-37.162903-36.526001-37.162903-25.90802 0-40.773011 13.803406-40.773011 38.224701 0 43.958496 53.515015 52.028504 53.515015 82.395508 0 9.130997-6.158996 14.015991-15.290039 14.015991-8.493988 0-14.652985-7.644989-15.714966-23.146988l-25.058014 3.609986c1.062012 22.935013 15.078003 42.472 39.498993 42.472 24.634033 0 41.62201-14.015991 41.62201-39.286987 0-41.622406-53.514008-54.151612-53.514008-80.271805 0-9.556198 4.671997-15.077606 13.165985-15.077606 5.946045 0 12.954041 3.822509 14.016052 16.9888z"/><path d="m609.796021 48h2.721008c.271972 0 .465942-.194397.465942-.466492v-24.606109h7.775025c.272033 0 .466003-.194306.466003-.4664v-2.449006c0-.272094-.19397-.466491-.466003-.466491h-19.164002c-.271973 0-.46698.194397-.46698.466491v2.449006c0 .272094.195007.4664.46698.4664h7.734985v24.606109c0 .272095.195008.466492.467042.466492zm16.333984 0h2.565002c.271973 0 .46698-.194397.46698-.466492v-14.343811c.971985-2.33229 2.993042-3.809494 5.24701-3.809494 2.333007 0 4.043029 1.554901 4.043029 4.586899v13.566406c0 .272095.194947.466492.46698.466492h2.604004c.271973 0 .46698-.194397.46698-.466492v-13.566406c0-4.859009-2.60498-7.735504-6.685974-7.735504-2.56604 0-4.70404 1.166107-6.142029 3.22641v-10.495514c0-.272095-.195007-.466492-.46698-.466492h-2.565002c-.272034 0-.46698.194397-.46698.466492v28.571014c0 .272095.194946.466492.46698.466492zm30.356018.427597c4.08197 0 6.763977-1.710403 7.852966-4.858993.077027-.272095 0-.427613-.310974-.544205l-2.216003-.738602c-.272034-.116592-.466004 0-.583008.272095-.778015 1.904709-2.371033 2.87651-4.742981 2.87651-3.304016 0-5.286011-1.943603-5.286011-5.364303v-1.593796h12.867005c.271972 0 .466003-.194412.466003-.466507v-3.342987c0-5.325516-3.110046-8.435211-8.356995-8.435211-5.287048 0-8.358032 3.109695-8.358032 8.435211v5.40329c0 5.286606 3.343018 8.357498 8.66803 8.357498zm-5.286011-12.439102v-1.515991c0-3.3042 1.787964-5.286606 5.052979-5.286606 3.226989 0 5.015014 1.982406 5.015014 5.286606v1.515991zm30.81897 12.011505h14.889038c.271973 0 .466003-.194397.466003-.466492v-2.371216c0-.272094-.19403-.4664-.466003-.4664h-11.70105v-9.562591h10.573059c.271973 0 .46698-.194397.46698-.466492v-2.293411c0-.272095-.195007-.466492-.46698-.466492h-10.573059v-9.057205h11.70105c.271973 0 .466003-.194397.466003-.466507v-2.371201c0-.272094-.19403-.466491-.466003-.466491h-14.889038c-.271973 0-.466003.194397-.466003.466491v27.521515c0 .272095.19403.466492.466003.466492zm36.789001-21.340805h-2.565002c-.271973 0-.46698.194305-.46698.4664v14.343903c-.971008 2.332306-2.992981 3.809402-5.247009 3.809402-2.333008 0-4.042969-1.554809-4.042969-4.586899v-13.566406c0-.272095-.195007-.4664-.467041-.4664h-2.604004c-.271973 0-.46698.194305-.46698.4664v13.566406c0 4.859101 2.604981 7.735596 6.687012 7.735596 2.643005 0 4.781006-1.166199 6.218994-3.265305v2.371216c0 .272095.19397.466492.46698.466492h2.486999c.272034 0 .467041-.194397.467041-.466492v-20.407913c0-.272095-.195007-.4664-.467041-.4664zm7.539002 21.340805h2.56604c.271973 0 .466003-.194397.466003-.466492v-13.838501c1.126953-2.6044 3.264954-3.926101 6.569947-3.926101.311035 0 .466003-.194306.466003-.466401v-2.449005c0-.272094-.154968-.4664-.466003-.4664-3.381958 0-5.442994 1.710297-6.64795 3.809403v-3.070908c0-.272095-.19403-.4664-.466003-.4664h-2.488037c-.271973 0-.466004.194305-.466004.4664v20.407913c0 .272095.194031.466492.466004.466492zm21.776001.427597c5.442016 0 8.629028-3.070892 8.629028-8.357498v-5.40329c0-5.325516-3.187012-8.435211-8.629028-8.435211-5.403015 0-8.591004 3.109695-8.591004 8.435211v5.40329c0 5.286606 3.187989 8.357498 8.591004 8.357498zm-5.09198-8.357498v-5.40329c0-3.381805 1.826965-5.286606 5.09198-5.286606 3.304016 0 5.131042 1.904801 5.131042 5.286606v5.40329c0 3.343002-1.827026 5.208801-5.131042 5.208801-3.265015 0-5.09198-1.865799-5.09198-5.208801zm20.175964 15.7043h2.56604c.271973 0 .466004-.19429.466004-.4664v-10.067902c1.204956 1.943604 3.265991 3.1875 6.141967 3.1875 4.66504 0 7.502991-3.109802 7.502991-8.357498v-5.364395c0-5.286606-2.79895-8.474106-7.424988-8.474106-2.992981 0-5.208984 1.399399-6.296997 3.304108v-2.410111c0-.272095-.195007-.4664-.46698-.4664h-2.488037c-.271972 0-.465942.194305-.465942.4664v28.182404c0 .27211.19397.4664.465942.4664zm3.032044-15.743195v-5.286606c0-3.226394 2.177002-5.364395 5.325988-5.364395 2.875977 0 4.781006 1.788101 4.781006 5.325501v5.364395c0 3.459595-1.942993 5.208801-4.781006 5.208801-2.877014 0-5.325988-1.788101-5.325988-5.247696zm27.666992 8.396393c4.080994 0 6.763977-1.710403 7.85199-4.858993.078003-.272095 0-.427613-.310975-.544205l-2.216003-.738602c-.272034-.116592-.466003 0-.583008.272095-.777038 1.904709-2.371032 2.87651-4.742004 2.87651-3.304016 0-5.286987-1.943603-5.286987-5.364303v-1.593796h12.867004c.271973 0 .466003-.194412.466003-.466507v-3.342987c0-5.325516-3.109008-8.435211-8.357055-8.435211-5.286988 0-8.357971 3.109695-8.357971 8.435211v5.40329c0 5.286606 3.343017 8.357498 8.669006 8.357498zm-5.286987-12.439102v-1.515991c0-3.3042 1.787963-5.286606 5.053955-5.286606 3.226013 0 5.014038 1.982406 5.014038 5.286606v1.515991zm31.349975 12.011505h2.410034c.271973 0 .465943-.194397.465943-.466492v-14.615905c0-4.509202-2.836975-6.686005-7.618958-6.686005-4.470032 0-6.997009 1.982407-7.812988 4.897903-.078003.272095.078003.4664.349975.544205l2.448975.660797c.272034.077698.466004-.03891.544006-.311004.661011-1.904694 1.90503-2.876496 4.393006-2.876496 2.837036 0 4.236999 1.243897 4.236999 3.848297v2.682205h-3.809997c-6.102967 0-9.018006 2.44899-9.018006 6.413895 0 3.809509 2.565003 6.336197 6.453003 6.336197 2.876038 0 5.131043-1.399399 6.491028-3.653992v2.759903c0 .272095.195007.466492.46698.466492zm-10.028992-6.102905c0-2.526703 1.981995-3.809494 5.635987-3.809494h3.809997v3.4207c-1.010986 2.449005-2.916015 4.003906-5.442016 4.003906-2.565979 0-4.003968-1.477203-4.003968-3.615112zm19.812989 6.102905h2.565979c.272033 0 .466003-.194397.466003-.466492v-14.343811c.972046-2.33229 2.993042-3.809494 5.248047-3.809494 2.33197 0 4.042969 1.554901 4.042969 4.586899v13.566406c0 .272095.194031.466492.466003.466492h2.604981c.272033 0 .466003-.194397.466003-.466492v-13.566406c0-4.859009-2.604004-7.735504-6.685974-7.735504-2.643005 0-4.781006 1.166107-6.218994 3.265198v-2.371201c0-.272095-.195008-.4664-.46698-.4664h-2.488037c-.271973 0-.466004.194305-.466004.4664v20.407913c0 .272095.194031.466492.466004.466492zm-216.692017 40.427597c6.335999 0 9.990051-3.809494 9.990051-10.029007v-5.014587c0-.272095-.19403-.4664-.466003-.4664h-8.552002c-.272034 0-.467041.194305-.467041.4664v2.254608c0 .272095.195007.466492.467041.466492h5.519959v2.293487c0 4.470306-2.333008 6.64711-6.453003 6.64711-4.120972 0-6.453003-2.176804-6.453003-6.64711v-9.251587c0-4.470306 2.332031-6.647201 6.414001-6.647201 3.499024 0 5.092041 1.593795 6.064026 4.237106.117004.272095.310974.388702.583008.310989l2.487976-.777496c.272034-.077698.389038-.310898.311035-.582993-1.322021-4.120513-4.354004-6.569503-9.485046-6.569503-5.985962 0-10.028992 3.381897-10.028992 9.951294v9.407104c0 6.297287 3.770996 9.951294 10.067993 9.951294zm16.485047-.427597h2.565979c.271972 0 .466003-.194397.466003-.466492v-13.838501c1.127991-2.6044 3.265991-3.926117 6.570007-3.926117.310974 0 .466004-.19429.466004-.4664v-2.44899c0-.27211-.15503-.4664-.466004-.4664-3.382019 0-5.442016 1.710297-6.647033 3.809403v-3.070893c0-.27211-.194947-.4664-.46698-.4664h-2.487976c-.272034 0-.466004.19429-.466004.4664v20.407898c0 .272095.19397.466492.466004.466492zm21.854003.427597c4.080994 0 6.763001-1.710403 7.85199-4.858993.078003-.272095 0-.427613-.311035-.544205l-2.216003-.738602c-.271973-.116608-.466004 0-.582947.272095-.777039 1.904709-2.371033 2.87651-4.742005 2.87651-3.304016 0-5.287048-1.943603-5.287048-5.364303v-1.593796h12.867004c.272034 0 .466004-.194412.466004-.466507v-3.342987c0-5.3255-3.109985-8.435211-8.356995-8.435211-5.286987 0-8.357971 3.109711-8.357971 8.435211v5.40329c0 5.28659 3.342957 8.357498 8.669006 8.357498zm-5.287048-12.439102v-1.515991c0-3.3042 1.788025-5.286606 5.05304-5.286606 3.226989 0 5.015014 1.982406 5.015014 5.286606v1.515991zm27.190003 12.439102c4.082031 0 6.764038-1.710403 7.85205-4.858993.077942-.272095 0-.427613-.311035-.544205l-2.214966-.738602c-.272033-.116608-.467041 0-.583007.272095-.778016 1.904709-2.37201 2.87651-4.743042 2.87651-3.303956 0-5.28595-1.943603-5.28595-5.364303v-1.593796h12.865967c.272033 0 .46698-.194412.46698-.466507v-3.342987c0-5.3255-3.109986-8.435211-8.357972-8.435211-5.28601 0-8.356994 3.109711-8.356994 8.435211v5.40329c0 5.28659 3.343017 8.357498 8.667969 8.357498zm-5.28595-12.439102v-1.515991c0-3.3042 1.787964-5.286606 5.052978-5.286606 3.226014 0 5.015015 1.982406 5.015015 5.286606v1.515991zm19.609985 12.011505h2.565003c.271972 0 .46698-.194397.46698-.466492v-14.343811c.971984-2.332306 2.992981-3.809494 5.247985-3.809494 2.332032 0 4.041993 1.554886 4.041993 4.586899v13.566406c0 .272095.195007.466492.467041.466492h2.604004c.271972 0 .46698-.194397.46698-.466492v-13.566406c0-4.859009-2.604981-7.735504-6.685975-7.735504-2.644043 0-4.782043 1.166107-6.220031 3.265198v-2.371186c0-.27211-.19397-.4664-.466004-.4664h-2.487976c-.272034 0-.467041.19429-.467041.4664v20.407898c0 .272095.195007.466492.467041.466492zm22.776001 0h2.565979c.272034 0 .466004-.194397.466004-.466492v-14.343811c.971984-2.332306 2.994018-3.809494 5.247985-3.809494 2.333008 0 4.04303 1.554886 4.04303 4.586899v13.566406c0 .272095.19397.466492.466004.466492h2.60498c.271973 0 .466003-.194397.466003-.466492v-13.566406c0-4.859009-2.604003-7.735504-6.685974-7.735504-2.565002 0-4.703003 1.166107-6.142028 3.22641v-10.495514c0-.272095-.19397-.466492-.466004-.466492h-2.565979c-.272034 0-.466003.194397-.466003.466492v28.571014c0 .272095.193969.466492.466003.466492zm30.278992.427597c5.442993 0 8.630005-3.070908 8.630005-8.357498v-5.40329c0-5.3255-3.187012-8.435211-8.630005-8.435211-5.403015 0-8.590027 3.109711-8.590027 8.435211v5.40329c0 5.28659 3.187012 8.357498 8.590027 8.357498zm-5.09198-8.357498v-5.40329c0-3.381805 1.826965-5.286606 5.09198-5.286606 3.304993 0 5.132019 1.904801 5.132019 5.286606v5.40329c0 3.343002-1.827026 5.208801-5.132019 5.208801-3.265015 0-5.09198-1.865799-5.09198-5.208801zm35.414978-13.410889h-2.565979c-.272034 0-.466004.19429-.466004.4664v14.343888c-.972045 2.332306-2.993042 3.809402-5.248046 3.809402-2.331971 0-4.042969-1.554809-4.042969-4.586899v-13.566391c0-.27211-.194031-.4664-.466004-.4664h-2.604003c-.273011 0-.46698.19429-.46698.4664v13.566391c0 4.859101 2.604003 7.735596 6.685974 7.735596 2.643005 0 4.781006-1.166199 6.220031-3.265305v2.371216c0 .272095.19397.466492.466004.466492h2.487976c.271973 0 .466003-.194397.466003-.466492v-20.407898c0-.27211-.19403-.4664-.466003-.4664zm13.835998 21.768387c4.742005 0 7.890992-2.526688 7.890992-6.258408 0-3.459686-2.059998-5.131195-6.763977-6.491699-3.887024-1.127289-5.24701-1.671493-5.24701-3.653991 0-1.788102 1.554016-2.915406 4.158997-2.915406 2.526977 0 4.003967 1.010712 4.664978 3.070908.077026.310989.311035.427597.583008.310989l2.059997-.738586c.272034-.077698.389038-.311005.311035-.5831-.894043-3.10971-3.770996-4.936706-7.697021-4.936706-4.392029 0-7.502014 2.332306-7.502014 5.986298 0 3.537414 2.215027 4.936798 6.257995 6.141815 4.587037 1.321594 5.752991 1.982483 5.752991 3.964996 0 1.943604-1.787964 3.265198-4.469971 3.265198-2.643005 0-4.625976-1.243897-5.247985-3.381897-.078003-.310913-.311036-.427612-.583008-.310913l-2.020996.894012c-.233033.116593-.350037.31099-.272034.5831.894043 3.1875 3.926025 5.05339 8.124023 5.05339zm21.325989 0c4.082031 0 6.764038-1.710403 7.85199-4.858993.078003-.272095 0-.427613-.310974-.544205l-2.215027-.738602c-.271973-.116608-.46698 0-.583008.272095-.777954 1.904709-2.371948 2.87651-4.742981 2.87651-3.304016 0-5.286011-1.943603-5.286011-5.364303v-1.593796h12.866028c.271973 0 .46698-.194412.46698-.466507v-3.342987c0-5.3255-3.109985-8.435211-8.357971-8.435211-5.286011 0-8.356995 3.109711-8.356995 8.435211v5.40329c0 5.28659 3.342957 8.357498 8.667969 8.357498zm-5.286011-12.439102v-1.515991c0-3.3042 1.788025-5.286606 5.05304-5.286606 3.225952 0 5.014954 1.982406 5.014954 5.286606v1.515991zm39.643006 12.439102c6.335998 0 9.98999-3.809494 9.98999-10.029007v-5.014587c0-.272095-.19397-.4664-.466003-.4664h-8.552002c-.271973 0-.465943.194305-.465943.4664v2.254608c0 .272095.19397.466492.465943.466492h5.520019v2.293487c0 4.470306-2.33197 6.64711-6.453003 6.64711-4.119995 0-6.453003-2.176804-6.453003-6.64711v-9.251587c0-4.470306 2.333008-6.647201 6.414002-6.647201 3.499023 0 5.092041 1.593795 6.064026 4.237106.117004.272095.310974.388702.583008.310989l2.487976-.777496c.272033-.077698.388977-.310898.310974-.582993-1.320984-4.120513-4.353943-6.569503-9.484986-6.569503-5.985962 0-10.028991 3.381897-10.028991 9.951294v9.407104c0 6.297287 3.770996 9.951294 10.067993 9.951294zm28.225036-.427597h2.409974c.272033 0 .466003-.194397.466003-.466492v-14.615905c0-4.509202-2.836975-6.686005-7.619019-6.686005-4.46997 0-6.997009 1.982391-7.812988 4.897903-.078003.27211.078003.4664.350037.544205l2.448974.660797c.271973.077698.466004-.03891.544007-.311004.66101-1.904694 1.904968-2.876496 4.393005-2.876496 2.836975 0 4.237 1.243897 4.237 3.848297v2.68219h-3.809998c-6.103027 0-9.018005 2.449005-9.018005 6.41391 0 3.809509 2.565002 6.336197 6.453003 6.336197 2.875976 0 5.130981-1.399399 6.490966-3.654007v2.759918c0 .272095.195008.466492.467041.466492zm-10.029052-6.102905c0-2.526703 1.982055-3.809494 5.636047-3.809494h3.809998v3.4207c-1.010987 2.449005-2.916016 4.003906-5.442017 4.003906-2.565979 0-4.004028-1.477203-4.004028-3.615112zm26.111023 6.530502c4.742004 0 7.890991-2.526688 7.890991-6.258408 0-3.459686-2.060974-5.131195-6.763977-6.491699-3.887024-1.127289-5.247986-1.671493-5.247986-3.653991 0-1.788102 1.554993-2.915406 4.159973-2.915406 2.526001 0 4.002991 1.010712 4.664002 3.070908.078003.310989.310974.427597.583007.310989l2.059998-.738586c.27301-.077698.388977-.311005.310974-.5831-.893982-3.10971-3.769958-4.936706-7.695984-4.936706-4.393005 0-7.502991 2.332306-7.502991 5.986298 0 3.537414 2.216004 4.936798 6.258973 6.141815 4.587036 1.321594 5.753051 1.982483 5.753051 3.964996 0 1.943604-1.788025 3.265198-4.470031 3.265198-2.643982 0-4.625977-1.243897-5.247986-3.381897-.078003-.310913-.311035-.427612-.583008-.310913l-2.021973.894012c-.233032.116593-.348999.31099-.272033.5831.893982 3.1875 3.926025 5.05339 8.125 5.05339zm-280.593994 38.572403h9.562988c5.247009 0 8.356994-2.799011 8.356994-7.501999v-.817001c0-3.419998-1.865966-5.791992-4.89801-6.451996 2.488037-.739014 4.082031-2.994003 4.082031-6.026001v-.622009c0-4.431-2.799011-7.035492-7.65802-7.035492h-9.445983c-.271973 0-.466004.194397-.466004.466491v27.522004c0 .272003.194031.466003.466004.466003zm3.187988-3.225998v-9.757004h5.791992c3.459045 0 5.286011 1.593003 5.286011 4.587006v.621994c0 2.953995-1.787964 4.548004-5.247986 4.548004zm0-12.944992v-9.057007h5.635986c3.071045 0 4.704041 1.47699 4.704041 4.315003v.466003c0 2.681992-1.710999 4.276001-4.743042 4.276001zm36.257995-5.170013h-2.565002c-.271973 0-.46698.195007-.46698.46701v14.342987c-.971985 2.333008-2.992981 3.809998-5.247986 3.809998-2.332031 0-4.041992-1.554993-4.041992-4.586991v-13.565994c0-.272003-.195007-.46701-.467041-.46701h-2.604004c-.271973 0-.46698.195007-.46698.46701v13.565994c0 4.858994 2.604981 7.736 6.685974 7.736 2.644043 0 4.782044-1.166999 6.220032-3.265998v2.371994c0 .272003.19397.466003.466003.466003h2.487976c.272034 0 .467041-.194.467041-.466003v-20.40799c0-.272003-.195007-.46701-.467041-.46701zm7.539002 21.341003h2.56604c.271973 0 .466003-.194.466003-.466003v-28.571503c0-.272095-.19403-.466492-.466003-.466492h-2.56604c-.271973 0-.466004.194397-.466004.466492v28.571503c0 .272003.194031.466003.466004.466003zm10.098022 0h2.565003c.271972 0 .46698-.194.46698-.466003v-28.571503c0-.272095-.195008-.466492-.46698-.466492h-2.565003c-.272033 0-.46698.194397-.46698.466492v28.571503c0 .272003.194947.466003.46698.466003zm17.677002.428001c4.08197 0 6.763977-1.710991 7.852967-4.859001.077026-.27301 0-.428009-.310975-.544998l-2.216003-.737991c-.271973-.117005-.46698 0-.583008.271988-.778015 1.904998-2.370971 2.875991-4.742981 2.875991-3.304016 0-5.28601-1.942993-5.28601-5.363983v-1.594009h12.867004c.271973 0 .466003-.194.466003-.465988v-3.343018c0-5.325989-3.109985-8.434997-8.358032-8.434997-5.28595 0-8.356995 3.109008-8.356995 8.434997v5.403015c0 5.286988 3.343018 8.357994 8.66803 8.357994zm-5.28601-12.439994v-1.516007c0-3.304001 1.788024-5.285995 5.052978-5.285995 3.227051 0 5.015015 1.981994 5.015015 5.285995v1.516007zm26.223022 12.011993h2.098999c.271973 0 .466003-.194.466003-.466003v-2.216004c0-.272003-.19403-.466995-.466003-.466995h-1.593994c-1.982056 0-2.954041-.932999-2.954041-2.797989v-12.478012h4.548035c.271973 0 .466003-.194992.466003-.466995v-1.981995c0-.272003-.19403-.46701-.466003-.46701h-4.548035v-5.014008c0-.271988-.195007-.46698-.46698-.46698h-2.526001c-.272033 0-.46698.194992-.46698.46698v5.014008h-2.876037c-.271973 0-.46698.195007-.46698.46701v1.981995c0 .272003.195007.466995.46698.466995h2.876037v12.983002c0 3.421005 2.177002 5.442001 5.908997 5.442001zm7.849976 0h2.565979c.272033 0 .466003-.194.466003-.466003v-20.40799c0-.272003-.19397-.46701-.466003-.46701h-2.565979c-.271973 0-.466004.195007-.466004.46701v20.40799c0 .272003.194031.466003.466004.466003zm0-24.644989h2.565979c.272033 0 .466003-.194.466003-.466003v-3.926514c0-.272095-.19397-.466492-.466003-.466492h-2.565979c-.271973 0-.466004.194397-.466004.466492v3.926514c0 .272003.194031.466003.466004.466003zm10.098022 24.644989h2.565002c.271973 0 .46698-.194.46698-.466003v-14.343995c.971985-2.333007 2.992981-3.809997 5.247986-3.809997 2.332032 0 4.041992 1.554993 4.041992 4.587005v13.566987c0 .272003.195008.466003.467042.466003h2.604003c.271973 0 .46698-.194.46698-.466003v-13.566987c0-4.859008-2.60498-7.735015-6.685974-7.735015-2.644043 0-4.782043 1.166015-6.220031 3.265014v-2.371002c0-.272003-.19397-.46701-.466004-.46701h-2.487976c-.272034 0-.467041.195007-.467041.46701v20.40799c0 .272003.195007.466003.467041.466003z"/><path d="m600 160h584v15h-584z"/></g></svg>