<svg width="33" height="31" viewBox="0 0 33 31" fill="none" xmlns="http://www.w3.org/2000/svg">
<g clip-path="url(#clip0_220_4)">
<path d="M15.9892 8.27832C15.0507 8.27832 14.3064 9.01636 14.3064 9.94693V17.5199C14.3064 18.1296 14.6624 18.7072 15.2125 18.996L20.0019 21.531C20.2608 21.6593 20.5197 21.7235 20.7786 21.7235C21.3934 21.7235 21.9759 21.4026 22.2672 20.825C22.7202 20.0228 22.3966 18.996 21.5552 18.5467L17.6719 16.493V9.94693C17.7043 9.01636 16.9276 8.27832 15.9892 8.27832Z" fill="#00ABC9"/>
<path d="M28.422 4.53998C25.4691 1.61246 21.5442 0 17.3685 0C11.8665 0 6.79802 2.85876 3.97453 7.5059L3.36777 5.8115C3.04763 4.91702 2.056 4.44887 1.15394 4.76689C0.2513 5.08492 -0.220244 6.06763 0.100475 6.96211L2.03462 12.3616C2.28715 13.0658 2.95517 13.5059 3.66826 13.5059C3.86069 13.5059 4.05659 13.4738 4.24845 13.4062L9.69374 11.4883C10.5958 11.1709 11.0673 10.1876 10.7472 9.29312C10.4271 8.39865 9.43543 7.93107 8.53337 8.24852L7.34122 8.66854C9.59781 5.41383 13.3332 3.43808 17.3685 3.43808C24.0758 3.43808 29.5327 8.84904 29.5327 15.5C29.5327 22.151 24.0758 27.5619 17.3685 27.5619C12.5288 27.5619 8.15024 24.7192 6.21379 20.3196C5.83066 19.4492 4.80898 19.0521 3.93119 19.4314C3.0534 19.8108 2.65294 20.8244 3.03549 21.6948C5.52323 27.3476 11.1494 31 17.3679 31C21.543 31 25.4685 29.3875 28.4209 26.46C31.3732 23.5325 32.9993 19.64 32.9993 15.5C32.9993 11.36 31.3732 7.4675 28.4209 4.53998H28.422Z" fill="#00ABC9"/>
</g>
<defs>
<clipPath id="clip0_220_4">
<rect width="33" height="31" fill="white"/>
</clipPath>
</defs>
</svg>
