<svg width="32" height="38" viewBox="0 0 32 38" fill="none" xmlns="http://www.w3.org/2000/svg">
<g clip-path="url(#clip0_114_20)">
<path d="M14.3439 22.2921C14.2616 22.1327 14.1201 22.0119 13.9504 21.9562C13.707 21.8808 13.4515 21.8465 13.1969 21.855H12.386V26.0158H13.1969C13.5681 26.0509 13.9367 25.9249 14.2101 25.6704C14.4356 25.3662 14.5582 24.9976 14.5608 24.6189V23.755C14.5633 23.4602 14.5505 23.1654 14.5222 22.8723C14.499 22.6692 14.439 22.4729 14.3447 22.2913L14.3439 22.2921Z" fill="#00ABC9"/>
<path d="M7.59928 21.8371H6.59119V24.0884H7.59928C8.22333 24.0884 8.53022 23.7045 8.53022 22.9126C8.56193 22.6186 8.4865 22.3247 8.31934 22.0822C8.12647 21.8996 7.8633 21.8105 7.59928 21.8371Z" fill="#00ABC9"/>
<path d="M31.9854 11.0096H31.7454L31.9854 10.9762C31.9546 10.7362 31.8466 10.5117 31.6777 10.3377L21.6877 0.354615C21.6328 0.298054 21.5711 0.248348 21.5051 0.205498L21.4571 0.17636C21.4056 0.144651 21.3533 0.116371 21.2985 0.0898038L21.2119 0.065808C21.1673 0.0460971 21.1202 0.0323852 21.073 0.0229583C20.9959 0.00753235 20.917 -0.000180603 20.8381 -0.0010376H4.80471C4.14208 -0.0010376 3.60461 0.536298 3.60461 1.19875V16.7395H1.20011C0.537477 16.7395 0 17.2768 0 17.9393V29.9038C0 30.2217 0.126868 30.5268 0.35146 30.7522C0.576051 30.9767 0.882079 31.1036 1.20011 31.1036H3.60546V36.7992C3.60546 37.1171 3.73233 37.4222 3.95692 37.6476C4.18152 37.873 4.48754 37.999 4.80557 37.999H30.7999C31.1179 37.999 31.4231 37.873 31.6485 37.6476C31.8731 37.4231 32 37.118 32 36.7992V11.1725C32 11.1176 31.9949 11.0628 31.9854 11.0096ZM5.06531 27.3654V20.512H7.60954C9.24683 20.512 10.0723 21.3227 10.0723 22.9116C10.116 23.5895 9.8906 24.2571 9.44313 24.7687C8.94851 25.2297 8.28417 25.4637 7.60954 25.4166H6.59116V27.3645H5.06531V27.3654ZM10.8593 27.3654V20.512H13.1969C13.6838 20.5 14.169 20.5634 14.637 20.6988C15.0005 20.8059 15.3202 21.0262 15.5491 21.3278C15.7703 21.6295 15.9246 21.9749 16.0009 22.3408C16.0909 22.831 16.1312 23.3298 16.1209 23.8286C16.1269 24.3368 16.0874 24.8441 16.0009 25.3454C15.934 25.7337 15.7926 26.1056 15.5834 26.4398C15.3639 26.768 15.0433 27.0174 14.6713 27.1503C14.1913 27.308 13.6881 27.3817 13.1832 27.3662H10.8593V27.3654ZM21.0645 23.6554V25.0035H18.6642V27.3645H17.1384V20.5111H21.5788V21.8549H18.6642V23.6546H21.0645V23.6554Z" fill="#00ABC9"/>
<path d="M29.5998 35.6004H6.00574V31.1046H25.438C25.7561 31.1046 26.0612 30.9786 26.2867 30.7532C26.5113 30.5278 26.6382 30.2227 26.6382 29.9048V17.9403C26.6382 17.6224 26.5113 17.3173 26.2867 17.0919C26.0621 16.8673 25.7561 16.7405 25.438 16.7405H6.00488V2.41412H19.6381V11.1195C19.6407 11.7794 20.1739 12.3141 20.8331 12.3193L29.599 12.3673V35.6004H29.5998Z" fill="#CCEEF3"/>
<path d="M22.0391 4.11359L27.8862 9.95401L22.0391 9.92487V4.11359Z" fill="#CCEEF3"/>
</g>
<defs>
<clipPath id="clip0_114_20">
<rect width="32" height="38" fill="white"/>
</clipPath>
</defs>
</svg>
