<?xml version="1.0" encoding="UTF-8" standalone="no"?>
<!DOCTYPE svg PUBLIC "-//W3C//DTD SVG 1.1//EN" "http://www.w3.org/Graphics/SVG/1.1/DTD/svg11.dtd">
<svg width="100%" height="100%" viewBox="0 0 1280 411" version="1.1" xmlns="http://www.w3.org/2000/svg" xmlns:xlink="http://www.w3.org/1999/xlink" xml:space="preserve" xmlns:serif="http://www.serif.com/" style="fill-rule:evenodd;clip-rule:evenodd;stroke-linejoin:round;stroke-miterlimit:2;">
    <path d="M518.306,-137.723L517.626,-138.456L517.601,-138.433L517.578,-138.408L518.306,-137.723ZM468.007,-137.723L468.824,-138.299L468.007,-137.723ZM286.76,-142.925L286.206,-143.757L286.76,-142.925ZM19.659,85.152L20.426,85.795L19.659,85.152ZM-64.46,186.616L-63.561,187.053L-64.46,186.616ZM121.123,-144.659L120.718,-145.573L121.123,-144.659ZM517.578,-138.408C514.144,-134.76 509.982,-131.296 505.614,-127.324C501.274,-123.379 496.797,-118.989 492.889,-113.594C485.041,-102.761 479.565,-87.99 481.754,-64.783L483.746,-64.971C481.599,-87.726 486.963,-102.006 494.508,-112.42C498.296,-117.649 502.654,-121.931 506.959,-125.844C511.236,-129.732 515.53,-133.314 519.034,-137.037L517.578,-138.408ZM481.754,-64.783C483.882,-42.226 470.459,-18 452.944,2.109C435.45,22.195 414.105,37.909 400.846,43.469L401.619,45.314C415.243,39.601 436.825,23.662 454.453,3.422C472.06,-16.794 485.954,-41.565 483.746,-64.971L481.754,-64.783ZM400.846,43.469C387.453,49.086 378.695,51.202 371.609,51.414C364.534,51.625 359.046,49.944 352.1,47.773L351.503,49.682C358.432,51.847 364.217,53.635 371.669,53.413C379.108,53.191 388.128,50.971 401.619,45.314L400.846,43.469ZM352.1,47.773C348.76,46.73 345.44,44.84 341.774,42.64C338.136,40.457 334.179,37.984 329.674,35.896C320.606,31.694 309.315,29.05 293.456,33.015L293.941,34.955C309.3,31.115 320.124,33.675 328.833,37.711C333.218,39.743 337.065,42.147 340.745,44.355C344.396,46.545 347.905,48.558 351.503,49.682L352.1,47.773ZM293.456,33.015C262.306,40.803 239.84,43.392 216.516,43.392L216.516,45.392C240.022,45.392 262.651,42.778 293.941,34.955L293.456,33.015ZM216.516,43.392C204.462,43.392 189.928,50.941 176.883,60.942C163.801,70.972 152.004,83.632 145.424,94.16L147.12,95.22C153.548,84.935 165.166,72.446 178.1,62.53C191.072,52.585 205.156,45.392 216.516,45.392L216.516,43.392ZM145.424,94.16C138.796,104.765 135.959,119.272 133.901,133.243C132.865,140.279 132.033,147.132 131.017,153.433C130.002,159.721 128.823,165.328 127.126,169.781L128.995,170.493C130.768,165.84 131.973,160.066 132.991,153.752C134.007,147.451 134.856,140.483 135.879,133.535C137.941,119.539 140.74,105.428 147.12,95.22L145.424,94.16ZM127.126,169.781C123.609,179.015 122.02,189.477 125.935,199.656C129.855,209.848 139.211,219.549 157.144,227.422L157.948,225.59C140.325,217.853 131.47,208.475 127.802,198.938C124.129,189.389 125.575,179.471 128.995,170.493L127.126,169.781ZM157.144,227.422C175.035,235.276 202.45,241.797 227.28,246.459C252.121,251.123 274.501,253.951 282.369,254.388L282.48,252.391C274.738,251.961 252.457,249.152 227.649,244.493C202.832,239.833 175.613,233.346 157.948,225.59L157.144,227.422ZM282.369,254.388C290.145,254.82 311.696,256.548 331.923,264.51C352.159,272.475 370.808,286.561 373.354,311.594L375.344,311.391C372.686,285.259 353.178,270.727 332.655,262.649C312.123,254.567 290.313,252.826 282.48,252.391L282.369,254.388ZM373.354,311.594C375.953,337.149 378.342,366.678 382.683,395.328C387.023,423.975 393.328,451.841 403.796,474.087L405.606,473.235C395.262,451.254 388.992,423.618 384.66,395.029C380.329,366.443 377.948,337.002 375.344,311.391L373.354,311.594ZM403.796,474.087C414.235,496.27 429.48,517.84 441.25,536.844C447.152,546.374 452.18,555.254 455.357,563.297C458.539,571.354 459.81,578.438 458.363,584.43L460.308,584.899C461.897,578.316 460.457,570.766 457.217,562.562C453.971,554.345 448.863,545.339 442.95,535.791C431.088,516.638 415.98,495.28 405.606,473.235L403.796,474.087ZM458.363,584.43C455.348,596.923 451.081,606.644 442.656,613.595C434.218,620.556 421.456,624.865 401.169,626.16L401.296,628.156C421.768,626.849 435.022,622.485 443.929,615.138C452.848,607.779 457.253,597.554 460.308,584.899L458.363,584.43ZM401.169,626.16C360.457,628.758 315.819,624.385 287.532,590.098L285.989,591.371C314.938,626.461 360.49,630.76 401.296,628.156L401.169,626.16ZM287.532,590.098C273.26,572.8 265.114,559.692 260.508,544.696C255.894,529.675 254.806,512.679 254.806,487.537L252.806,487.537C252.806,512.693 253.887,529.952 258.596,545.283C263.312,560.638 271.643,573.981 285.989,591.371L287.532,590.098ZM254.806,487.537C254.806,437.164 245.262,385.512 197.096,355.737L196.045,357.438C243.272,386.633 252.806,437.312 252.806,487.537L254.806,487.537ZM197.096,355.737C173.158,340.939 152.049,332.889 132.093,325.514C112.129,318.136 93.366,311.448 73.955,299.37L72.898,301.068C92.512,313.272 111.472,320.026 131.4,327.39C151.336,334.758 172.286,342.751 196.045,357.438L197.096,355.737ZM73.955,299.37C54.509,287.27 38.109,273.67 26.258,260.419C14.383,247.14 7.174,234.321 5.91,223.785L3.924,224.024C5.261,235.168 12.795,248.365 24.768,261.753C36.766,275.169 53.32,288.886 72.898,301.068L73.955,299.37ZM5.91,223.785C4.642,213.223 7.369,206.709 10.473,200.503C13.59,194.269 17.191,188.195 17.191,178.809L15.191,178.809C15.191,187.635 11.854,193.268 8.684,199.609C5.5,205.977 2.59,212.906 3.924,224.024L5.91,223.785ZM17.191,178.809C17.191,160.251 11.17,147.796 23.976,127.307L22.28,126.247C9.07,147.384 15.191,160.945 15.191,178.809L17.191,178.809ZM23.976,127.307C30.454,116.943 42.787,99.847 55.028,84.139C61.146,76.289 67.232,68.797 72.542,62.676C77.87,56.535 82.367,51.833 85.318,49.514L84.082,47.941C80.963,50.392 76.354,55.229 71.032,61.365C65.691,67.521 59.582,75.042 53.451,82.91C41.193,98.639 28.811,115.798 22.28,126.247L23.976,127.307ZM85.318,49.514C97.6,39.864 103.776,30.18 107.309,21.348L105.452,20.606C102.047,29.118 96.082,38.513 84.082,47.941L85.318,49.514ZM107.309,21.348C108.184,19.162 109.037,16.172 110.09,13.134C111.164,10.032 112.491,6.721 114.389,3.612C118.155,-2.561 124.189,-7.989 135.113,-9.249L134.884,-11.236C123.26,-9.895 116.72,-4.049 112.681,2.57C110.676,5.856 109.294,9.32 108.2,12.479C107.084,15.7 106.312,18.456 105.452,20.606L107.309,21.348ZM135.113,-9.249C146.347,-10.545 155.605,-11.639 163.349,-14.847C171.167,-18.086 177.403,-23.458 182.706,-33.179L180.95,-34.136C175.846,-24.779 169.941,-19.743 162.583,-16.695C155.15,-13.616 146.197,-12.541 134.884,-11.236L135.113,-9.249ZM182.706,-33.179C187.957,-42.806 192.442,-52.649 198.567,-60.921C204.649,-69.138 212.276,-75.688 223.705,-78.652L223.203,-80.588C211.217,-77.48 203.235,-70.589 196.959,-62.112C190.725,-53.691 186.105,-43.588 180.95,-34.136L182.706,-33.179ZM223.705,-78.652C235.391,-81.681 253.359,-85.578 269.851,-89.267C286.283,-92.943 301.34,-96.43 307.065,-98.632L306.347,-100.499C300.798,-98.364 285.937,-94.914 269.415,-91.219C252.953,-87.537 234.932,-83.628 223.203,-80.587L223.705,-78.652ZM307.065,-98.632C318.151,-102.896 330.094,-103.752 342.052,-101.189L342.471,-103.145C330.148,-105.786 317.809,-104.907 306.347,-100.499L307.065,-98.632ZM342.052,-101.189C348.115,-99.89 353.764,-98.961 359.236,-100.557C364.755,-102.166 369.915,-106.282 375.194,-114.641L373.503,-115.709C368.376,-107.591 363.563,-103.902 358.676,-102.477C353.741,-101.037 348.55,-101.842 342.471,-103.145L342.052,-101.189ZM375.194,-114.641C380.392,-122.871 387.734,-134.099 396.579,-144.669C405.434,-155.252 415.736,-165.103 426.829,-170.649L425.934,-172.438C414.48,-166.711 403.968,-156.616 395.045,-145.953C386.112,-135.276 378.712,-123.957 373.503,-115.709L375.194,-114.641ZM426.829,-170.649C438.132,-176.301 452.128,-183.62 466.866,-187.708C481.591,-191.792 496.914,-192.608 510.91,-185.398L511.826,-187.175C497.205,-194.708 481.307,-193.789 466.331,-189.635C451.366,-185.484 437.178,-178.06 425.934,-172.438L426.829,-170.649ZM510.91,-185.398C524.969,-178.155 529.437,-169.146 529.133,-160.74C528.824,-152.212 523.598,-143.99 517.626,-138.456L518.985,-136.989C525.182,-142.731 530.797,-151.419 531.132,-160.668C531.471,-170.04 526.385,-179.675 511.826,-187.175L510.91,-185.398ZM468.824,-138.299C466.403,-141.729 462.661,-143.015 458.292,-142.779C453.96,-142.544 448.911,-140.818 443.599,-138.126C432.96,-132.733 420.951,-123.299 410.932,-113.279L412.346,-111.865C422.272,-121.792 434.112,-131.075 444.503,-136.342C449.706,-138.979 454.467,-140.569 458.4,-140.782C462.297,-140.993 465.276,-139.858 467.191,-137.146L468.824,-138.299ZM410.932,-113.279C405.888,-108.236 401.19,-102.168 396.606,-95.943C392.006,-89.697 387.535,-83.312 382.892,-77.535C373.572,-65.939 363.865,-57.204 351.801,-57.204L351.801,-55.204C364.887,-55.204 375.126,-64.68 384.451,-76.282C389.13,-82.103 393.656,-88.564 398.216,-94.757C402.792,-100.971 407.416,-106.935 412.346,-111.865L410.932,-113.279ZM351.801,-57.204C345.577,-57.204 340.426,-57.793 335.438,-58.362C330.457,-58.931 325.624,-59.481 320.128,-59.371C309.104,-59.151 295.524,-56.279 272.473,-45.841L273.298,-44.019C296.208,-54.393 309.512,-57.159 320.168,-57.372C325.512,-57.479 330.219,-56.945 335.211,-56.375C340.196,-55.806 345.451,-55.204 351.801,-55.204L351.801,-57.204ZM272.473,-45.841C249.456,-35.418 233.168,-26.514 220.913,-19.79C208.608,-13.038 200.507,-8.571 193.726,-6.875L194.211,-4.935C201.306,-6.709 209.682,-11.347 221.875,-18.037C234.119,-24.754 250.352,-33.628 273.298,-44.019L272.473,-45.841ZM193.726,-6.875C190.291,-6.017 186.041,-5.209 181.342,-4.313C176.656,-3.419 171.542,-2.439 166.424,-1.242C156.221,1.147 145.852,4.435 138.734,9.772L139.934,11.372C146.693,6.304 156.703,3.088 166.88,0.706C171.951,-0.481 177.027,-1.453 181.717,-2.348C186.395,-3.241 190.709,-4.059 194.211,-4.935L193.726,-6.875ZM138.734,9.772C131.475,15.216 128.813,24.468 126.551,33.082C125.406,37.447 124.366,41.656 122.917,45.326C121.47,48.99 119.658,51.997 117.044,54.007L118.264,55.592C121.288,53.266 123.27,49.877 124.777,46.061C126.281,42.251 127.355,37.896 128.486,33.59C130.778,24.859 133.319,16.333 139.934,11.372L138.734,9.772ZM117.044,54.007C111.437,58.32 102.066,65.077 92.71,73.346C83.358,81.61 73.932,91.459 68.211,102.02L69.97,102.972C75.523,92.72 84.742,83.057 94.035,74.844C103.323,66.636 112.597,59.951 118.264,55.592L117.044,54.007ZM68.211,102.02C62.496,112.572 60.692,122.544 61.813,130.388C62.932,138.222 67.009,144.061 73.132,145.945L73.721,144.034C68.571,142.449 64.842,137.448 63.793,130.105C62.746,122.774 64.411,113.234 69.97,102.972L68.211,102.02ZM73.132,145.945C76.352,146.936 80.186,145.847 84.112,143.684C88.079,141.499 92.349,138.102 96.553,134.116C104.966,126.141 113.256,115.669 118.5,107.366L116.809,106.298C111.646,114.473 103.459,124.814 95.177,132.665C91.035,136.592 86.904,139.862 83.147,141.932C79.35,144.024 76.138,144.778 73.721,144.034L73.132,145.945ZM118.5,107.366C123.687,99.153 130.008,89.563 135.02,79.866C140.023,70.186 143.803,60.252 143.803,51.331L141.803,51.331C141.803,59.755 138.212,69.333 133.243,78.948C128.282,88.546 122.028,98.035 116.809,106.298L118.5,107.366ZM143.803,51.331C143.803,43.177 149.294,36.722 157.62,31.811C165.931,26.909 176.856,23.686 187.195,21.963L186.867,19.991C176.393,21.736 165.204,25.016 156.604,30.088C148.02,35.151 141.803,42.139 141.803,51.331L143.803,51.331ZM187.195,21.963C197.779,20.2 205.321,15.771 213.693,11.8C222.072,7.826 231.472,4.195 246.031,3.766L245.972,1.767C231.046,2.206 221.367,5.946 212.836,9.993C204.297,14.044 197.096,18.286 186.867,19.991L187.195,21.963ZM246.031,3.766C275.532,2.899 286.034,1.158 298.968,0.296L298.835,-1.7C285.752,-0.828 275.441,0.901 245.972,1.767L246.031,3.766ZM298.968,0.296C311.78,-0.558 323.76,1.997 337.525,8.019L338.327,6.187C324.341,0.068 312.039,-2.58 298.835,-1.7L298.968,0.296ZM337.525,8.019C340.92,9.504 344.246,11.671 347.878,13.817C351.469,15.94 355.308,18.006 359.568,19.127C363.852,20.254 368.542,20.422 373.83,18.79C379.103,17.164 384.918,13.765 391.495,7.846L390.157,6.36C383.725,12.148 378.158,15.362 373.241,16.879C368.34,18.391 364.033,18.234 360.077,17.193C356.099,16.146 352.458,14.201 348.895,12.096C345.373,10.014 341.869,7.737 338.327,6.187L337.525,8.019ZM391.495,7.846C417.579,-15.63 425.583,-33.225 432.365,-41.703L430.804,-42.953C423.711,-34.087 416.105,-16.994 390.157,6.36L391.495,7.846ZM432.365,-41.703C435.746,-45.929 440.211,-50.419 443.41,-56.266C446.653,-62.193 448.648,-69.561 447.319,-79.749L445.336,-79.49C446.608,-69.732 444.7,-62.79 441.656,-57.226C438.568,-51.582 434.361,-47.399 430.804,-42.953L432.365,-41.703ZM447.319,-79.749C446.033,-89.61 447.129,-94.781 449.257,-98.529C450.334,-100.427 451.703,-102.01 453.277,-103.691C454.836,-105.357 456.615,-107.138 458.382,-109.346L456.82,-110.595C455.118,-108.467 453.428,-106.779 451.817,-105.058C450.22,-103.352 448.716,-101.629 447.517,-99.516C445.092,-95.243 444.02,-89.575 445.336,-79.49L447.319,-79.749ZM458.382,-109.346C460.051,-111.433 462.149,-113.272 464.277,-115.141C466.374,-116.983 468.516,-118.866 470.106,-120.967C471.715,-123.094 472.807,-125.504 472.747,-128.408C472.687,-131.291 471.494,-134.518 468.824,-138.299L467.191,-137.146C469.724,-133.557 470.699,-130.713 470.748,-128.366C470.796,-126.04 469.937,-124.059 468.511,-122.174C467.066,-120.264 465.088,-118.515 462.957,-116.644C460.858,-114.8 458.619,-112.844 456.82,-110.595L458.382,-109.346ZM286.206,-143.757C284.107,-142.358 281.906,-139.853 279.622,-136.975C278.469,-135.522 277.273,-133.944 276.041,-132.327C274.806,-130.706 273.533,-129.042 272.214,-127.4C269.572,-124.111 266.774,-120.945 263.8,-118.447C260.823,-115.946 257.726,-114.162 254.489,-113.555L254.858,-111.589C258.559,-112.283 261.966,-114.294 265.086,-116.915C268.21,-119.539 271.103,-122.823 273.773,-126.147C275.11,-127.811 276.397,-129.494 277.632,-131.115C278.87,-132.74 280.051,-134.298 281.189,-135.732C283.485,-138.626 285.511,-140.89 287.315,-142.092L286.206,-143.757ZM254.489,-113.555C247.774,-112.296 242.336,-113.546 235.568,-114.856C228.805,-116.165 220.885,-117.487 209.464,-116.169L209.693,-114.182C220.82,-115.466 228.509,-114.186 235.188,-112.892C241.862,-111.6 247.698,-110.247 254.858,-111.589L254.489,-113.555ZM209.464,-116.169C198.048,-114.851 180.379,-109.603 161.456,-100.686C142.522,-91.763 122.259,-79.13 105.683,-62.99L107.078,-61.558C123.456,-77.505 143.519,-90.021 162.308,-98.876C181.109,-107.737 198.562,-112.897 209.693,-114.182L209.464,-116.169ZM105.683,-62.99C89.243,-46.984 75.096,-34.14 63.898,-21.529C52.677,-8.891 44.344,3.588 39.518,18.944L41.426,19.544C46.14,4.547 54.285,-7.69 65.394,-20.201C76.527,-32.739 90.564,-45.478 107.078,-61.557L105.683,-62.99ZM39.518,18.944C34.713,34.233 35.125,44.2 33.952,53.372C32.785,62.495 30.051,71.206 18.893,84.509L20.425,85.795C31.816,72.214 34.718,63.149 35.936,53.626C37.148,44.154 36.692,34.609 41.426,19.544L39.518,18.944ZM18.893,84.509C13.303,91.175 5.919,94.771 -2.457,99.159C-10.799,103.529 -19.982,108.625 -28.777,118.301L-27.297,119.646C-18.749,110.242 -9.828,105.278 -1.529,100.931C6.734,96.602 14.528,92.827 20.426,85.795L18.893,84.509ZM-28.777,118.301C-37.538,127.937 -43.008,137.353 -48.128,148.138C-50.683,153.521 -53.158,159.258 -55.904,165.523C-58.654,171.793 -61.683,178.609 -65.36,186.179L-63.561,187.053C-59.866,179.447 -56.825,172.603 -54.073,166.326C-51.318,160.043 -48.86,154.344 -46.321,148.996C-41.252,138.317 -35.881,129.088 -27.297,119.646L-28.777,118.301ZM-103.514,103.328C-96.986,98.976 -79.357,87.753 -62.25,76.446C-53.718,70.806 -45.342,65.162 -38.607,60.383C-31.914,55.634 -26.733,51.664 -24.692,49.397L-26.179,48.059C-28.04,50.127 -33.014,53.962 -39.764,58.752C-46.472,63.512 -54.827,69.142 -63.352,74.777C-80.358,86.018 -98.144,97.345 -104.624,101.664L-103.514,103.328ZM-24.692,49.397C-22.755,47.245 -20.857,45.456 -18.96,43.504C-17.083,41.573 -15.27,39.541 -13.647,37.022C-10.386,31.962 -7.97,25.065 -7.094,13.247L-9.089,13.099C-9.948,24.698 -12.301,31.242 -15.328,35.938C-16.848,38.297 -18.557,40.22 -20.394,42.11C-22.209,43.979 -24.213,45.875 -26.179,48.059L-24.692,49.397ZM-7.094,13.247C-6.223,1.488 -5.794,-4.665 -4.207,-9.954C-2.631,-15.206 0.098,-19.64 5.742,-27.888L4.092,-29.017C-1.538,-20.789 -4.446,-16.118 -6.122,-10.529C-7.788,-4.979 -8.225,1.443 -9.089,13.1L-7.094,13.247ZM5.742,-27.888C11.404,-36.164 25.235,-58.426 45.246,-82.006C65.262,-105.593 91.378,-130.392 121.528,-143.745L120.718,-145.573C90.163,-132.041 63.813,-106.976 43.721,-83.3C23.623,-59.617 9.703,-37.219 4.092,-29.017L5.742,-27.888ZM-65.36,186.179C-67.297,190.167 -70.894,194.193 -75.358,198.363C-79.821,202.531 -85.028,206.736 -90.167,211.153C-95.278,215.547 -100.29,220.128 -104.237,224.968C-108.182,229.806 -111.118,234.969 -111.988,240.536L-110.012,240.845C-109.218,235.766 -106.516,230.928 -102.687,226.232C-98.858,221.537 -93.96,217.052 -88.863,212.67C-83.793,208.311 -78.494,204.029 -73.993,199.825C-69.492,195.621 -65.666,191.388 -63.561,187.053L-65.36,186.179ZM121.528,-143.745C138.285,-151.166 163.608,-163.518 184.061,-179.124C194.287,-186.928 203.341,-195.578 209.494,-204.874C215.652,-214.177 218.937,-224.181 217.507,-234.638L215.526,-234.367C216.871,-224.529 213.804,-215.009 207.826,-205.978C201.843,-196.939 192.979,-188.445 182.847,-180.714C162.585,-165.253 137.436,-152.977 120.718,-145.573L121.528,-143.745ZM287.315,-142.092C292.097,-145.28 297.895,-146.592 304.146,-147.078C310.417,-147.567 316.986,-147.219 323.369,-147.175C329.69,-147.132 335.822,-147.387 340.962,-149.163C346.166,-150.961 350.356,-154.319 352.733,-160.391L350.87,-161.12C348.733,-155.659 345.03,-152.684 340.309,-151.053C335.524,-149.4 329.7,-149.132 323.383,-149.175C317.127,-149.219 310.374,-149.569 303.991,-149.072C297.587,-148.574 291.397,-147.216 286.206,-143.757L287.315,-142.092ZM352.733,-160.391C355.047,-166.306 356.241,-174.12 356.673,-182.827C357.105,-191.549 356.775,-201.235 356.002,-210.933C354.456,-230.327 351.131,-249.834 348.536,-261.882L346.581,-261.461C349.161,-249.482 352.47,-230.064 354.008,-210.774C354.777,-201.129 355.102,-191.534 354.675,-182.926C354.248,-174.303 353.069,-166.739 350.87,-161.12L352.733,-160.391Z" style="fill:rgb(83,147,57);fill-rule:nonzero;"/>
    <path d="M71.693,184.008L71.693,183.008L71.603,183.008L71.514,183.024L71.693,184.008ZM110.717,211.759L110.401,212.707L110.483,212.735L110.569,212.748L110.717,211.759ZM275.487,517.017L276.424,516.666L275.487,517.017ZM271.151,475.391L271.915,476.037L271.151,475.391ZM291.097,448.507L292.078,448.311L291.097,448.507ZM267.683,405.147L266.702,405.343L267.683,405.147ZM52.614,136.316L52.916,135.363L52.614,136.316ZM6.652,270.729L6.284,269.799L6.652,270.729ZM80.365,381.732L80.586,380.757L80.365,381.732ZM103.78,351.38L102.818,351.654L103.78,351.38ZM71.693,185.008C73.598,185.008 75.066,185.432 76.222,186.132C77.381,186.833 78.287,187.848 79.007,189.121C80.469,191.705 81.106,195.233 81.54,198.974C81.962,202.618 82.192,206.523 82.916,209.489C83.282,210.987 83.798,212.366 84.606,213.417C85.443,214.504 86.582,215.22 88.079,215.356L88.26,213.364C87.373,213.284 86.723,212.888 86.191,212.197C85.631,211.469 85.198,210.403 84.859,209.015C84.174,206.209 83.971,202.579 83.526,198.744C83.093,195.005 82.429,191.108 80.747,188.136C79.896,186.631 78.769,185.335 77.258,184.421C75.745,183.505 73.907,183.008 71.693,183.008L71.693,185.008ZM88.079,215.356C93.081,215.811 96.958,214.437 100.392,213.363C103.848,212.284 106.826,211.516 110.401,212.707L111.033,210.81C106.804,209.4 103.278,210.366 99.796,211.455C96.292,212.549 92.798,213.777 88.26,213.364L88.079,215.356ZM110.569,212.748C114.644,213.359 117.935,215.343 121.036,218.247C124.163,221.175 127.033,224.973 130.308,229.175C136.826,237.54 144.76,247.256 158.88,253.434L159.682,251.601C146.051,245.638 138.376,236.275 131.886,227.946C128.656,223.802 125.673,219.849 122.404,216.787C119.11,213.703 115.463,211.459 110.866,210.77L110.569,212.748ZM158.88,253.434C186.672,265.593 217.138,276.914 255.451,280.397L255.632,278.405C217.63,274.95 187.392,263.724 159.682,251.601L158.88,253.434ZM255.451,280.397C274.425,282.122 295.049,287.291 312.852,299.839C330.634,312.372 345.681,332.321 353.433,363.76L355.375,363.281C347.517,331.413 332.211,311.037 314.004,298.204C295.818,285.386 274.816,280.149 255.632,278.405L255.451,280.397ZM353.433,363.76C361.234,395.399 365.991,422.005 370.771,444.058C375.539,466.059 380.335,483.553 388.235,496.718L389.95,495.689C382.239,482.839 377.496,465.644 372.725,443.634C367.966,421.677 363.183,394.948 355.375,363.281L353.433,363.76ZM388.235,496.718C392.152,503.247 397.372,511.023 402.812,519.223C408.259,527.435 413.936,536.086 418.798,544.405C423.665,552.733 427.685,560.679 429.846,567.482C432.028,574.349 432.215,579.744 429.886,583.237L431.55,584.347C434.424,580.036 433.962,573.831 431.753,566.877C429.523,559.859 425.414,551.761 420.525,543.396C415.631,535.022 409.925,526.328 404.478,518.117C399.024,509.894 393.837,502.169 389.95,495.689L388.235,496.718ZM429.886,583.237C427.432,586.919 424.294,588.834 420.794,589.633C417.258,590.44 413.305,590.118 409.256,589.212C405.213,588.308 401.152,586.84 397.415,585.419C393.72,584.013 390.277,582.624 387.6,581.955L387.115,583.895C389.642,584.527 392.92,585.848 396.704,587.288C400.447,588.712 404.625,590.225 408.82,591.164C413.01,592.101 417.295,592.483 421.239,591.583C425.219,590.674 428.801,588.47 431.55,584.347L429.886,583.237ZM387.6,581.955C385.114,581.333 382.608,580.136 379.847,578.824C377.118,577.527 374.17,576.134 370.93,575.24C364.354,573.426 356.68,573.698 346.903,580.364L348.029,582.017C357.331,575.675 364.4,575.513 370.398,577.168C373.445,578.009 376.243,579.326 378.988,580.63C381.701,581.92 384.398,583.216 387.115,583.895L387.6,581.955ZM346.903,580.364C337.869,586.524 327.728,583.744 318.738,577.965C309.771,572.2 302.268,563.631 298.844,558.922L297.226,560.099C300.74,564.93 308.413,573.704 317.657,579.647C326.879,585.575 337.985,588.865 348.029,582.017L346.903,580.364ZM298.844,558.922C291.947,549.439 284.355,537.816 276.424,516.666L274.551,517.368C282.559,538.722 290.247,550.503 297.226,560.099L298.844,558.922ZM276.424,516.666C272.536,506.298 270.192,497.506 269.45,490.581C268.703,483.604 269.609,478.761 271.915,476.037L270.388,474.745C267.529,478.124 266.701,483.688 267.462,490.794C268.228,497.954 270.634,506.922 274.551,517.368L276.424,516.666ZM271.915,476.037C274.183,473.356 276.767,471.695 279.357,470.374C280.661,469.708 281.946,469.139 283.215,468.556C284.471,467.979 285.707,467.39 286.842,466.709C289.138,465.332 291.074,463.543 292.096,460.597C293.102,457.698 293.177,453.808 292.078,448.311L290.117,448.703C291.185,454.047 291.044,457.528 290.207,459.941C289.386,462.306 287.853,463.77 285.813,464.994C284.78,465.614 283.631,466.163 282.38,466.738C281.143,467.307 279.8,467.902 278.448,468.592C275.726,469.981 272.89,471.788 270.388,474.745L271.915,476.037ZM292.078,448.311C290.546,440.651 285.576,435.017 280.696,428.811C275.78,422.557 270.784,415.554 268.663,404.951L266.702,405.343C268.917,416.419 274.154,423.726 279.124,430.047C284.13,436.414 288.7,441.621 290.117,448.703L292.078,448.311ZM268.663,404.951C262.601,374.642 256.49,351.741 238.845,336.742L237.55,338.266C254.593,352.753 260.623,374.947 266.702,405.343L268.663,404.951ZM238.845,336.742C221.54,322.033 196.331,300.3 190.215,295.932L189.052,297.559C195.077,301.862 220.166,323.49 237.55,338.266L238.845,336.742ZM190.215,295.932C187.339,293.877 184.729,291.101 179.689,289.197C174.619,287.282 167.084,286.204 154.011,287.075L154.144,289.071C167.088,288.208 174.295,289.298 178.982,291.068C183.698,292.85 185.858,295.277 189.052,297.559L190.215,295.932ZM154.011,287.075C147.478,287.511 142.521,288.11 138.48,288.668C134.418,289.229 131.354,289.736 128.51,290.004C122.932,290.531 118.304,290.126 109.299,287.124L108.667,289.022C117.873,292.091 122.784,292.553 128.697,291.996C131.598,291.722 134.767,291.2 138.754,290.649C142.762,290.096 147.67,289.503 154.144,289.071L154.011,287.075ZM109.299,287.124C100.296,284.123 87.161,277.668 75.423,269.16C63.653,260.63 53.471,250.168 50.101,239.215L48.19,239.803C51.757,251.398 62.389,262.183 74.25,270.78C86.143,279.4 99.458,285.952 108.667,289.022L109.299,287.124ZM50.101,239.215C46.704,228.175 47.55,215.398 51.595,204.966C55.65,194.507 62.814,186.638 71.872,184.992L71.514,183.024C61.492,184.846 53.914,193.454 49.73,204.243C45.537,215.057 44.649,228.296 48.189,239.803L50.101,239.215ZM52.916,135.363C50.59,134.626 48.519,134.618 46.74,135.491C44.975,136.357 43.678,138.001 42.703,140.188C40.774,144.519 39.907,151.456 39.474,160.546L41.472,160.641C41.906,151.519 42.774,144.943 44.53,141.002C45.399,139.052 46.432,137.87 47.621,137.287C48.796,136.71 50.302,136.632 52.312,137.269L52.916,135.363ZM39.474,160.546C39.255,165.155 39.911,173.29 40.287,182.963C40.666,192.7 40.772,204.132 39.48,215.549C36.888,238.44 28.723,260.908 6.284,269.799L7.02,271.659C30.543,262.338 38.855,238.845 41.467,215.774C42.776,204.209 42.666,192.66 42.286,182.885C41.903,173.045 41.258,165.137 41.472,160.641L39.474,160.546ZM6.284,269.799C-8.574,275.686 -19.255,281.092 -26.642,286.042C-34.008,290.979 -38.206,295.532 -39.923,299.759C-41.679,304.078 -40.795,307.933 -38.341,311.217C-35.929,314.443 -32.007,317.125 -27.616,319.32L-26.722,317.531C-31.004,315.39 -34.601,312.879 -36.739,310.019C-38.833,307.218 -39.527,304.095 -38.071,300.512C-36.576,296.835 -32.773,292.558 -25.529,287.704C-18.305,282.863 -7.768,277.518 7.02,271.659L6.284,269.799ZM-27.616,319.32C-18.846,323.705 -7.23,326.774 3.76,330.114C14.843,333.483 25.276,337.122 32.038,342.616L33.299,341.064C26.186,335.285 15.372,331.553 4.341,328.201C-6.783,324.82 -18.149,321.818 -26.722,317.531L-27.616,319.32ZM32.038,342.616C35.431,345.373 38.612,348.88 41.873,352.722C45.114,356.54 48.451,360.712 52.078,364.676C59.354,372.628 67.979,379.958 80.145,382.707L80.586,380.757C69.006,378.139 60.721,371.16 53.553,363.326C49.959,359.397 46.691,355.307 43.398,351.428C40.125,347.571 36.844,343.944 33.299,341.064L32.038,342.616ZM80.145,382.707C86.957,384.247 92.294,384.277 96.379,383.074C100.502,381.859 103.295,379.403 104.993,376.126C106.672,372.882 107.249,368.898 107.096,364.626C106.943,360.347 106.056,355.71 104.741,351.105L102.818,351.654C104.105,356.158 104.952,360.629 105.097,364.698C105.243,368.775 104.681,372.379 103.217,375.206C101.77,377.999 99.415,380.095 95.814,381.155C92.176,382.227 87.214,382.255 80.585,380.757L80.145,382.707ZM104.741,351.105C103.331,346.168 100.93,340.372 98.208,333.981C95.477,327.57 92.41,320.535 89.624,313.053C84.049,298.082 79.649,281.442 81.36,264.76L79.37,264.556C77.612,281.696 82.139,298.683 87.749,313.751C90.556,321.288 93.645,328.375 96.368,334.765C99.099,341.175 101.448,346.858 102.818,351.654L104.741,351.105ZM81.36,264.76C83.1,247.799 84.188,218.176 80.815,191.492C79.129,178.155 76.322,165.492 71.889,155.498C67.464,145.523 61.338,138.032 52.916,135.363L52.312,137.269C59.934,139.685 65.732,146.551 70.061,156.309C74.381,166.049 77.156,178.494 78.831,191.743C82.179,218.234 81.099,247.697 79.37,264.556L81.36,264.76ZM319.715,368.731L319.88,367.744L319.798,367.731L319.715,367.731L319.715,368.731ZM301.504,410.357L300.525,410.563L300.528,410.574L301.504,410.357ZM160.148,363.395C154.236,363.395 150.009,365.466 147.085,369.559C144.222,373.567 142.682,379.416 141.811,386.825L143.797,387.059C144.66,379.725 146.156,374.301 148.713,370.721C151.209,367.226 154.787,365.395 160.148,365.395L160.148,363.395ZM141.811,386.825C140.931,394.306 141.362,401.208 144.046,407.807C146.729,414.405 151.629,420.607 159.534,426.756L160.762,425.177C153.057,419.185 148.418,413.247 145.898,407.053C143.379,400.86 142.943,394.32 143.797,387.059L141.811,386.825ZM159.534,426.756C175.184,438.928 183.63,445.716 188.714,457.58L190.553,456.792C185.231,444.374 176.332,437.287 160.762,425.177L159.534,426.756ZM188.714,457.58C190.124,460.869 192.455,462.872 195.215,463.737C197.945,464.592 200.999,464.305 203.864,463.216C209.57,461.048 214.85,455.572 215.774,448.646L213.791,448.382C212.98,454.465 208.288,459.395 203.154,461.346C200.599,462.317 198.016,462.518 195.813,461.828C193.641,461.148 191.745,459.574 190.553,456.792L188.714,457.58ZM215.774,448.646C216.621,442.291 218.395,435.562 217.621,427.711C216.839,419.781 213.487,410.713 204.287,399.322L202.731,400.579C211.742,411.735 214.894,420.445 215.63,427.907C216.374,435.45 214.678,441.729 213.791,448.382L215.774,448.646ZM204.287,399.322C199.772,393.732 196.545,388.731 193.801,384.351C191.071,379.994 188.776,376.177 186.172,373.074C183.541,369.939 180.566,367.495 176.44,365.85C172.335,364.214 167.155,363.395 160.148,363.395L160.148,365.395C167.016,365.395 171.917,366.201 175.699,367.708C179.459,369.207 182.176,371.424 184.64,374.36C187.131,377.328 189.334,380.99 192.106,385.413C194.863,389.814 198.14,394.895 202.731,400.579L204.287,399.322ZM300.528,410.574C300.949,412.469 301.269,414.913 301.622,417.783C301.974,420.634 302.355,423.88 302.901,427.316C303.991,434.186 305.746,441.89 309.281,448.961L311.07,448.067C307.668,441.263 305.954,433.791 304.876,427.002C304.338,423.609 303.96,420.404 303.607,417.538C303.256,414.689 302.926,412.146 302.48,410.14L300.528,410.574ZM309.281,448.961C311.042,452.483 313.512,456.379 316.009,460.36C318.519,464.362 321.067,468.467 323.046,472.48C325.03,476.501 326.399,480.344 326.617,483.821C326.832,487.252 325.929,490.317 323.344,492.902L324.758,494.316C327.81,491.264 328.858,487.608 328.613,483.695C328.37,479.828 326.867,475.704 324.84,471.595C322.808,467.477 320.207,463.289 317.703,459.297C315.186,455.283 312.778,451.482 311.07,448.067L309.281,448.961ZM323.344,492.902C317.77,498.476 314.155,501.858 312.007,505.815C309.822,509.84 309.176,514.391 309.176,522.227L311.176,522.227C311.176,514.453 311.831,510.332 313.765,506.769C315.736,503.137 319.059,500.015 324.758,494.316L323.344,492.902ZM309.176,522.227C309.176,530.316 312.546,537.277 317.149,542.104C321.724,546.903 327.642,549.709 332.814,549.239L332.633,547.247C328.265,547.644 322.909,545.247 318.596,540.724C314.31,536.228 311.176,529.748 311.176,522.227L309.176,522.227ZM332.814,549.239C335.494,548.996 337.751,547.657 339.729,545.835C341.698,544.022 343.458,541.667 345.14,539.28C346.843,536.862 348.46,534.422 350.204,532.291C351.946,530.165 353.736,528.448 355.718,527.457L354.824,525.669C352.47,526.846 350.466,528.815 348.657,531.024C346.851,533.23 345.161,535.777 343.505,538.128C341.826,540.511 340.171,542.709 338.374,544.364C336.585,546.011 334.722,547.057 332.633,547.247L332.814,549.239ZM355.718,527.457C357.809,526.412 360.432,525.572 363.29,524.596C366.109,523.634 369.114,522.552 371.804,521.039C374.503,519.521 376.937,517.541 378.573,514.752C380.215,511.951 380.999,508.426 380.548,503.916L378.558,504.115C378.974,508.277 378.24,511.364 376.847,513.74C375.448,516.127 373.329,517.887 370.824,519.296C368.311,520.709 365.463,521.741 362.644,522.703C359.865,523.652 357.069,524.546 354.824,525.669L355.718,527.457ZM380.548,503.916C379.661,495.053 374.819,482.772 369.397,471.495C363.959,460.185 357.866,449.737 354.368,444.49L352.704,445.6C356.144,450.759 362.192,461.125 367.595,472.362C373.013,483.633 377.71,495.634 378.558,504.115L380.548,503.916ZM354.368,444.49C347.419,434.066 338.911,422.14 338.058,403.374L336.06,403.464C336.942,422.855 345.778,435.211 352.704,445.6L354.368,444.49ZM338.058,403.374C337.621,393.755 335.871,385.37 332.865,379.136C329.861,372.905 325.525,368.685 319.88,367.744L319.551,369.717C324.312,370.511 328.214,374.095 331.064,380.005C333.912,385.912 335.63,394.004 336.06,403.464L338.058,403.374ZM302.482,410.151C301.601,405.966 300.426,401.389 299.602,396.727C298.782,392.086 298.343,387.522 298.916,383.506C299.487,379.514 301.047,376.125 304.186,373.71C307.348,371.279 312.25,369.731 319.715,369.731L319.715,367.731C312.004,367.731 306.607,369.326 302.967,372.125C299.305,374.941 297.559,378.868 296.936,383.223C296.318,387.555 296.8,392.367 297.633,397.076C298.462,401.764 299.672,406.509 300.525,410.563L302.482,410.151ZM282.424,308.893L282.101,309.839L282.424,308.893ZM282.747,307.947C276.022,305.651 270.708,306.282 266.605,308.876C262.548,311.44 259.842,315.818 258.069,320.692L259.949,321.376C261.646,316.71 264.143,312.798 267.674,310.566C271.159,308.363 275.818,307.694 282.101,309.839L282.747,307.947ZM258.069,320.692C256.205,325.82 257.387,331.577 260.463,336.021C263.546,340.474 268.604,343.714 274.619,343.714L274.619,341.714C269.361,341.714 264.878,338.884 262.108,334.882C259.331,330.871 258.345,325.787 259.949,321.376L258.069,320.692ZM274.619,343.714C286.249,343.714 294.935,337.193 297.363,329.318C298.582,325.367 298.204,321.106 295.836,317.274C293.474,313.454 289.191,310.147 282.747,307.947L282.101,309.839C288.232,311.933 292.078,314.999 294.134,318.326C296.183,321.64 296.51,325.298 295.452,328.729C293.328,335.618 285.537,341.714 274.619,341.714L274.619,343.714ZM347.465,455.319C342.168,455.319 337.982,458.725 335.175,464.788C332.378,470.83 330.855,479.667 330.855,491.007L332.855,491.007C332.855,479.8 334.367,471.294 336.99,465.628C339.604,459.983 343.222,457.319 347.465,457.319L347.465,455.319ZM330.855,491.007C330.855,502.436 335.264,509.798 341.473,511.38C347.712,512.971 354.801,508.496 359.641,498.377L357.837,497.514C353.137,507.34 346.785,510.67 341.967,509.442C337.118,508.206 332.855,502.126 332.855,491.007L330.855,491.007ZM359.641,498.377C364.533,488.147 364.315,477.467 361.528,469.328C360.134,465.26 358.087,461.79 355.674,459.319C353.267,456.856 350.423,455.319 347.465,455.319L347.465,457.319C349.71,457.319 352.07,458.492 354.243,460.717C356.409,462.935 358.319,466.131 359.635,469.976C362.268,477.664 362.483,487.798 357.837,497.514L359.641,498.377ZM1002.84,92.277L1003.52,91.544L1003.55,91.567L1003.57,91.592L1002.84,92.277ZM1053.14,92.277L1052.32,91.701L1053.14,92.277ZM1234.39,87.075L1234.94,86.243L1234.39,87.075ZM1501.49,315.152L1500.72,315.795L1501.49,315.152ZM1585.61,416.616L1584.71,417.053L1585.61,416.616ZM1400.02,85.341L1400.43,84.427L1400.02,85.341ZM1003.57,91.592C1007,95.24 1011.16,98.704 1015.53,102.676C1019.87,106.621 1024.35,111.011 1028.26,116.406C1036.11,127.239 1041.58,142.01 1039.39,165.217L1037.4,165.029C1039.55,142.274 1034.18,127.994 1026.64,117.58C1022.85,112.351 1018.49,108.069 1014.19,104.156C1009.91,100.268 1005.62,96.686 1002.11,92.963L1003.57,91.592ZM1039.39,165.217C1037.26,187.774 1050.69,211.999 1068.2,232.109C1085.7,252.195 1107.04,267.909 1120.3,273.469L1119.53,275.314C1105.9,269.601 1084.32,253.662 1066.69,233.422C1049.09,213.206 1035.19,188.435 1037.4,165.029L1039.39,165.217ZM1120.3,273.469C1133.69,279.086 1142.45,281.202 1149.54,281.414C1156.61,281.625 1162.1,279.944 1169.05,277.773L1169.64,279.682C1162.71,281.848 1156.93,283.635 1149.48,283.413C1142.04,283.191 1133.02,280.972 1119.53,275.314L1120.3,273.469ZM1169.05,277.773C1172.39,276.73 1175.71,274.84 1179.37,272.64C1183.01,270.457 1186.97,267.984 1191.47,265.896C1200.54,261.694 1211.83,259.05 1227.69,263.015L1227.21,264.955C1211.85,261.115 1201.02,263.675 1192.31,267.711C1187.93,269.743 1184.08,272.147 1180.4,274.355C1176.75,276.545 1173.24,278.558 1169.64,279.682L1169.05,277.773ZM1227.69,263.015C1258.84,270.802 1281.31,273.392 1304.63,273.392L1304.63,275.392C1281.12,275.392 1258.5,272.778 1227.21,264.955L1227.69,263.015ZM1304.63,273.392C1316.68,273.392 1331.22,280.941 1344.26,290.942C1357.35,300.972 1369.14,313.632 1375.72,324.16L1374.03,325.22C1367.6,314.935 1355.98,302.445 1343.05,292.53C1330.07,282.585 1315.99,275.392 1304.63,275.392L1304.63,273.392ZM1375.72,324.16C1382.35,334.765 1385.19,349.272 1387.25,363.243C1388.28,370.279 1389.11,377.132 1390.13,383.433C1391.14,389.721 1392.32,395.328 1394.02,399.781L1392.15,400.493C1390.38,395.84 1389.17,390.066 1388.16,383.752C1387.14,377.451 1386.29,370.483 1385.27,363.535C1383.21,349.539 1380.41,335.428 1374.03,325.22L1375.72,324.16ZM1394.02,399.781C1397.54,409.015 1399.13,419.477 1395.21,429.656C1391.29,439.848 1381.94,449.549 1364,457.422L1363.2,455.59C1380.82,447.853 1389.68,438.475 1393.34,428.938C1397.02,419.389 1395.57,409.471 1392.15,400.493L1394.02,399.781ZM1364,457.422C1346.11,465.276 1318.7,471.797 1293.87,476.459C1269.03,481.123 1246.65,483.951 1238.78,484.388L1238.67,482.391C1246.41,481.961 1268.69,479.152 1293.5,474.493C1318.31,469.833 1345.53,463.346 1363.2,455.59L1364,457.422ZM1238.78,484.388C1231,484.82 1209.45,486.548 1189.22,494.51C1168.99,502.475 1150.34,516.561 1147.79,541.594L1145.8,541.391C1148.46,515.259 1167.97,500.727 1188.49,492.649C1209.02,484.567 1230.83,482.826 1238.67,482.391L1238.78,484.388ZM1147.79,541.594C1145.19,567.149 1142.8,596.678 1138.46,625.328C1134.12,653.975 1127.82,681.841 1117.35,704.087L1115.54,703.235C1125.88,681.254 1132.15,653.618 1136.49,625.029C1140.82,596.443 1143.2,567.002 1145.8,541.391L1147.79,541.594ZM1117.35,704.087C1106.91,726.27 1091.67,747.84 1079.9,766.844C1073.99,776.374 1068.97,785.254 1065.79,793.297C1062.61,801.354 1061.34,808.438 1062.78,814.43L1060.84,814.899C1059.25,808.316 1060.69,800.766 1063.93,792.562C1067.18,784.345 1072.28,775.339 1078.2,765.791C1090.06,746.638 1105.17,725.28 1115.54,703.235L1117.35,704.087ZM1062.78,814.43C1065.8,826.923 1070.07,836.644 1078.49,843.595C1086.93,850.556 1099.69,854.865 1119.98,856.16L1119.85,858.156C1099.38,856.849 1086.12,852.485 1077.22,845.138C1068.3,837.779 1063.89,827.554 1060.84,814.899L1062.78,814.43ZM1119.98,856.16C1160.69,858.758 1205.33,854.385 1233.61,820.098L1235.16,821.371C1206.21,856.461 1160.66,860.76 1119.85,858.156L1119.98,856.16ZM1233.61,820.098C1247.89,802.8 1256.03,789.692 1260.64,774.696C1265.25,759.675 1266.34,742.679 1266.34,717.537L1268.34,717.537C1268.34,742.693 1267.26,759.952 1262.55,775.283C1257.83,790.638 1249.5,803.981 1235.16,821.371L1233.61,820.098ZM1266.34,717.537C1266.34,667.164 1275.88,615.512 1324.05,585.737L1325.1,587.438C1277.87,616.633 1268.34,667.312 1268.34,717.537L1266.34,717.537ZM1324.05,585.737C1347.99,570.939 1369.1,562.889 1389.05,555.514C1409.02,548.136 1427.78,541.448 1447.19,529.37L1448.25,531.068C1428.63,543.272 1409.67,550.026 1389.75,557.39C1369.81,564.758 1348.86,572.751 1325.1,587.438L1324.05,585.737ZM1447.19,529.37C1466.64,517.27 1483.04,503.67 1494.89,490.419C1506.76,477.14 1513.97,464.321 1515.24,453.785L1517.22,454.024C1515.89,465.168 1508.35,478.365 1496.38,491.753C1484.38,505.169 1467.83,518.886 1448.25,531.068L1447.19,529.37ZM1515.24,453.785C1516.5,443.223 1513.78,436.709 1510.67,430.503C1507.56,424.269 1503.96,418.195 1503.96,408.809L1505.96,408.809C1505.96,417.635 1509.29,423.268 1512.46,429.609C1515.65,435.977 1518.56,442.906 1517.22,454.024L1515.24,453.785ZM1503.96,408.809C1503.96,390.251 1509.98,377.796 1497.17,357.307L1498.87,356.247C1512.08,377.384 1505.96,390.945 1505.96,408.809L1503.96,408.809ZM1497.17,357.307C1490.69,346.943 1478.36,329.847 1466.12,314.139C1460,306.289 1453.91,298.797 1448.6,292.676C1443.28,286.535 1438.78,281.833 1435.83,279.514L1437.06,277.941C1440.18,280.392 1444.79,285.229 1450.12,291.365C1455.46,297.521 1461.56,305.042 1467.7,312.91C1479.95,328.639 1492.34,345.798 1498.87,356.247L1497.17,357.307ZM1435.83,279.514C1423.55,269.864 1417.37,260.18 1413.84,251.348L1415.69,250.606C1419.1,259.118 1425.06,268.513 1437.06,277.941L1435.83,279.514ZM1413.84,251.348C1412.96,249.162 1412.11,246.172 1411.06,243.133C1409.98,240.032 1408.66,236.721 1406.76,233.612C1402.99,227.439 1396.96,222.011 1386.03,220.751L1386.26,218.764C1397.89,220.105 1404.43,225.951 1408.47,232.57C1410.47,235.856 1411.85,239.32 1412.95,242.479C1414.06,245.7 1414.83,248.456 1415.69,250.606L1413.84,251.348ZM1386.03,220.751C1374.8,219.455 1365.54,218.361 1357.8,215.153C1349.98,211.914 1343.74,206.542 1338.44,196.822L1340.2,195.864C1345.3,205.222 1351.21,210.257 1358.56,213.305C1366,216.384 1374.95,217.459 1386.26,218.764L1386.03,220.751ZM1338.44,196.822C1333.19,187.194 1328.7,177.351 1322.58,169.078C1316.5,160.862 1308.87,154.312 1297.44,151.348L1297.94,149.412C1309.93,152.52 1317.91,159.411 1324.19,167.889C1330.42,176.309 1335.04,186.412 1340.2,195.864L1338.44,196.822ZM1297.44,151.348C1285.76,148.319 1267.79,144.422 1251.3,140.733C1234.86,137.057 1219.81,133.57 1214.08,131.368L1214.8,129.501C1220.35,131.635 1235.21,135.085 1251.73,138.781C1268.19,142.463 1286.21,146.372 1297.94,149.412L1297.44,151.348ZM1214.08,131.368C1203,127.104 1191.05,126.248 1179.09,128.811L1178.68,126.855C1191,124.214 1203.34,125.093 1214.8,129.501L1214.08,131.368ZM1179.09,128.811C1173.03,130.11 1167.38,131.039 1161.91,129.443C1156.39,127.834 1151.23,123.718 1145.95,115.359L1147.64,114.291C1152.77,122.409 1157.58,126.098 1162.47,127.523C1167.41,128.963 1172.6,128.158 1178.68,126.855L1179.09,128.811ZM1145.95,115.359C1140.75,107.129 1133.41,95.901 1124.57,85.331C1115.71,74.748 1105.41,64.897 1094.32,59.35L1095.21,57.562C1106.67,63.289 1117.18,73.384 1126.1,84.047C1135.03,94.724 1142.43,106.043 1147.64,114.291L1145.95,115.359ZM1094.32,59.35C1083.01,53.699 1069.02,46.38 1054.28,42.292C1039.56,38.208 1024.23,37.392 1010.24,44.602L1009.32,42.824C1023.94,35.292 1039.84,36.211 1054.82,40.365C1069.78,44.516 1083.97,51.94 1095.21,57.562L1094.32,59.35ZM1010.24,44.602C996.178,51.845 991.709,60.854 992.014,69.26C992.322,77.788 997.548,86.01 1003.52,91.544L1002.16,93.011C995.964,87.269 990.35,78.581 990.015,69.332C989.676,59.96 994.761,50.325 1009.32,42.824L1010.24,44.602ZM1052.32,91.701C1054.74,88.271 1058.49,86.985 1062.85,87.221C1067.19,87.456 1072.24,89.182 1077.55,91.874C1088.19,97.267 1100.2,106.701 1110.21,116.721L1108.8,118.135C1098.87,108.208 1087.03,98.925 1076.64,93.658C1071.44,91.021 1066.68,89.431 1062.75,89.218C1058.85,89.007 1055.87,90.142 1053.96,92.854L1052.32,91.701ZM1110.21,116.721C1115.26,121.764 1119.96,127.832 1124.54,134.057C1129.14,140.303 1133.61,146.688 1138.25,152.465C1147.57,164.061 1157.28,172.797 1169.35,172.797L1169.35,174.797C1156.26,174.797 1146.02,165.32 1136.7,153.718C1132.02,147.897 1127.49,141.436 1122.93,135.243C1118.35,129.029 1113.73,123.065 1108.8,118.135L1110.21,116.721ZM1169.35,172.797C1175.57,172.797 1180.72,172.207 1185.71,171.638C1190.69,171.069 1195.52,170.519 1201.02,170.629C1212.04,170.849 1225.62,173.721 1248.67,184.159L1247.85,185.981C1224.94,175.607 1211.63,172.841 1200.98,172.628C1195.63,172.521 1190.93,173.055 1185.94,173.625C1180.95,174.194 1175.7,174.797 1169.35,174.797L1169.35,172.797ZM1248.67,184.159C1271.69,194.582 1287.98,203.486 1300.23,210.21C1312.54,216.962 1320.64,221.429 1327.42,223.125L1326.94,225.065C1319.84,223.291 1311.46,218.653 1299.27,211.963C1287.03,205.246 1270.79,196.372 1247.85,185.981L1248.67,184.159ZM1327.42,223.125C1330.86,223.983 1335.11,224.791 1339.8,225.687C1344.49,226.581 1349.6,227.561 1354.72,228.758C1364.93,231.147 1375.29,234.435 1382.41,239.772L1381.21,241.372C1374.45,236.304 1364.44,233.088 1354.27,230.706C1349.2,229.519 1344.12,228.547 1339.43,227.652C1334.75,226.759 1330.44,225.941 1326.94,225.065L1327.42,223.125ZM1382.41,239.772C1389.67,245.216 1392.33,254.468 1394.6,263.082C1395.74,267.447 1396.78,271.656 1398.23,275.326C1399.68,278.99 1401.49,281.997 1404.1,284.007L1402.88,285.592C1399.86,283.266 1397.88,279.877 1396.37,276.061C1394.87,272.251 1393.79,267.896 1392.66,263.589C1390.37,254.859 1387.83,246.333 1381.21,241.372L1382.41,239.772ZM1404.1,284.007C1409.71,288.32 1419.08,295.077 1428.44,303.346C1437.79,311.61 1447.21,321.459 1452.94,332.02L1451.18,332.972C1445.62,322.72 1436.41,313.057 1427.11,304.844C1417.82,296.636 1408.55,289.951 1402.88,285.592L1404.1,284.007ZM1452.94,332.02C1458.65,342.572 1460.45,352.544 1459.33,360.388C1458.21,368.222 1454.14,374.061 1448.01,375.945L1447.43,374.034C1452.58,372.449 1456.3,367.448 1457.35,360.105C1458.4,352.774 1456.74,343.234 1451.18,332.972L1452.94,332.02ZM1448.01,375.945C1444.79,376.936 1440.96,375.847 1437.03,373.684C1433.07,371.499 1428.8,368.102 1424.59,364.116C1416.18,356.141 1407.89,345.669 1402.65,337.366L1404.34,336.298C1409.5,344.473 1417.69,354.814 1425.97,362.665C1430.11,366.592 1434.24,369.862 1438,371.932C1441.8,374.024 1445.01,374.778 1447.43,374.034L1448.01,375.945ZM1402.65,337.366C1397.46,329.153 1391.14,319.563 1386.13,309.866C1381.12,300.186 1377.34,290.252 1377.34,281.331L1379.34,281.331C1379.34,289.755 1382.93,299.333 1387.9,308.948C1392.86,318.546 1399.12,328.035 1404.34,336.298L1402.65,337.366ZM1377.34,281.331C1377.34,273.177 1371.85,266.722 1363.53,261.811C1355.22,256.909 1344.29,253.686 1333.95,251.963L1334.28,249.991C1344.75,251.736 1355.94,255.016 1364.54,260.088C1373.13,265.151 1379.34,272.139 1379.34,281.331L1377.34,281.331ZM1333.95,251.963C1323.37,250.2 1315.83,245.771 1307.45,241.8C1299.07,237.826 1289.67,234.195 1275.12,233.766L1275.17,231.767C1290.1,232.206 1299.78,235.946 1308.31,239.993C1316.85,244.044 1324.05,248.286 1334.28,249.991L1333.95,251.963ZM1275.12,233.766C1245.61,232.899 1235.11,231.158 1222.18,230.296L1222.31,228.3C1235.39,229.172 1245.71,230.901 1275.17,231.767L1275.12,233.766ZM1222.18,230.296C1209.37,229.442 1197.39,231.997 1183.62,238.019L1182.82,236.187C1196.81,230.068 1209.11,227.42 1222.31,228.3L1222.18,230.296ZM1183.62,238.019C1180.23,239.504 1176.9,241.671 1173.27,243.818C1169.68,245.94 1165.84,248.006 1161.58,249.127C1157.29,250.254 1152.6,250.422 1147.32,248.79C1142.04,247.164 1136.23,243.765 1129.65,237.846L1130.99,236.36C1137.42,242.148 1142.99,245.362 1147.91,246.879C1152.81,248.391 1157.11,248.234 1161.07,247.193C1165.05,246.146 1168.69,244.201 1172.25,242.096C1175.77,240.014 1179.28,237.737 1182.82,236.187L1183.62,238.019ZM1129.65,237.846C1103.57,214.37 1095.56,196.775 1088.78,188.297L1090.34,187.047C1097.44,195.913 1105.04,213.006 1130.99,236.36L1129.65,237.846ZM1088.78,188.297C1085.4,184.071 1080.94,179.581 1077.74,173.734C1074.49,167.807 1072.5,160.439 1073.83,150.251L1075.81,150.51C1074.54,160.268 1076.45,167.21 1079.49,172.774C1082.58,178.418 1086.79,182.601 1090.34,187.047L1088.78,188.297ZM1073.83,150.251C1075.11,140.39 1074.02,135.219 1071.89,131.471C1070.81,129.573 1069.44,127.99 1067.87,126.309C1066.31,124.643 1064.53,122.862 1062.76,120.654L1064.33,119.405C1066.03,121.533 1067.72,123.221 1069.33,124.942C1070.93,126.648 1072.43,128.371 1073.63,130.484C1076.05,134.757 1077.13,140.425 1075.81,150.51L1073.83,150.251ZM1062.76,120.654C1061.1,118.567 1059,116.728 1056.87,114.859C1054.77,113.017 1052.63,111.134 1051.04,109.033C1049.43,106.906 1048.34,104.496 1048.4,101.592C1048.46,98.709 1049.65,95.482 1052.32,91.701L1053.96,92.854C1051.42,96.443 1050.45,99.287 1050.4,101.634C1050.35,103.96 1051.21,105.941 1052.64,107.826C1054.08,109.736 1056.06,111.485 1058.19,113.356C1060.29,115.2 1062.53,117.156 1064.33,119.405L1062.76,120.654ZM1234.94,86.243C1237.04,87.642 1239.24,90.147 1241.52,93.025C1242.68,94.478 1243.87,96.056 1245.11,97.673C1246.34,99.294 1247.61,100.958 1248.93,102.6C1251.57,105.889 1254.37,109.055 1257.35,111.553C1260.32,114.054 1263.42,115.838 1266.66,116.445L1266.29,118.411C1262.59,117.717 1259.18,115.706 1256.06,113.085C1252.94,110.461 1250.04,107.177 1247.37,103.853C1246.04,102.189 1244.75,100.506 1243.51,98.885C1242.28,97.26 1241.1,95.702 1239.96,94.268C1237.66,91.374 1235.64,89.11 1233.83,87.907L1234.94,86.243ZM1266.66,116.445C1273.37,117.704 1278.81,116.454 1285.58,115.144C1292.34,113.835 1300.26,112.513 1311.68,113.831L1311.45,115.818C1300.33,114.534 1292.64,115.814 1285.96,117.108C1279.28,118.4 1273.45,119.753 1266.29,118.411L1266.66,116.445ZM1311.68,113.831C1323.1,115.149 1340.77,120.397 1359.69,129.314C1378.62,138.238 1398.89,150.87 1415.46,167.01L1414.07,168.443C1397.69,152.495 1377.63,139.979 1358.84,131.124C1340.04,122.263 1322.58,117.103 1311.45,115.818L1311.68,113.831ZM1415.46,167.01C1431.9,183.016 1446.05,195.86 1457.25,208.471C1468.47,221.109 1476.8,233.588 1481.63,248.944L1479.72,249.544C1475.01,234.547 1466.86,222.31 1455.75,209.799C1444.62,197.261 1430.58,184.522 1414.07,168.443L1415.46,167.01ZM1481.63,248.944C1486.43,264.233 1486.02,274.2 1487.19,283.372C1488.36,292.495 1491.1,301.206 1502.25,314.509L1500.72,315.795C1489.33,302.214 1486.43,293.149 1485.21,283.626C1484,274.154 1484.45,264.609 1479.72,249.544L1481.63,248.944ZM1502.25,314.509C1507.84,321.175 1515.23,324.771 1523.6,329.159C1531.95,333.529 1541.13,338.625 1549.92,348.301L1548.44,349.646C1539.9,340.242 1530.97,335.278 1522.68,330.931C1514.41,326.602 1506.62,322.827 1500.72,315.795L1502.25,314.509ZM1549.92,348.301C1558.68,357.937 1564.15,367.353 1569.27,378.138C1571.83,383.521 1574.3,389.258 1577.05,395.523C1579.8,401.793 1582.83,408.609 1586.51,416.179L1584.71,417.053C1581.01,409.447 1577.97,402.603 1575.22,396.326C1572.46,390.043 1570.01,384.344 1567.47,378.996C1562.4,368.317 1557.03,359.088 1548.44,349.646L1549.92,348.301ZM1624.66,333.328C1618.13,328.976 1600.5,317.754 1583.4,306.446C1574.86,300.807 1566.49,295.162 1559.75,290.383C1553.06,285.634 1547.88,281.664 1545.84,279.397L1547.33,278.059C1549.19,280.127 1554.16,283.962 1560.91,288.752C1567.62,293.512 1575.97,299.142 1584.5,304.777C1601.5,316.018 1619.29,327.345 1625.77,331.664L1624.66,333.328ZM1545.84,279.397C1543.9,277.245 1542,275.457 1540.11,273.504C1538.23,271.574 1536.42,269.541 1534.79,267.022C1531.53,261.962 1529.12,255.065 1528.24,243.247L1530.24,243.1C1531.09,254.698 1533.45,261.242 1536.47,265.938C1537.99,268.297 1539.7,270.22 1541.54,272.11C1543.36,273.979 1545.36,275.875 1547.33,278.059L1545.84,279.397ZM1528.24,243.247C1527.37,231.488 1526.94,225.335 1525.35,220.046C1523.78,214.794 1521.05,210.361 1515.4,202.112L1517.05,200.983C1522.68,209.211 1525.59,213.882 1527.27,219.471C1528.93,225.021 1529.37,231.443 1530.24,243.1L1528.24,243.247ZM1515.4,202.112C1509.74,193.836 1495.91,171.574 1475.9,147.994C1455.88,124.407 1429.77,99.608 1399.62,86.255L1400.43,84.427C1430.98,97.959 1457.33,123.024 1477.43,146.7C1497.52,170.383 1511.44,192.781 1517.05,200.983L1515.4,202.112ZM1586.51,416.179C1588.44,420.167 1592.04,424.193 1596.5,428.363C1600.97,432.531 1606.17,436.736 1611.31,441.153C1616.42,445.547 1621.44,450.128 1625.38,454.968C1629.33,459.806 1632.26,464.969 1633.13,470.536L1631.16,470.845C1630.36,465.766 1627.66,460.928 1623.83,456.232C1620,451.537 1615.11,447.052 1610.01,442.67C1604.94,438.311 1599.64,434.029 1595.14,429.825C1590.64,425.621 1586.81,421.388 1584.71,417.053L1586.51,416.179ZM1399.62,86.255C1382.86,78.834 1357.54,66.482 1337.09,50.876C1326.86,43.072 1317.81,34.422 1311.65,25.126C1305.49,15.823 1302.21,5.819 1303.64,-4.638L1305.62,-4.367C1304.28,5.471 1307.34,14.991 1313.32,24.022C1319.3,33.061 1328.17,41.555 1338.3,49.286C1358.56,64.747 1383.71,77.023 1400.43,84.427L1399.62,86.255ZM1233.83,87.908C1229.05,84.72 1223.25,83.409 1217,82.922C1210.73,82.433 1204.16,82.781 1197.78,82.825C1191.46,82.868 1185.32,82.613 1180.18,80.837C1174.98,79.039 1170.79,75.681 1168.41,69.609L1170.28,68.88C1172.41,74.341 1176.12,77.316 1180.84,78.947C1185.62,80.6 1191.45,80.868 1197.76,80.825C1204.02,80.781 1210.77,80.431 1217.16,80.928C1223.56,81.426 1229.75,82.784 1234.94,86.243L1233.83,87.907ZM1168.41,69.609C1166.1,63.694 1164.91,55.88 1164.47,47.173C1164.04,38.451 1164.37,28.764 1165.14,19.067C1166.69,-0.327 1170.02,-19.834 1172.61,-31.882L1174.57,-31.461C1171.99,-19.482 1168.68,-0.064 1167.14,19.226C1166.37,28.871 1166.04,38.466 1166.47,47.074C1166.9,55.697 1168.08,63.261 1170.28,68.88L1168.41,69.609Z" style="fill:rgb(83,147,57);fill-rule:nonzero;"/>
    <path d="M1449.45,414.008L1449.45,413.008L1449.54,413.008L1449.63,413.024L1449.45,414.008ZM1410.43,441.759L1410.75,442.707L1410.66,442.735L1410.58,442.748L1410.43,441.759ZM1245.66,747.017L1244.72,746.666L1245.66,747.017ZM1249.99,705.391L1249.23,706.037L1249.99,705.391ZM1230.05,678.507L1229.07,678.311L1230.05,678.507ZM1253.46,635.147L1254.44,635.343L1253.46,635.147ZM1468.53,366.316L1468.23,365.363L1468.53,366.316ZM1514.49,500.729L1514.86,499.799L1514.49,500.729ZM1440.78,611.732L1440.56,610.757L1440.78,611.732ZM1417.37,581.38L1418.33,581.654L1417.37,581.38ZM1449.45,415.008C1447.55,415.008 1446.08,415.432 1444.92,416.132C1443.77,416.833 1442.86,417.848 1442.14,419.121C1440.68,421.705 1440.04,425.233 1439.61,428.974C1439.18,432.618 1438.95,436.523 1438.23,439.489C1437.86,440.987 1437.35,442.366 1436.54,443.417C1435.7,444.504 1434.56,445.22 1433.07,445.356L1432.89,443.364C1433.77,443.284 1434.42,442.888 1434.96,442.197C1435.52,441.469 1435.95,440.403 1436.29,439.015C1436.97,436.209 1437.18,432.579 1437.62,428.744C1438.05,425.005 1438.72,421.108 1440.4,418.136C1441.25,416.631 1442.38,415.335 1443.89,414.421C1445.4,413.505 1447.24,413.008 1449.45,413.008L1449.45,415.008ZM1433.07,445.356C1428.07,445.811 1424.19,444.437 1420.75,443.363C1417.3,442.284 1414.32,441.516 1410.75,442.707L1410.11,440.81C1414.34,439.4 1417.87,440.366 1421.35,441.455C1424.85,442.549 1428.35,443.777 1432.89,443.364L1433.07,445.356ZM1410.58,442.748C1406.5,443.359 1403.21,445.343 1400.11,448.247C1396.98,451.175 1394.11,454.973 1390.84,459.175C1384.32,467.54 1376.39,477.256 1362.27,483.434L1361.46,481.601C1375.1,475.638 1382.77,466.275 1389.26,457.946C1392.49,453.802 1395.47,449.849 1398.74,446.787C1402.04,443.703 1405.68,441.459 1410.28,440.77L1410.58,442.748ZM1362.27,483.434C1334.47,495.593 1304.01,506.914 1265.7,510.397L1265.51,508.405C1303.52,504.95 1333.75,493.724 1361.46,481.601L1362.27,483.434ZM1265.7,510.397C1246.72,512.122 1226.1,517.291 1208.29,529.839C1190.51,542.372 1175.47,562.321 1167.71,593.76L1165.77,593.281C1173.63,561.413 1188.94,541.037 1207.14,528.204C1225.33,515.386 1246.33,510.149 1265.51,508.405L1265.7,510.397ZM1167.71,593.76C1159.91,625.399 1155.16,652.005 1150.38,674.058C1145.61,696.059 1140.81,713.553 1132.91,726.718L1131.2,725.689C1138.91,712.839 1143.65,695.644 1148.42,673.634C1153.18,651.677 1157.96,624.948 1165.77,593.281L1167.71,593.76ZM1132.91,726.718C1128.99,733.247 1123.77,741.023 1118.33,749.223C1112.89,757.435 1107.21,766.086 1102.35,774.405C1097.48,782.733 1093.46,790.679 1091.3,797.482C1089.12,804.349 1088.93,809.744 1091.26,813.237L1089.6,814.347C1086.72,810.036 1087.18,803.831 1089.39,796.877C1091.62,789.859 1095.73,781.761 1100.62,773.396C1105.52,765.022 1111.22,756.328 1116.67,748.117C1122.12,739.894 1127.31,732.169 1131.2,725.689L1132.91,726.718ZM1091.26,813.237C1093.71,816.919 1096.85,818.834 1100.35,819.633C1103.89,820.44 1107.84,820.118 1111.89,819.212C1115.93,818.308 1119.99,816.84 1123.73,815.419C1127.43,814.013 1130.87,812.624 1133.55,811.955L1134.03,813.895C1131.5,814.527 1128.23,815.848 1124.44,817.288C1120.7,818.712 1116.52,820.225 1112.33,821.164C1108.14,822.101 1103.85,822.483 1099.91,821.583C1095.93,820.674 1092.35,818.47 1089.6,814.347L1091.26,813.237ZM1133.55,811.955C1136.03,811.333 1138.54,810.136 1141.3,808.824C1144.03,807.527 1146.98,806.134 1150.22,805.24C1156.79,803.426 1164.47,803.698 1174.24,810.364L1173.12,812.017C1163.82,805.675 1156.75,805.513 1150.75,807.168C1147.7,808.009 1144.9,809.326 1142.16,810.63C1139.45,811.92 1136.75,813.216 1134.03,813.895L1133.55,811.955ZM1174.24,810.364C1183.28,816.524 1193.42,813.744 1202.41,807.965C1211.38,802.2 1218.88,793.631 1222.3,788.922L1223.92,790.099C1220.41,794.93 1212.73,803.704 1203.49,809.647C1194.27,815.575 1183.16,818.865 1173.12,812.017L1174.24,810.364ZM1222.3,788.922C1229.2,779.439 1236.79,767.816 1244.72,746.666L1246.6,747.368C1238.59,768.722 1230.9,780.503 1223.92,790.099L1222.3,788.922ZM1244.72,746.666C1248.61,736.298 1250.95,727.506 1251.7,720.581C1252.44,713.604 1251.54,708.761 1249.23,706.037L1250.76,704.745C1253.62,708.124 1254.45,713.688 1253.68,720.794C1252.92,727.954 1250.51,736.922 1246.6,747.368L1244.72,746.666ZM1249.23,706.037C1246.96,703.356 1244.38,701.695 1241.79,700.374C1240.49,699.708 1239.2,699.139 1237.93,698.556C1236.68,697.979 1235.44,697.39 1234.3,696.709C1232.01,695.332 1230.07,693.543 1229.05,690.597C1228.04,687.698 1227.97,683.808 1229.07,678.311L1231.03,678.703C1229.96,684.047 1230.1,687.528 1230.94,689.941C1231.76,692.306 1233.29,693.77 1235.33,694.994C1236.37,695.614 1237.52,696.163 1238.77,696.738C1240,697.307 1241.35,697.902 1242.7,698.592C1245.42,699.981 1248.26,701.788 1250.76,704.745L1249.23,706.037ZM1229.07,678.311C1230.6,670.651 1235.57,665.017 1240.45,658.811C1245.37,652.557 1250.36,645.554 1252.48,634.951L1254.44,635.343C1252.23,646.419 1246.99,653.726 1242.02,660.047C1237.02,666.414 1232.45,671.621 1231.03,678.703L1229.07,678.311ZM1252.48,634.951C1258.55,604.642 1264.66,581.741 1282.3,566.742L1283.6,568.266C1266.55,582.753 1260.52,604.947 1254.44,635.343L1252.48,634.951ZM1282.3,566.742C1299.61,552.033 1324.82,530.3 1330.93,525.932L1332.09,527.559C1326.07,531.862 1300.98,553.49 1283.6,568.266L1282.3,566.742ZM1330.93,525.932C1333.81,523.877 1336.42,521.101 1341.46,519.197C1346.53,517.282 1354.06,516.204 1367.14,517.075L1367,519.071C1354.06,518.208 1346.85,519.298 1342.16,521.068C1337.45,522.85 1335.29,525.277 1332.09,527.559L1330.93,525.932ZM1367.14,517.075C1373.67,517.511 1378.63,518.11 1382.67,518.668C1386.73,519.229 1389.79,519.736 1392.64,520.004C1398.21,520.531 1402.84,520.126 1411.85,517.124L1412.48,519.022C1403.27,522.091 1398.36,522.553 1392.45,521.996C1389.55,521.722 1386.38,521.2 1382.39,520.649C1378.38,520.096 1373.48,519.503 1367,519.071L1367.14,517.075ZM1411.85,517.124C1420.85,514.123 1433.98,507.668 1445.72,499.16C1457.49,490.63 1467.68,480.168 1471.05,469.215L1472.96,469.803C1469.39,481.398 1458.76,492.183 1446.9,500.78C1435,509.4 1421.69,515.952 1412.48,519.022L1411.85,517.124ZM1471.05,469.215C1474.44,458.175 1473.6,445.398 1469.55,434.966C1465.5,424.507 1458.33,416.638 1449.27,414.992L1449.63,413.024C1459.65,414.846 1467.23,423.454 1471.42,434.243C1475.61,445.057 1476.5,458.296 1472.96,469.803L1471.05,469.215ZM1468.23,365.363C1470.56,364.626 1472.63,364.618 1474.41,365.491C1476.17,366.357 1477.47,368.001 1478.44,370.188C1480.37,374.519 1481.24,381.456 1481.67,390.546L1479.67,390.641C1479.24,381.519 1478.37,374.943 1476.62,371.002C1475.75,369.052 1474.71,367.87 1473.53,367.287C1472.35,366.71 1470.84,366.632 1468.83,367.269L1468.23,365.363ZM1481.67,390.546C1481.89,395.155 1481.24,403.29 1480.86,412.963C1480.48,422.7 1480.37,434.132 1481.67,445.549C1484.26,468.44 1492.42,490.908 1514.86,499.799L1514.13,501.659C1490.6,492.338 1482.29,468.845 1479.68,445.774C1478.37,434.209 1478.48,422.66 1478.86,412.885C1479.24,403.045 1479.89,395.137 1479.67,390.641L1481.67,390.546ZM1514.86,499.799C1529.72,505.686 1540.4,511.092 1547.79,516.042C1555.15,520.979 1559.35,525.532 1561.07,529.759C1562.83,534.078 1561.94,537.933 1559.49,541.217C1557.08,544.443 1553.15,547.125 1548.76,549.32L1547.87,547.531C1552.15,545.39 1555.75,542.879 1557.89,540.019C1559.98,537.218 1560.67,534.095 1559.22,530.512C1557.72,526.835 1553.92,522.558 1546.68,517.704C1539.45,512.863 1528.91,507.518 1514.13,501.659L1514.86,499.799ZM1548.76,549.32C1539.99,553.705 1528.38,556.774 1517.39,560.114C1506.3,563.483 1495.87,567.122 1489.11,572.616L1487.85,571.064C1494.96,565.285 1505.77,561.553 1516.81,558.201C1527.93,554.82 1539.3,551.818 1547.87,547.531L1548.76,549.32ZM1489.11,572.616C1485.72,575.373 1482.53,578.88 1479.27,582.722C1476.03,586.54 1472.7,590.712 1469.07,594.676C1461.79,602.628 1453.17,609.958 1441,612.707L1440.56,610.757C1452.14,608.139 1460.43,601.16 1467.59,593.326C1471.19,589.397 1474.46,585.307 1477.75,581.428C1481.02,577.571 1484.3,573.944 1487.85,571.064L1489.11,572.616ZM1441,612.707C1434.19,614.247 1428.85,614.277 1424.77,613.074C1420.64,611.859 1417.85,609.403 1416.15,606.126C1414.47,602.882 1413.9,598.898 1414.05,594.626C1414.2,590.347 1415.09,585.71 1416.41,581.105L1418.33,581.654C1417.04,586.158 1416.19,590.629 1416.05,594.698C1415.9,598.775 1416.47,602.379 1417.93,605.206C1419.38,607.999 1421.73,610.095 1425.33,611.155C1428.97,612.227 1433.93,612.255 1440.56,610.757L1441,612.707ZM1416.41,581.105C1417.82,576.168 1420.22,570.372 1422.94,563.981C1425.67,557.57 1428.74,550.535 1431.52,543.053C1437.1,528.082 1441.5,511.442 1439.79,494.76L1441.78,494.556C1443.53,511.696 1439.01,528.683 1433.4,543.751C1430.59,551.288 1427.5,558.375 1424.78,564.765C1422.05,571.175 1419.7,576.858 1418.33,581.654L1416.41,581.105ZM1439.79,494.76C1438.05,477.799 1436.96,448.176 1440.33,421.492C1442.02,408.155 1444.82,395.492 1449.26,385.498C1453.68,375.523 1459.81,368.032 1468.23,365.363L1468.83,367.269C1461.21,369.685 1455.41,376.551 1451.09,386.309C1446.77,396.049 1443.99,408.494 1442.32,421.743C1438.97,448.234 1440.05,477.697 1441.78,494.556L1439.79,494.76Z" style="fill:rgb(83,147,57);fill-rule:nonzero;"/>
</svg>
