<?xml version="1.0" encoding="UTF-8"?>

<svg version="1.2" baseProfile="tiny" width="100mm" height="100mm" viewBox="0 0 10000 10000" preserveAspectRatio="xMidYMid" fill-rule="evenodd" stroke-width="28.222" stroke-linejoin="round" xmlns="http://www.w3.org/2000/svg" xmlns:ooo="http://xml.openoffice.org/svg/export" xmlns:xlink="http://www.w3.org/1999/xlink" xml:space="preserve">
 <defs class="ClipPathGroup">
  <clipPath id="presentation_clip_path" clipPathUnits="userSpaceOnUse">
   <rect x="0" y="0" width="10000" height="10000"/>
  </clipPath>
 </defs>
 <defs class="TextShapeIndex">
  <g ooo:slide="id1" ooo:id-list="id3 id4 id5 id6 id7 id8 id9 id10 id11 id12"/>
 </defs>
 <defs class="EmbeddedBulletChars">
  <g id="bullet-char-template(57356)" transform="scale(0.00048828125,-0.00048828125)">
   <path d="M 580,1141 L 1163,571 580,0 -4,571 580,1141 Z"/>
  </g>
  <g id="bullet-char-template(57354)" transform="scale(0.00048828125,-0.00048828125)">
   <path d="M 8,1128 L 1137,1128 1137,0 8,0 8,1128 Z"/>
  </g>
  <g id="bullet-char-template(10146)" transform="scale(0.00048828125,-0.00048828125)">
   <path d="M 174,0 L 602,739 174,1481 1456,739 174,0 Z M 1358,739 L 309,1346 659,739 1358,739 Z"/>
  </g>
  <g id="bullet-char-template(10132)" transform="scale(0.00048828125,-0.00048828125)">
   <path d="M 2015,739 L 1276,0 717,0 1260,543 174,543 174,936 1260,936 717,1481 1274,1481 2015,739 Z"/>
  </g>
  <g id="bullet-char-template(10007)" transform="scale(0.00048828125,-0.00048828125)">
   <path d="M 0,-2 C -7,14 -16,27 -25,37 L 356,567 C 262,823 215,952 215,954 215,979 228,992 255,992 264,992 276,990 289,987 310,991 331,999 354,1012 L 381,999 492,748 772,1049 836,1024 860,1049 C 881,1039 901,1025 922,1006 886,937 835,863 770,784 769,783 710,716 594,584 L 774,223 C 774,196 753,168 711,139 L 727,119 C 717,90 699,76 672,76 641,76 570,178 457,381 L 164,-76 C 142,-110 111,-127 72,-127 30,-127 9,-110 8,-76 1,-67 -2,-52 -2,-32 -2,-23 -1,-13 0,-2 Z"/>
  </g>
  <g id="bullet-char-template(10004)" transform="scale(0.00048828125,-0.00048828125)">
   <path d="M 285,-33 C 182,-33 111,30 74,156 52,228 41,333 41,471 41,549 55,616 82,672 116,743 169,778 240,778 293,778 328,747 346,684 L 369,508 C 377,444 397,411 428,410 L 1163,1116 C 1174,1127 1196,1133 1229,1133 1271,1133 1292,1118 1292,1087 L 1292,965 C 1292,929 1282,901 1262,881 L 442,47 C 390,-6 338,-33 285,-33 Z"/>
  </g>
  <g id="bullet-char-template(9679)" transform="scale(0.00048828125,-0.00048828125)">
   <path d="M 813,0 C 632,0 489,54 383,161 276,268 223,411 223,592 223,773 276,916 383,1023 489,1130 632,1184 813,1184 992,1184 1136,1130 1245,1023 1353,916 1407,772 1407,592 1407,412 1353,268 1245,161 1136,54 992,0 813,0 Z"/>
  </g>
  <g id="bullet-char-template(8226)" transform="scale(0.00048828125,-0.00048828125)">
   <path d="M 346,457 C 273,457 209,483 155,535 101,586 74,649 74,723 74,796 101,859 155,911 209,963 273,989 346,989 419,989 480,963 531,910 582,859 608,796 608,723 608,648 583,586 532,535 482,483 420,457 346,457 Z"/>
  </g>
  <g id="bullet-char-template(8211)" transform="scale(0.00048828125,-0.00048828125)">
   <path d="M -4,459 L 1135,459 1135,606 -4,606 -4,459 Z"/>
  </g>
 </defs>
 <defs class="TextEmbeddedBitmaps"/>
 <g>
  <g id="id2" class="Master_Slide">
   <g id="bg-id2" class="Background"/>
   <g id="bo-id2" class="BackgroundObjects"/>
  </g>
 </g>
 <g class="SlideGroup">
  <g>
   <g id="id1" class="Slide" clip-path="url(#presentation_clip_path)">
    <g class="Page">
     <g class="Group">
      <g class="com.sun.star.drawing.ClosedBezierShape">
       <g id="id3">
        <path fill="rgb(255,66,14)" stroke="none" d="M 2659,1364 C 2625,1364 2596,1369 2571,1380 2545,1391 2524,1407 2507,1427 2489,1448 2476,1472 2467,1501 2459,1530 2454,1561 2454,1597 2454,1632 2459,1664 2469,1693 2478,1722 2492,1747 2509,1768 2527,1789 2549,1805 2575,1817 2601,1828 2630,1834 2662,1834 2684,1834 2705,1831 2724,1825 2742,1819 2759,1811 2774,1800 2789,1789 2803,1777 2814,1762 2826,1747 2837,1731 2846,1713 L 2910,1745 C 2900,1767 2887,1787 2872,1806 2856,1825 2838,1841 2817,1855 2796,1869 2773,1879 2746,1887 2720,1895 2691,1899 2658,1899 2611,1899 2570,1891 2534,1876 2499,1861 2469,1840 2445,1814 2422,1787 2404,1755 2392,1718 2380,1681 2374,1640 2374,1597 2374,1551 2380,1510 2393,1473 2405,1437 2424,1405 2448,1379 2472,1354 2502,1334 2537,1320 2572,1306 2612,1299 2658,1299 2720,1299 2772,1311 2813,1335 2855,1360 2885,1396 2905,1443 L 2830,1468 C 2825,1454 2817,1441 2808,1429 2798,1416 2787,1405 2773,1395 2759,1386 2742,1378 2723,1372 2704,1366 2683,1364 2659,1364 Z"/>
       </g>
      </g>
      <g class="com.sun.star.drawing.ClosedBezierShape">
       <g id="id4">
        <path fill="rgb(255,66,14)" stroke="none" d="M 3461,1484 C 3461,1509 3457,1533 3449,1555 3440,1576 3428,1596 3411,1612 3394,1628 3373,1641 3348,1650 3323,1659 3294,1664 3261,1664 L 3089,1664 3089,1891 3010,1891 3010,1308 3256,1308 C 3290,1308 3320,1312 3346,1321 3372,1329 3393,1341 3410,1356 3427,1372 3440,1390 3448,1412 3457,1433 3461,1457 3461,1484 Z M 3382,1484 C 3382,1447 3371,1419 3348,1400 3325,1381 3291,1371 3246,1371 L 3089,1371 3089,1602 3250,1602 C 3295,1602 3328,1591 3350,1571 3371,1551 3382,1522 3382,1484 Z"/>
       </g>
      </g>
      <g class="com.sun.star.drawing.ClosedBezierShape">
       <g id="id5">
        <path fill="rgb(255,66,14)" stroke="none" d="M 4005,1373 C 4005,1546 4005,1719 4005,1892 3979,1892 3952,1892 3926,1892 3926,1719 3926,1546 3926,1373 3859,1373 3793,1373 3726,1373 3726,1351 3726,1330 3726,1308 3886,1308 4045,1308 4205,1308 4205,1330 4205,1351 4205,1373 4138,1373 4072,1373 4005,1373 Z"/>
       </g>
      </g>
      <g class="com.sun.star.drawing.ClosedBezierShape">
       <g id="id6">
        <path fill="rgb(255,66,14)" stroke="none" d="M 4359,1520 C 4367,1505 4376,1492 4386,1481 4396,1471 4406,1462 4418,1455 4429,1448 4442,1443 4456,1440 4470,1437 4485,1435 4502,1435 4531,1435 4554,1439 4573,1447 4591,1454 4606,1465 4616,1479 4627,1493 4634,1510 4638,1529 4642,1548 4644,1569 4644,1593 L 4644,1891 4569,1891 4569,1607 C 4569,1588 4568,1571 4566,1557 4563,1543 4559,1531 4552,1521 4546,1512 4536,1505 4524,1500 4512,1495 4496,1493 4477,1493 4459,1493 4443,1496 4429,1502 4415,1508 4403,1517 4393,1529 4383,1541 4375,1555 4369,1571 4364,1588 4361,1606 4361,1627 L 4361,1891 4287,1891 4287,1277 4361,1277 4361,1437 C 4361,1446 4361,1455 4361,1464 4360,1473 4360,1481 4360,1489 4359,1497 4359,1503 4359,1509 4358,1514 4358,1518 4358,1520 L 4359,1520 Z"/>
       </g>
      </g>
      <g class="com.sun.star.drawing.ClosedBezierShape">
       <g id="id7">
        <path fill="rgb(255,66,14)" stroke="none" d="M 4811,1683 C 4811,1706 4814,1728 4818,1748 4823,1767 4831,1784 4841,1798 4851,1813 4864,1824 4879,1831 4895,1839 4914,1843 4936,1843 4968,1843 4994,1837 5014,1824 5033,1811 5046,1794 5053,1775 L 5118,1793 C 5114,1806 5107,1818 5099,1831 5090,1843 5079,1854 5065,1865 5051,1875 5033,1883 5012,1889 4991,1896 4966,1899 4936,1899 4870,1899 4819,1879 4785,1840 4750,1800 4733,1742 4733,1664 4733,1622 4738,1587 4749,1558 4759,1529 4773,1505 4792,1487 4810,1468 4831,1455 4855,1447 4880,1439 4906,1435 4933,1435 4971,1435 5002,1441 5027,1453 5052,1465 5073,1482 5088,1504 5103,1525 5114,1550 5121,1579 5127,1608 5130,1639 5130,1673 L 5130,1683 4811,1683 Z M 5053,1626 C 5049,1579 5037,1544 5018,1523 4998,1501 4969,1490 4932,1490 4920,1490 4906,1492 4893,1496 4879,1500 4867,1507 4855,1517 4843,1528 4834,1541 4826,1559 4818,1577 4813,1599 4812,1626 L 5053,1626 Z"/>
       </g>
      </g>
      <g class="com.sun.star.drawing.ClosedBezierShape">
       <g id="id8">
        <path fill="rgb(255,66,14)" stroke="none" d="M 5485,1891 L 5485,1607 C 5485,1585 5483,1567 5480,1553 5478,1538 5473,1526 5467,1517 5460,1508 5452,1502 5441,1498 5431,1494 5418,1493 5403,1493 5387,1493 5373,1496 5360,1502 5347,1508 5337,1517 5328,1529 5319,1540 5312,1555 5307,1572 5302,1589 5300,1609 5300,1632 L 5300,1891 5226,1891 5226,1538 C 5226,1528 5226,1519 5226,1508 5225,1498 5225,1488 5225,1479 5225,1469 5224,1462 5224,1455 5224,1448 5224,1445 5223,1445 L 5294,1445 C 5294,1446 5294,1450 5294,1456 5295,1462 5295,1469 5295,1476 5296,1484 5296,1492 5296,1500 5297,1508 5297,1514 5297,1520 L 5298,1520 C 5305,1507 5312,1495 5320,1485 5327,1474 5336,1465 5347,1458 5357,1451 5369,1445 5382,1441 5396,1437 5411,1435 5429,1435 5463,1435 5490,1442 5509,1455 5529,1469 5543,1490 5550,1520 L 5552,1520 C 5558,1507 5566,1495 5574,1485 5582,1474 5592,1465 5603,1458 5614,1451 5626,1445 5640,1441 5654,1437 5670,1435 5687,1435 5710,1435 5729,1438 5746,1444 5762,1450 5776,1460 5786,1472 5797,1485 5804,1501 5809,1521 5814,1541 5817,1565 5817,1593 L 5817,1891 5743,1891 5743,1607 C 5743,1585 5742,1567 5739,1553 5736,1538 5732,1526 5725,1517 5719,1508 5710,1502 5700,1498 5689,1494 5676,1493 5661,1493 5646,1493 5631,1495 5619,1501 5606,1507 5595,1516 5586,1528 5577,1539 5570,1554 5565,1571 5561,1589 5558,1609 5558,1632 L 5558,1891 5485,1891 Z"/>
       </g>
      </g>
      <g class="com.sun.star.drawing.ClosedBezierShape">
       <g id="id9">
        <path fill="rgb(255,66,14)" stroke="none" d="M 5997,1683 C 5997,1706 6000,1728 6004,1748 6009,1767 6017,1784 6027,1798 6037,1813 6050,1824 6065,1831 6081,1839 6100,1843 6122,1843 6154,1843 6180,1837 6200,1824 6219,1811 6232,1794 6239,1775 L 6304,1793 C 6300,1806 6293,1818 6285,1831 6276,1843 6265,1854 6251,1865 6237,1875 6219,1883 6198,1889 6177,1896 6152,1899 6122,1899 6056,1899 6005,1879 5971,1840 5936,1800 5919,1742 5919,1664 5919,1622 5924,1587 5935,1558 5945,1529 5960,1505 5978,1487 5996,1468 6017,1455 6041,1447 6066,1439 6092,1435 6119,1435 6157,1435 6188,1441 6213,1453 6238,1465 6259,1482 6274,1504 6289,1525 6300,1550 6307,1579 6313,1608 6316,1639 6316,1673 L 6316,1683 5997,1683 Z M 6240,1626 C 6235,1579 6223,1544 6204,1523 6184,1501 6155,1490 6118,1490 6106,1490 6092,1492 6079,1496 6065,1500 6053,1507 6041,1517 6029,1528 6020,1541 6012,1559 6004,1577 5999,1599 5998,1626 L 6240,1626 Z"/>
       </g>
      </g>
      <g class="com.sun.star.drawing.ClosedBezierShape">
       <g id="id10">
        <path fill="rgb(255,66,14)" stroke="none" d="M 7161,1594 C 7161,1642 7154,1685 7139,1722 7125,1759 7105,1790 7079,1815 7054,1840 7024,1859 6989,1872 6955,1885 6917,1891 6877,1891 L 6659,1891 6659,1308 6852,1308 C 6897,1308 6939,1314 6976,1325 7014,1336 7047,1353 7074,1376 7102,1400 7123,1429 7138,1465 7153,1501 7161,1544 7161,1594 Z M 7082,1594 C 7082,1554 7076,1520 7065,1492 7053,1464 7038,1441 7017,1423 6997,1406 6972,1392 6944,1384 6916,1376 6884,1371 6851,1371 L 6738,1371 6738,1828 6868,1828 C 6899,1828 6927,1823 6953,1813 6979,1803 7002,1788 7021,1769 7040,1749 7055,1725 7066,1695 7076,1666 7082,1632 7082,1594 Z"/>
       </g>
      </g>
      <g class="com.sun.star.drawing.ClosedBezierShape">
       <g id="id11">
        <path fill="rgb(255,66,14)" stroke="none" d="M 7633,1728 C 7633,1753 7629,1776 7621,1797 7614,1817 7602,1835 7585,1851 7569,1866 7549,1878 7524,1886 7499,1895 7469,1899 7435,1899 7401,1899 7371,1895 7346,1886 7321,1878 7300,1866 7284,1851 7268,1836 7255,1818 7248,1797 7240,1776 7236,1753 7236,1729 7236,1708 7239,1689 7246,1672 7252,1656 7261,1641 7272,1629 7282,1617 7295,1608 7309,1600 7323,1593 7337,1588 7352,1586 L 7352,1584 C 7336,1580 7321,1574 7308,1566 7296,1557 7285,1547 7276,1535 7267,1523 7261,1509 7256,1495 7252,1480 7249,1465 7249,1448 7249,1428 7253,1409 7261,1391 7269,1373 7281,1357 7296,1343 7312,1329 7331,1319 7354,1311 7377,1303 7403,1299 7433,1299 7465,1299 7492,1303 7516,1311 7539,1319 7558,1330 7573,1343 7589,1357 7600,1373 7608,1391 7615,1410 7619,1429 7619,1449 7619,1465 7617,1481 7612,1495 7607,1510 7601,1523 7592,1535 7583,1547 7573,1557 7560,1566 7547,1574 7532,1580 7515,1583 L 7515,1585 C 7532,1588 7548,1593 7562,1600 7576,1607 7589,1617 7599,1629 7610,1641 7618,1655 7624,1672 7630,1688 7633,1707 7633,1728 Z M 7541,1453 C 7541,1439 7540,1425 7536,1413 7532,1401 7526,1391 7517,1382 7509,1373 7498,1367 7484,1362 7470,1357 7453,1354 7433,1354 7414,1354 7397,1357 7383,1362 7370,1367 7359,1373 7350,1382 7341,1391 7335,1401 7331,1413 7327,1425 7326,1439 7326,1453 7326,1465 7327,1477 7330,1489 7333,1501 7339,1512 7347,1522 7355,1532 7366,1540 7380,1546 7394,1553 7412,1556 7434,1556 7457,1556 7476,1553 7490,1546 7505,1540 7515,1532 7523,1522 7531,1512 7536,1501 7538,1489 7540,1477 7541,1465 7541,1453 Z M 7556,1721 C 7556,1707 7554,1693 7550,1680 7546,1667 7540,1656 7530,1646 7521,1636 7508,1627 7492,1621 7477,1615 7457,1612 7433,1612 7411,1612 7393,1615 7377,1621 7362,1627 7350,1636 7340,1646 7331,1656 7324,1668 7319,1681 7315,1695 7313,1708 7313,1723 7313,1741 7315,1757 7319,1772 7324,1787 7331,1799 7340,1810 7350,1820 7363,1829 7378,1834 7394,1840 7413,1843 7436,1843 7458,1843 7477,1840 7493,1834 7508,1829 7520,1820 7530,1810 7539,1799 7546,1786 7550,1771 7554,1756 7556,1740 7556,1721 Z"/>
       </g>
      </g>
     </g>
     <g class="com.sun.star.drawing.CustomShape">
      <g id="id12">
       <path fill="none" stroke="rgb(255,66,14)" stroke-width="400" stroke-linejoin="miter" d="M 5000,9800 L 200,9800 200,200 9800,200 9800,9800 5000,9800 Z"/>
      </g>
     </g>
    </g>
   </g>
  </g>
 </g>
</svg>