<svg xmlns="http://www.w3.org/2000/svg" style="isolation:isolate" viewBox="0 0 1647.34 500" width="2196.453" height="500pt"><defs><clipPath id="a"><path d="M0 0h1647.34v500H0z"/></clipPath></defs><g clip-path="url(#a)"><path fill="none" d="M0 0h1647.34v500H0z"/><path d="M0 400V100h67v300H0zM273.927 151.497c-23.288 0-41.318 8.751-54.092 26.248-12.775 17.499-19.162 41.885-19.162 73.154 0 65.068 24.417 97.604 73.254 97.604 20.491 0 45.31-5.122 74.452-15.37v51.897c-23.952 9.98-50.699 14.97-80.24 14.97-42.45 0-74.919-12.874-97.406-38.623C148.244 335.628 137 298.67 137 250.5c0-30.34 5.521-56.919 16.567-79.741 11.044-22.821 26.912-40.32 47.605-52.495C221.863 106.088 246.115 100 273.927 100c28.344 0 56.819 6.854 85.43 20.559l-19.961 50.3c-10.912-5.19-21.89-9.713-32.934-13.573-11.046-3.858-21.89-5.789-32.535-5.789zM474.784 249.901c0 32.558 6.18 57.076 18.539 73.554 12.359 16.481 30.829 24.717 55.416 24.717 49.302 0 73.953-32.755 73.953-98.271 0-65.647-24.518-98.472-73.555-98.472-24.586 0-43.124 8.272-55.615 24.817-12.492 16.545-18.738 41.098-18.738 73.655zm212.693 0c0 48.238-11.96 85.315-35.881 111.228C627.676 387.043 593.39 400 548.739 400c-44.652 0-78.938-12.957-102.858-38.871C421.96 335.216 410 298.007 410 249.503c0-48.505 11.992-85.548 35.98-111.131C469.967 112.791 504.352 100 549.137 100c44.783 0 79.037 12.891 102.758 38.671 23.721 25.783 35.582 62.859 35.582 111.23zM944.22 314.969c0 26.348-9.48 47.107-28.44 62.276C896.82 392.415 870.43 400 836.64 400c-31.14 0-58.688-5.852-82.64-17.565V324.95c19.693 8.782 36.36 14.97 50 18.563 13.64 3.592 26.11 5.389 37.43 5.389 13.57 0 23.98-2.595 31.23-7.785 7.26-5.189 10.88-12.906 10.88-23.153 0-5.721-1.59-10.811-4.79-15.27-3.19-4.455-7.88-8.747-14.07-12.874-6.19-4.124-18.8-10.711-37.83-19.761-17.83-8.381-31.201-16.431-40.115-24.15-8.916-7.716-16.036-16.699-21.358-26.946-5.323-10.246-7.984-22.222-7.984-35.929 0-25.814 8.749-46.108 26.248-60.878C801.14 107.385 825.32 100 856.2 100c15.17 0 29.64 1.796 43.41 5.389 13.77 3.593 28.18 8.651 43.21 15.17l-19.96 48.104c-15.57-6.387-28.44-10.844-38.62-13.373-10.18-2.527-20.19-3.793-30.04-3.793-11.71 0-20.69 2.729-26.95 8.184-6.25 5.457-9.38 12.575-9.38 21.357 0 5.458 1.27 10.214 3.8 14.272 2.52 4.06 6.55 7.984 12.07 11.777 5.52 3.792 18.6 10.612 39.22 20.459 27.28 13.042 45.98 26.116 56.09 39.22 10.11 13.109 15.17 29.177 15.17 48.203z" fill="#FEFEFE"/><path d="M1374 27.5c0 15.188-12.31 27.5-27.5 27.5S1319 42.688 1319 27.5 1331.31 0 1346.5 0s27.5 12.312 27.5 27.5z" fill="#E6447B"/><path d="M1291.5 27.5c0 15.188-12.31 27.5-27.5 27.5s-27.5-12.312-27.5-27.5S1248.81 0 1264 0s27.5 12.312 27.5 27.5z" fill="#4B94CF"/><path d="M1209 27.5c0 15.188-12.31 27.5-27.5 27.5S1154 42.688 1154 27.5 1166.31 0 1181.5 0s27.5 12.312 27.5 27.5z" fill="#E6447B"/><path d="M1055 500h-14V0h14v500zM1159.4 153.2v-49.971h13.57V153.2h-13.57zM1231.01 153.2h-17.7l-18.25-35.205h-.31c.43 5.537.65 9.764.65 12.68V153.2h-11.96v-49.971h17.63l18.19 34.727h.2c-.32-5.036-.48-9.081-.48-12.134v-22.593h12.03V153.2zM1263.19 153.2h-13.5v-38.931h-12.2v-11.04h37.87v11.04h-12.17V153.2zM1311.46 153.2h-29.67v-49.971h29.67v10.835h-16.17v7.861h14.97v10.835h-14.97v9.434h16.17V153.2zM1339.91 123.942h21.57v26.933c-5.86 2.006-12.3 3.008-19.31 3.008-7.71 0-13.66-2.233-17.86-6.699-4.21-4.466-6.31-10.835-6.31-19.106 0-8.067 2.3-14.344 6.91-18.833 4.6-4.489 11.05-6.734 19.34-6.734 3.15 0 6.11.297 8.91.889 2.79.593 5.22 1.345 7.29 2.256l-4.27 10.595c-3.6-1.777-7.55-2.666-11.86-2.666-3.94 0-6.99 1.282-9.14 3.846-2.16 2.563-3.23 6.226-3.23 10.988 0 4.672.97 8.232 2.92 10.682 1.95 2.449 4.76 3.674 8.42 3.674 2.01 0 3.85-.193 5.54-.581v-7.827h-8.92v-10.425zM1384.95 124.865h2.53c4.71 0 7.07-2.085 7.07-6.255 0-3.441-2.31-5.161-6.94-5.161h-2.66v11.416zm0 10.151V153.2h-13.5v-49.971h16.37c13.58 0 20.37 4.922 20.37 14.766 0 5.788-2.83 10.265-8.48 13.432l14.56 21.773h-15.31l-10.59-18.184h-3.42zM1447.89 132.76l-2.15-8.203c-.51-1.823-1.11-4.181-1.83-7.075s-1.19-4.967-1.42-6.221c-.21 1.162-.61 3.076-1.21 5.742-.61 2.666-1.95 7.919-4.02 15.757h10.63zm5.26 20.44l-2.46-9.366h-16.23l-2.53 9.366h-14.84l16.31-50.176h18.01l16.51 50.176h-14.77zM1490.96 153.2h-13.5v-38.931h-12.2v-11.04h37.87v11.04h-12.17V153.2zM1539.23 153.2h-29.66v-49.971h29.66v10.835h-16.16v7.861h14.97v10.835h-14.97v9.434h16.16V153.2zM1576.88 127.633c0-4.58-.9-7.975-2.71-10.185-1.81-2.21-4.57-3.316-8.26-3.316h-3.93v27.993h3.01c4.1 0 7.11-1.19 9.02-3.571 1.92-2.381 2.87-6.021 2.87-10.921zm14.02-.478c0 8.34-2.3 14.765-6.89 19.277-4.59 4.512-11.05 6.768-19.36 6.768h-16.17v-49.971h17.3c8.02 0 14.21 2.051 18.57 6.152 4.37 4.102 6.55 10.027 6.55 17.774zM1181.65 193.585c-3.21 0-5.72 1.316-7.52 3.948-1.8 2.632-2.7 6.261-2.7 10.886 0 9.617 3.66 14.424 10.97 14.424 2.21 0 4.36-.307 6.43-.923a63.848 63.848 0 0 0 6.25-2.221v11.416c-4.16 1.845-8.88 2.768-14.15 2.768-7.54 0-13.32-2.187-17.34-6.562s-6.03-10.698-6.03-18.97c0-5.172.97-9.718 2.92-13.638 1.95-3.919 4.75-6.932 8.41-9.04 3.65-2.108 7.95-3.162 12.9-3.162 5.4 0 10.56 1.174 15.48 3.521l-4.13 10.63a46.616 46.616 0 0 0-5.54-2.188c-1.85-.592-3.83-.889-5.95-.889zM1230.94 212.76l-2.16-8.203c-.5-1.823-1.11-4.181-1.83-7.075-.71-2.894-1.19-4.967-1.41-6.221-.21 1.162-.62 3.076-1.22 5.742s-1.94 7.919-4.01 15.757h10.63zm5.26 20.44l-2.46-9.366h-16.24l-2.53 9.366h-14.83l16.3-50.176h18.02l16.5 50.176h-14.76zM1270.15 204.865h2.53c4.72 0 7.08-2.085 7.08-6.255 0-3.441-2.32-5.161-6.94-5.161h-2.67v11.416zm0 10.151V233.2h-13.5v-49.971h16.37c13.58 0 20.38 4.922 20.38 14.766 0 5.788-2.83 10.265-8.48 13.432l14.56 21.773h-15.31l-10.6-18.184h-3.42zM1318.25 212.282v10.493h4.75c4.21 0 6.32-1.777 6.32-5.332 0-1.663-.56-2.94-1.69-3.828-1.13-.889-2.76-1.333-4.91-1.333h-4.47zm0-9.878h4.06c1.94 0 3.44-.399 4.5-1.196 1.06-.798 1.59-1.983 1.59-3.555 0-2.803-2.12-4.204-6.36-4.204h-3.79v8.955zm-13.5-19.175h17.43c6.79 0 11.83 1.008 15.12 3.025 3.29 2.017 4.94 5.156 4.94 9.416 0 2.803-.72 5.196-2.15 7.178-1.44 1.983-3.33 3.259-5.68 3.828v.342c3.1.82 5.35 2.188 6.74 4.102 1.39 1.914 2.08 4.398 2.08 7.451 0 4.534-1.7 8.106-5.11 10.715-3.4 2.61-8.05 3.914-13.93 3.914h-19.44v-49.971zM1363.57 208.146c0 9.662 3.36 14.492 10.09 14.492 3.41 0 5.95-1.173 7.6-3.52 1.65-2.347 2.48-6.004 2.48-10.972 0-4.99-.84-8.676-2.51-11.057-1.68-2.381-4.18-3.572-7.51-3.572-6.76 0-10.15 4.877-10.15 14.629zm34.39 0c0 8.408-2.06 14.8-6.19 19.175-4.12 4.375-10.16 6.562-18.11 6.562-7.84 0-13.85-2.198-18.03-6.596-4.19-4.398-6.28-10.801-6.28-19.209 0-8.317 2.08-14.669 6.24-19.056 4.16-4.386 10.2-6.579 18.13-6.579 7.96 0 13.98 2.176 18.09 6.528 4.1 4.353 6.15 10.744 6.15 19.175zM1454.15 233.2h-17.71l-18.25-35.205h-.31c.43 5.537.65 9.764.65 12.68V233.2h-11.96v-49.971h17.64l18.18 34.727h.2c-.32-5.036-.47-9.081-.47-12.134v-22.593h12.03V233.2zM1171.77 288.146c0 9.662 3.36 14.492 10.09 14.492 3.42 0 5.95-1.173 7.6-3.52 1.65-2.347 2.48-6.004 2.48-10.972 0-4.99-.84-8.676-2.51-11.057-1.68-2.381-4.18-3.572-7.5-3.572-6.77 0-10.16 4.877-10.16 14.629zm34.39 0c0 8.408-2.06 14.8-6.19 19.175-4.12 4.375-10.16 6.562-18.11 6.562-7.84 0-13.85-2.198-18.03-6.596-4.18-4.398-6.27-10.801-6.27-19.209 0-8.317 2.07-14.669 6.23-19.056 4.16-4.386 10.21-6.579 18.14-6.579 7.95 0 13.98 2.176 18.08 6.528 4.1 4.353 6.15 10.744 6.15 19.175zM1228.27 292.282v10.493h4.75c4.22 0 6.32-1.777 6.32-5.332 0-1.663-.56-2.94-1.69-3.828-1.12-.889-2.76-1.333-4.9-1.333h-4.48zm0-9.878h4.07c1.93 0 3.43-.399 4.49-1.196 1.06-.798 1.59-1.983 1.59-3.555 0-2.803-2.12-4.204-6.36-4.204h-3.79v8.955zm-13.5-19.175h17.43c6.79 0 11.83 1.008 15.13 3.025 3.29 2.017 4.93 5.156 4.93 9.416 0 2.803-.71 5.196-2.15 7.178-1.43 1.983-3.33 3.259-5.67 3.828v.342c3.1.82 5.34 2.188 6.73 4.102 1.39 1.914 2.09 4.398 2.09 7.451 0 4.534-1.71 8.106-5.11 10.715-3.41 2.61-8.05 3.914-13.93 3.914h-19.45v-49.971zM1294.91 298.024c0 3.099-.79 5.851-2.36 8.254-1.57 2.405-3.84 4.273-6.8 5.606-2.97 1.333-6.44 1.999-10.43 1.999-3.32 0-6.12-.234-8.37-.7-2.26-.467-4.61-1.282-7.04-2.444v-12.031a40.078 40.078 0 0 0 8.03 3.093c2.78.741 5.33 1.111 7.66 1.111 2 0 3.47-.348 4.4-1.043.94-.695 1.41-1.589 1.41-2.683 0-.684-.19-1.282-.57-1.794-.37-.513-.98-1.031-1.81-1.556-.83-.523-3.05-1.594-6.65-3.212-3.26-1.481-5.7-2.917-7.33-4.307-1.63-1.39-2.84-2.985-3.62-4.785-.79-1.8-1.18-3.931-1.18-6.392 0-4.602 1.67-8.191 5.02-10.766 3.35-2.575 7.96-3.863 13.81-3.863 5.17 0 10.45 1.197 15.83 3.589l-4.14 10.425c-4.67-2.142-8.7-3.213-12.1-3.213-1.75 0-3.03.308-3.83.923-.79.615-1.19 1.379-1.19 2.29 0 .98.5 1.857 1.52 2.632 1.01.775 3.76 2.187 8.25 4.238 4.31 1.937 7.3 4.016 8.98 6.238 1.67 2.221 2.51 5.019 2.51 8.391zM1332.57 313.2h-29.67v-49.971h29.67v10.835h-16.17v7.861h14.97v10.835h-14.97v9.434h16.17V313.2zM1355.31 284.865h2.53c4.72 0 7.08-2.085 7.08-6.255 0-3.441-2.32-5.161-6.94-5.161h-2.67v11.416zm0 10.151V313.2h-13.5v-49.971h16.37c13.58 0 20.38 4.922 20.38 14.766 0 5.788-2.83 10.265-8.48 13.432l14.56 21.773h-15.31l-10.6-18.184h-3.42zM1415.74 263.229h15.11l-16.37 49.971h-15.9l-16.3-49.971h15.18l6.8 25.327c1.41 5.629 2.19 9.548 2.32 11.758.16-1.595.48-3.589.96-5.981.48-2.393.9-4.273 1.26-5.64l6.94-25.464zM1458.78 292.76l-2.16-8.203c-.5-1.823-1.11-4.181-1.83-7.075-.71-2.894-1.19-4.967-1.41-6.221-.21 1.162-.62 3.076-1.22 5.742s-1.94 7.919-4.01 15.757h10.63zm5.26 20.44l-2.46-9.366h-16.24l-2.53 9.366h-14.83l16.3-50.176h18.02l16.5 50.176h-14.76zM1501.85 313.2h-13.5v-38.931h-12.2v-11.04h37.87v11.04h-12.17V313.2zM1520.45 313.2v-49.971h13.57V313.2h-13.57zM1556.77 288.146c0 9.662 3.36 14.492 10.08 14.492 3.42 0 5.95-1.173 7.61-3.52 1.65-2.347 2.48-6.004 2.48-10.972 0-4.99-.84-8.676-2.52-11.057-1.67-2.381-4.17-3.572-7.5-3.572-6.77 0-10.15 4.877-10.15 14.629zm34.38 0c0 8.408-2.06 14.8-6.18 19.175-4.13 4.375-10.17 6.562-18.12 6.562-7.84 0-13.85-2.198-18.03-6.596-4.18-4.398-6.27-10.801-6.27-19.209 0-8.317 2.08-14.669 6.24-19.056 4.16-4.386 10.2-6.579 18.13-6.579 7.95 0 13.98 2.176 18.08 6.528 4.1 4.353 6.15 10.744 6.15 19.175zM1647.34 313.2h-17.7l-18.25-35.205h-.31c.43 5.537.65 9.764.65 12.68V313.2h-11.97v-49.971h17.64l18.18 34.727h.21c-.32-5.036-.48-9.081-.48-12.134v-22.593h12.03V313.2zM1192.08 378.024c0 3.099-.79 5.851-2.36 8.254-1.57 2.405-3.84 4.273-6.8 5.606-2.97 1.333-6.44 1.999-10.43 1.999-3.32 0-6.12-.234-8.37-.7-2.26-.467-4.61-1.282-7.04-2.444v-12.031a40.078 40.078 0 0 0 8.03 3.093c2.78.741 5.33 1.111 7.66 1.111 2 0 3.47-.348 4.4-1.043.94-.695 1.41-1.589 1.41-2.683 0-.684-.19-1.282-.57-1.794-.37-.513-.98-1.031-1.81-1.556-.83-.523-3.05-1.594-6.65-3.212-3.26-1.481-5.7-2.917-7.33-4.307-1.63-1.39-2.84-2.985-3.62-4.785-.79-1.8-1.18-3.931-1.18-6.392 0-4.602 1.67-8.191 5.02-10.766 3.35-2.575 7.96-3.863 13.81-3.863 5.17 0 10.45 1.197 15.83 3.589l-4.14 10.425c-4.67-2.142-8.7-3.213-12.1-3.213-1.75 0-3.03.308-3.83.923-.79.615-1.19 1.379-1.19 2.29 0 .98.5 1.857 1.52 2.632 1.01.775 3.76 2.187 8.25 4.238 4.31 1.937 7.3 4.016 8.98 6.238 1.67 2.221 2.51 5.019 2.51 8.391zM1219.11 361.754l8.62-18.525h14.63l-16.44 30.454V393.2h-13.61v-19.107l-16.44-30.864h14.7l8.54 18.525zM1279.26 378.024c0 3.099-.79 5.851-2.36 8.254-1.57 2.405-3.84 4.273-6.8 5.606-2.97 1.333-6.44 1.999-10.43 1.999-3.33 0-6.12-.234-8.37-.7-2.26-.467-4.61-1.282-7.04-2.444v-12.031a40.078 40.078 0 0 0 8.03 3.093c2.78.741 5.33 1.111 7.65 1.111 2.01 0 3.48-.348 4.41-1.043.94-.695 1.4-1.589 1.4-2.683 0-.684-.18-1.282-.56-1.794-.38-.513-.98-1.031-1.81-1.556-.83-.523-3.05-1.594-6.65-3.212-3.26-1.481-5.7-2.917-7.33-4.307-1.63-1.39-2.84-2.985-3.62-4.785-.79-1.8-1.18-3.931-1.18-6.392 0-4.602 1.67-8.191 5.02-10.766 3.35-2.575 7.95-3.863 13.81-3.863 5.17 0 10.45 1.197 15.83 3.589l-4.14 10.425c-4.67-2.142-8.7-3.213-12.1-3.213-1.75 0-3.03.308-3.83.923-.8.615-1.19 1.379-1.19 2.29 0 .98.5 1.857 1.52 2.632 1.01.775 3.76 2.187 8.25 4.238 4.31 1.937 7.3 4.016 8.97 6.238 1.68 2.221 2.52 5.019 2.52 8.391zM1310.03 393.2h-13.5v-38.931h-12.2v-11.04h37.87v11.04h-12.17V393.2zM1358.31 393.2h-29.67v-49.971h29.67v10.835h-16.17v7.861h14.97v10.835h-14.97v9.434h16.17V393.2zM1389.33 393.2l-10.22-35.992h-.31c.48 6.13.72 10.893.72 14.288V393.2h-11.97v-49.971h17.98l10.43 35.479h.27l10.22-35.479h18.01V393.2h-12.4v-21.909c0-1.14.01-2.404.05-3.794.03-1.39.18-4.797.46-10.22h-.31l-10.08 35.923h-12.85z" fill="#FEFEFE"/></g></svg>