<svg width="149" height="49" viewBox="0 0 149 49" fill="none" xmlns="http://www.w3.org/2000/svg">
<g id="SITES_Brand_Print_-04 1" clip-path="url(#clip0_306_58)">
<g id="Group">
<g id="Group_2">
<path id="Vector" d="M29.2683 42.4978C26.365 47.8282 20.3215 48.5483 18.7036 48.7402C17.6086 48.8846 16.4663 48.9805 15.3243 48.9805C8.66156 48.9805 4.90211 46.7237 2.66505 44.8985C1.76082 44.1303 1.33263 43.6501 0 42.0653L6.37685 38.0313C6.51979 38.1757 7.18641 38.9439 7.85241 39.4719C10.0418 41.2971 13.2778 42.3055 16.0856 42.3055C16.4663 42.3055 17.6086 42.3055 18.7036 41.9694C18.9412 41.9215 22.2727 40.9608 22.2727 38.3674C22.2727 35.2464 17.7987 35.1501 14.8008 34.7176C13.2299 34.5257 11.6125 34.2381 10.0418 33.8539C7.61439 33.2299 5.37754 32.3173 3.71242 30.3C3.37911 29.9158 2.71269 29.0517 2.28409 27.8034C2.14177 27.3228 1.85611 26.2183 1.85611 24.8258C1.85611 24.538 1.90375 23.4333 2.04628 22.473C2.42744 20.3123 3.33126 18.583 4.94935 17.0464C6.61487 15.462 9.89848 13.4926 15.4196 13.4926C17.4656 13.4926 21.9396 13.7327 26.5086 16.8541C27.6502 17.6225 28.3168 18.1988 30.2204 19.8796L24.0335 24.3457C22.177 22.5211 20.8924 21.4642 18.3699 20.6484C17.9415 20.552 16.6567 20.1674 15.2292 20.1674C11.8026 20.1674 10.232 22.1849 10.232 23.769C10.232 24.6816 10.708 25.3059 10.9457 25.5465C12.0879 26.7948 13.9444 26.747 17.0853 27.2269C18.9886 27.5147 20.8445 27.8993 22.7011 28.3314C23.8906 28.5716 28.2213 29.4357 29.9347 33.566C30.1725 34.1896 30.6007 35.4864 30.6007 37.215C30.6007 38.1757 30.5058 40.1926 29.2683 42.4978Z" fill="white"/>
<path id="Vector_2" d="M43.6892 14.3088H35.3129V48.2122H43.6892V14.3088Z" fill="white"/>
<path id="Vector_3" d="M65.3435 20.9841V48.2122H56.8719V20.9841H48.1151V14.3088H74.0519V20.9841H65.3435Z" fill="white"/>
<path id="Vector_4" d="M78.5266 48.2122V14.3088H103.368V20.8399H86.9023V27.0346H102.275V33.4697H86.9023V41.5369H104.891V48.2122H78.5266Z" fill="white"/>
<path id="Vector_5" d="M117.48 23.4296C117.465 23.5442 117.457 23.6581 117.457 23.769C117.457 24.6816 117.932 25.306 118.171 25.5466C119.313 26.7949 121.169 26.747 124.31 27.2269C126.213 27.5148 128.07 27.8994 129.926 28.3314C131.116 28.5716 135.446 29.4357 137.159 33.5661C137.397 34.1896 137.826 35.4864 137.826 37.2151C137.826 38.1758 137.73 40.1927 136.493 42.4978C133.59 47.8282 127.546 48.5483 125.928 48.7402C124.833 48.8847 123.691 48.9806 122.549 48.9806C115.886 48.9806 112.126 46.7237 109.89 44.8985C108.986 44.1303 108.557 43.6502 107.225 42.0654L113.602 38.0313C113.745 38.1758 114.411 38.944 115.077 39.472C117.266 41.2972 120.503 42.3055 123.31 42.3055C123.691 42.3055 124.833 42.3055 125.928 41.9694C126.166 41.9215 129.497 40.9609 129.497 38.3675C129.497 35.2465 125.024 35.1501 122.026 34.7176C120.455 34.5258 118.837 34.2381 117.266 33.8539C114.839 33.23 112.603 32.3174 110.937 30.3001C110.603 29.9159 109.937 29.0517 109.509 27.8034C109.366 27.3229 109.081 26.2184 109.081 24.8258C109.081 24.538 109.128 23.4333 109.271 22.473C109.555 20.8597 110.13 19.488 111.078 18.2567" fill="white"/>
<path id="Vector_6" d="M112.684 16.5803C114.474 15.0987 117.639 13.4836 122.639 13.4836C124.685 13.4836 129.159 13.7234 133.728 16.8452C134.87 17.6132 135.536 18.1895 137.439 19.8705L131.253 24.3365C129.397 22.5113 128.112 21.4549 125.589 20.6391C125.161 20.5427 123.876 20.1581 122.449 20.1581C120.649 20.1581 119.361 20.715 118.544 21.4728" fill="#62A744"/>
<path id="Vector_7" d="M145.494 13.754C140.072 7.82131 131.948 4.0512 122.867 4.0512C115.904 4.0512 109.503 6.26811 104.452 9.97682L101.156 7.22463C107.042 2.71381 114.61 0.00012207 122.867 0.00012207C133.359 0.00012207 142.739 4.38086 148.967 11.2634" fill="#91B27A"/>
<path id="Vector_8" d="M140.08 17.6627C135.92 13.2043 129.752 10.3805 122.867 10.3805C117.956 10.3805 113.408 11.8178 109.695 14.2603L106.542 11.6861C111.063 8.48578 116.724 6.58313 122.867 6.58313C131.067 6.58313 138.407 9.9728 143.324 15.3132" fill="#4FB3CF"/>
</g>
</g>
</g>
<defs>
<clipPath id="clip0_306_58">
<rect width="149" height="49" fill="white"/>
</clipPath>
</defs>
</svg>
